spectral-regular.ufo
<glyph name="exclam" format="1">
  <advance width="250"/>
  <unicode hex="0021"/>
  <outline>
    <contour>
      <point x="115" y="200" type="line"/>
      <point x="135" y="200" type="line"/>
      <point x="180" y="660" type="line"/>
      <point x="70" y="660" type="line"/>
    </contour>
    <contour>
      <point x="125" y="-5" type="curve" smooth="yes"/>
      <point x="157" y="-5"/>
      <point x="186" y="24"/>
      <point x="186" y="56" type="curve" smooth="yes"/>
      <point x="186" y="89"/>
      <point x="157" y="117"/>
      <point x="125" y="117" type="curve" smooth="yes"/>
      <point x="92" y="117"/>
      <point x="64" y="89"/>
      <point x="64" y="56" type="curve" smooth="yes"/>
      <point x="64" y="24"/>
      <point x="92" y="-5"/>
    </contour>
  </outline>
</glyph>
<glyph name="numbersign" format="1">
  <advance width="500"/>
  <unicode hex="0023"/>
  <outline>
    <contour>
      <point x="40" y="0" type="line"/>
      <point x="90" y="0" type="line"/>
      <point x="282" y="660" type="line"/>
      <point x="232" y="660" type="line"/>
    </contour>
    <contour>
      <point x="220" y="0" type="line"/>
      <point x="270" y="0" type="line"/>
      <point x="462" y="660" type="line"/>
      <point x="412" y="660" type="line"/>
    </contour>
    <contour>
      <point x="59" y="403" type="line"/>
      <point x="499" y="403" type="line"/>
      <point x="499" y="450" type="line"/>
      <point x="59" y="450" type="line"/>
    </contour>
    <contour>
      <point x="1" y="203" type="line"/>
      <point x="441" y="203" type="line"/>
      <point x="441" y="250" type="line"/>
      <point x="1" y="250" type="line"/>
    </contour>
  </outline>
</glyph>
<glyph name="dollar" format="2">
  <advance width="500"/>
  <unicode hex="0024"/>
  <outline>
    <contour>
      <point x="188" y="-80" type="line"/>
      <point x="223" y="-80" type="line"/>
      <point x="223" y="740" type="line"/>
      <point x="188" y="740" type="line"/>
    </contour>
    <contour>
      <point x="285" y="-80" type="line"/>
      <point x="320" y="-80" type="line"/>
      <point x="320" y="740" type="line"/>
      <point x="285" y="740" type="line"/>
    </contour>
    <contour>
      <point x="243" y="-10" type="curve" smooth="yes"/>
      <point x="352" y="-10"/>
      <point x="452" y="66"/>
      <point x="452" y="180" type="curve" smooth="yes"/>
      <point x="452" y="270"/>
      <point x="410" y="317"/>
      <point x="275" y="380" type="curve" smooth="yes"/>
      <point x="166" y="431"/>
      <point x="140" y="460"/>
      <point x="140" y="518" type="curve" smooth="yes"/>
      <point x="140" y="577"/>
      <point x="188" y="622"/>
      <point x="260" y="622" type="curve" smooth="yes"/>
      <point x="325" y="622"/>
      <point x="365" y="600"/>
      <point x="382" y="562" type="curve"/>
      <point x="365" y="605" type="line"/>
      <point x="365" y="510" type="line"/>
      <point x="398" y="510" type="line" smooth="yes"/>
      <point x="427" y="510"/>
      <point x="438" y="520"/>
      <point x="438" y="549" type="curve" smooth="yes"/>
      <point x="438" y="614"/>
      <point x="371" y="670"/>
      <point x="260" y="670" type="curve" smooth="yes"/>
      <point x="159" y="670"/>
      <point x="57" y="577"/>
      <point x="57" y="487" type="curve" smooth="yes"/>
      <point x="57" y="408"/>
      <point x="98" y="359"/>
      <point x="204" y="311" type="curve" smooth="yes"/>
      <point x="349" y="245"/>
      <point x="373" y="219"/>
      <point x="373" y="152" type="curve" smooth="yes"/>
      <point x="373" y="81"/>
      <point x="320" y="37"/>
      <point x="240" y="37" type="curve" smooth="yes"/>
      <point x="182" y="37"/>
      <point x="125" y="67"/>
      <point x="110" y="102" type="curve"/>
      <point x="126" y="64" type="line"/>
      <point x="126" y="172" type="line"/>
      <point x="87" y="172" type="line" smooth="yes"/>
      <point x="59" y="172"/>
      <point x="47" y="157"/>
      <point x="47" y="135" type="curve" smooth="yes"/>
      <point x="47" y="69"/>
      <point x="121" y="-10"/>
    </contour>
  </outline>
</glyph>
<glyph name="ampersand" format="1">
  <advance width="695"/>
  <unicode hex="0026"/>
  <outline>
    <contour>
      <point x="512" y="0" type="line"/>
      <point x="673" y="0" type="line"/>
      <point x="673" y="16" type="line"/>
      <point x="590" y="52" type="line"/>
      <point x="295" y="346" type="line" smooth="yes"/>
      <point x="200" y="440"/>
      <point x="164" y="476"/>
      <point x="164" y="534" type="curve" smooth="yes"/>
      <point x="164" y="591"/>
      <point x="203" y="625"/>
      <point x="251" y="625" type="curve" smooth="yes"/>
      <point x="301" y="625"/>
      <point x="337" y="591"/>
      <point x="337" y="538" type="curve" smooth="yes"/>
      <point x="337" y="480"/>
      <point x="296" y="444"/>
      <point x="227" y="395" type="curve"/>
      <point x="254" y="374" type="line"/>
      <point x="358" y="437"/>
      <point x="422" y="479"/>
      <point x="422" y="542" type="curve" smooth="yes"/>
      <point x="422" y="617"/>
      <point x="362" y="670"/>
      <point x="258" y="670" type="curve" smooth="yes"/>
      <point x="149" y="670"/>
      <point x="77" y="584"/>
      <point x="77" y="514" type="curve" smooth="yes"/>
      <point x="77" y="444"/>
      <point x="94" y="418"/>
      <point x="251" y="261" type="curve" smooth="yes"/>
    </contour>
    <contour>
      <point x="212" y="-10" type="curve" smooth="yes"/>
      <point x="406" y="-10"/>
      <point x="505" y="167"/>
      <point x="616" y="428" type="curve"/>
      <point x="586" y="403" type="line"/>
      <point x="695" y="450" type="line"/>
      <point x="695" y="466" type="line"/>
      <point x="457" y="466" type="line"/>
      <point x="457" y="450" type="line"/>
      <point x="555" y="411" type="line"/>
      <point x="483" y="187"/>
      <point x="391" y="55"/>
      <point x="251" y="55" type="curve" smooth="yes"/>
      <point x="175.919708029" y="55.0"/>
      <point x="112.0" y="103.46875"/>
      <point x="112" y="187" type="curve" smooth="yes"/>
      <point x="112.0" y="252.408805031"/>
      <point x="120" y="284"/>
      <point x="197" y="341" type="curve"/>
      <point x="173" y="363" type="line"/>
      <point x="63" y="294"/>
      <point x="20" y="228"/>
      <point x="20" y="163" type="curve" smooth="yes"/>
      <point x="20" y="59"/>
      <point x="97" y="-10"/>
    </contour>
  </outline>
</glyph>
<glyph name="quotesingle" format="1">
  <advance width="250"/>
  <unicode hex="0027"/>
  <outline>
    <contour>
      <point x="115" y="490" type="line"/>
      <point x="135" y="490" type="line"/>
      <point x="170" y="740" type="line"/>
      <point x="80" y="740" type="line"/>
    </contour>
  </outline>
</glyph>
<glyph name="parenleft" format="1">
  <advance width="250"/>
  <unicode hex="0028"/>
  <outline>
    <contour>
      <point x="224" y="-150" type="curve"/>
      <point x="245" y="-150" type="line"/>
      <point x="245" y="-147" type="line"/>
      <point x="165" y="-17"/>
      <point x="122" y="112"/>
      <point x="122" y="295" type="curve" smooth="yes"/>
      <point x="122" y="478"/>
      <point x="165" y="609"/>
      <point x="245" y="737" type="curve"/>
      <point x="245" y="740" type="line"/>
      <point x="224" y="740" type="line"/>
      <point x="119" y="609"/>
      <point x="55" y="460"/>
      <point x="55" y="295" type="curve" smooth="yes"/>
      <point x="55" y="130"/>
      <point x="119" y="-19"/>
    </contour>
  </outline>
</glyph>
<glyph name="parenright" format="1">
  <advance width="250"/>
  <unicode hex="0029"/>
  <outline>
    <contour>
      <point x="5" y="-150" type="line"/>
      <point x="26" y="-150" type="line"/>
      <point x="131" y="-19"/>
      <point x="195" y="130"/>
      <point x="195" y="295" type="curve" smooth="yes"/>
      <point x="195" y="460"/>
      <point x="131" y="609"/>
      <point x="26" y="740" type="curve"/>
      <point x="5" y="740" type="line"/>
      <point x="5" y="737" type="line"/>
      <point x="85" y="609"/>
      <point x="128" y="478"/>
      <point x="128" y="295" type="curve" smooth="yes"/>
      <point x="128" y="112"/>
      <point x="85" y="-17"/>
      <point x="5" y="-147" type="curve"/>
    </contour>
  </outline>
</glyph>
<glyph name="asterisk" format="2">
  <advance width="350"/>
  <unicode hex="002A"/>
  <outline>
    <contour>
      <point x="9" y="600" type="curve"/>
      <point x="156" y="574" type="line"/>
      <point x="55" y="467" type="line"/>
      <point x="61" y="445"/>
      <point x="79" y="431"/>
      <point x="106" y="429" type="curve"/>
      <point x="175" y="556" type="line"/>
      <point x="244" y="429" type="line"/>
      <point x="271" y="431"/>
      <point x="289" y="445"/>
      <point x="295" y="467" type="curve"/>
      <point x="194" y="574" type="line"/>
      <point x="341" y="600" type="line"/>
      <point x="344" y="624"/>
      <point x="338" y="645"/>
      <point x="319" y="661" type="curve"/>
      <point x="186" y="598" type="line"/>
      <point x="206" y="741" type="line"/>
      <point x="187" y="753"/>
      <point x="162" y="753"/>
      <point x="144" y="741" type="curve"/>
      <point x="164" y="598" type="line"/>
      <point x="31" y="661" type="line"/>
      <point x="12" y="645"/>
      <point x="6" y="624"/>
    </contour>
  </outline>
</glyph>
<glyph name="plus" format="1">
  <advance width="500"/>
  <unicode hex="002B"/>
  <outline>
    <contour>
      <point x="40" y="247" type="line"/>
      <point x="460" y="247" type="line"/>
      <point x="460" y="297" type="line"/>
      <point x="40" y="297" type="line"/>
    </contour>
    <contour>
      <point x="224" y="62" type="line"/>
      <point x="276" y="62" type="line"/>
      <point x="276" y="482" type="line"/>
      <point x="224" y="482" type="line"/>
    </contour>
  </outline>
</glyph>
<glyph name="comma" format="2">
  <advance width="250"/>
  <unicode hex="002C"/>
  <outline>
    <contour>
      <point x="36" y="-197" type="line"/>
      <point x="52" y="-197" type="line"/>
      <point x="207" y="77" type="line"/>
      <point x="207" y="88" type="line"/>
      <point x="97" y="88" type="line"/>
    </contour>
  </outline>
</glyph>
<glyph name="hyphen" format="1">
  <advance width="375"/>
  <unicode hex="002D"/>
  <outline>
    <contour>
      <point x="50" y="222" type="line"/>
      <point x="325" y="222" type="line"/>
      <point x="325" y="292" type="line"/>
      <point x="50" y="292" type="line"/>
    </contour>
  </outline>
</glyph>
<glyph name="period" format="1">
  <advance width="250"/>
  <unicode hex="002E"/>
  <outline>
    <contour>
      <point x="125" y="-5" type="curve" smooth="yes"/>
      <point x="158" y="-5"/>
      <point x="186" y="23"/>
      <point x="186" y="56" type="curve" smooth="yes"/>
      <point x="186" y="89"/>
      <point x="158" y="117"/>
      <point x="125" y="117" type="curve" smooth="yes"/>
      <point x="92" y="117"/>
      <point x="64" y="89"/>
      <point x="64" y="56" type="curve" smooth="yes"/>
      <point x="64" y="23"/>
      <point x="92" y="-5"/>
    </contour>
  </outline>
</glyph>
<glyph name="slash" format="1">
  <advance width="250"/>
  <unicode hex="002F"/>
  <outline>
    <contour>
      <point x="0" y="-120" type="line"/>
      <point x="50" y="-120" type="line"/>
      <point x="250" y="750" type="line"/>
      <point x="200" y="750" type="line"/>
    </contour>
  </outline>
</glyph>
<glyph name="zero" format="1">
  <advance width="500"/>
  <unicode hex="0030"/>
  <outline>
    <contour>
      <point x="250" y="-10" type="curve" smooth="yes"/>
      <point x="377" y="-10"/>
      <point x="467" y="135"/>
      <point x="467" y="330" type="curve" smooth="yes"/>
      <point x="467" y="540"/>
      <point x="388" y="670"/>
      <point x="250" y="670" type="curve" smooth="yes"/>
      <point x="122" y="670"/>
      <point x="33" y="525"/>
      <point x="33" y="330" type="curve" smooth="yes"/>
      <point x="33" y="120"/>
      <point x="112" y="-10"/>
    </contour>
    <contour>
      <point x="271" y="37" type="curve" smooth="yes"/>
      <point x="174" y="37"/>
      <point x="125" y="161"/>
      <point x="125" y="363" type="curve" smooth="yes"/>
      <point x="125" y="513"/>
      <point x="165" y="624"/>
      <point x="233" y="624" type="curve" smooth="yes"/>
      <point x="327" y="624"/>
      <point x="375" y="500"/>
      <point x="375" y="299" type="curve" smooth="yes"/>
      <point x="375" y="148"/>
      <point x="337" y="37"/>
    </contour>
  </outline>
</glyph>
<glyph name="one" format="1">
  <advance width="500"/>
  <unicode hex="0031"/>
  <outline>
    <contour>
      <point x="153" y="0" type="line"/>
      <point x="408" y="0" type="line"/>
      <point x="408" y="16" type="line"/>
      <point x="328" y="56" type="line"/>
      <point x="328" y="660" type="line"/>
      <point x="308" y="660" type="line"/>
      <point x="68" y="510" type="line"/>
      <point x="68" y="475" type="line"/>
      <point x="243" y="563" type="line"/>
      <point x="243" y="56" type="line"/>
      <point x="153" y="16" type="line"/>
    </contour>
  </outline>
</glyph>
<glyph name="two" format="2">
  <advance width="500"/>
  <unicode hex="0032"/>
  <outline>
    <contour>
      <point x="52" y="0" type="line"/>
      <point x="452" y="0" type="line"/>
      <point x="462" y="179" type="line"/>
      <point x="446" y="179" type="line"/>
      <point x="396" y="82" type="line"/>
      <point x="128" y="82" type="line"/>
      <point x="137" y="55" type="line"/>
      <point x="388" y="342"/>
      <point x="447" y="379"/>
      <point x="447" y="493" type="curve" smooth="yes"/>
      <point x="447" y="593"/>
      <point x="371" y="670"/>
      <point x="261" y="670" type="curve" smooth="yes"/>
      <point x="151" y="670"/>
      <point x="39" y="589"/>
      <point x="39" y="515" type="curve" smooth="yes"/>
      <point x="39" y="489"/>
      <point x="46" y="481"/>
      <point x="68" y="481" type="curve" smooth="yes"/>
      <point x="132" y="481" type="line"/>
      <point x="132" y="598" type="line"/>
      <point x="117" y="567" type="line"/>
      <point x="145" y="600"/>
      <point x="188" y="621"/>
      <point x="239" y="621" type="curve" smooth="yes"/>
      <point x="305" y="621"/>
      <point x="350" y="572"/>
      <point x="350" y="491" type="curve" smooth="yes"/>
      <point x="350" y="390"/>
      <point x="342" y="358"/>
      <point x="52" y="25" type="curve"/>
    </contour>
  </outline>
</glyph>
<glyph name="three" format="2">
  <advance width="500"/>
  <unicode hex="0033"/>
  <outline>
    <contour>
      <point x="244" y="-10" type="curve" smooth="yes"/>
      <point x="371" y="-10"/>
      <point x="477" y="77"/>
      <point x="477" y="175" type="curve" smooth="yes"/>
      <point x="477" y="287"/>
      <point x="394" y="363"/>
      <point x="226" y="363" type="curve"/>
      <point x="218" y="348" type="line"/>
      <point x="352" y="348"/>
      <point x="442" y="426"/>
      <point x="442" y="512" type="curve" smooth="yes"/>
      <point x="442" y="601"/>
      <point x="365" y="670"/>
      <point x="262" y="670" type="curve" smooth="yes"/>
      <point x="142" y="670"/>
      <point x="53" y="592"/>
      <point x="53" y="526" type="curve" smooth="yes"/>
      <point x="53" y="500"/>
      <point x="60" y="492"/>
      <point x="82" y="492" type="curve" smooth="yes"/>
      <point x="146" y="492" type="line"/>
      <point x="146" y="614" type="line"/>
      <point x="131" y="581" type="line"/>
      <point x="169" y="617"/>
      <point x="209" y="625"/>
      <point x="240" y="625" type="curve" smooth="yes"/>
      <point x="307" y="625"/>
      <point x="345" y="589"/>
      <point x="345" y="505" type="curve"/>
      <point x="345" y="416"/>
      <point x="276" y="363"/>
      <point x="181" y="363" type="curve" smooth="yes"/>
      <point x="154" y="363" type="line"/>
      <point x="154" y="319" type="line"/>
      <point x="213" y="319" type="line" smooth="yes"/>
      <point x="338" y="319"/>
      <point x="379" y="262"/>
      <point x="379" y="172" type="curve" smooth="yes"/>
      <point x="379" y="91"/>
      <point x="330" y="35"/>
      <point x="246" y="35" type="curve" smooth="yes"/>
      <point x="188" y="35"/>
      <point x="143" y="49"/>
      <point x="111" y="79" type="curve"/>
      <point x="126" y="33" type="line"/>
      <point x="126" y="155" type="line"/>
      <point x="62" y="155" type="line" smooth="yes"/>
      <point x="40" y="155"/>
      <point x="33" y="147"/>
      <point x="33" y="121" type="curve" smooth="yes"/>
      <point x="33" y="54"/>
      <point x="124" y="-10"/>
    </contour>
  </outline>
</glyph>
<glyph name="four" format="1">
  <advance width="500"/>
  <unicode hex="0034"/>
  <outline>
    <contour>
      <point x="193.0" y="0.0" type="line"/>
      <point x="448.0" y="0.0" type="line"/>
      <point x="448.0" y="16.0" type="line"/>
      <point x="368.0" y="56.0" type="line"/>
      <point x="368.0" y="660.0" type="line"/>
      <point x="348.0" y="660.0" type="line"/>
      <point x="8.0" y="213.0" type="line"/>
      <point x="8.0" y="193.0" type="line"/>
      <point x="487.0" y="193.0" type="line"/>
      <point x="487.0" y="260.0" type="line"/>
      <point x="71" y="260" type="line"/>
      <point x="71.0" y="217.0" type="line"/>
      <point x="317" y="551" type="line"/>
      <point x="283" y="551" type="line"/>
      <point x="283.0" y="56.0" type="line"/>
      <point x="193.0" y="16.0" type="line"/>
    </contour>
  </outline>
</glyph>
<glyph name="five" format="2">
  <advance width="500"/>
  <unicode hex="0035"/>
  <outline>
    <contour>
      <point x="153" y="39" type="curve"/>
      <point x="187" y="18" type="line"/>
      <point x="114" y="119" type="line"/>
      <point x="70" y="86" type="line" smooth="yes"/>
      <point x="60" y="79"/>
      <point x="56" y="69"/>
      <point x="56" y="59" type="curve" smooth="yes"/>
      <point x="56" y="24"/>
      <point x="98" y="-10"/>
      <point x="190" y="-10" type="curve" smooth="yes"/>
      <point x="341" y="-10"/>
      <point x="447" y="78"/>
      <point x="447" y="232" type="curve" smooth="yes"/>
      <point x="447" y="328"/>
      <point x="374" y="406"/>
      <point x="257" y="406" type="curve" smooth="yes"/>
      <point x="217" y="406"/>
      <point x="172" y="396"/>
      <point x="123" y="374" type="curve"/>
      <point x="138" y="357" type="line"/>
      <point x="147" y="626" type="line"/>
      <point x="129" y="583" type="line"/>
      <point x="423" y="583" type="line"/>
      <point x="423" y="660" type="line"/>
      <point x="96" y="660" type="line"/>
      <point x="86" y="325" type="line"/>
      <point x="125" y="334"/>
      <point x="160" y="338"/>
      <point x="191" y="338" type="curve" smooth="yes"/>
      <point x="316" y="338"/>
      <point x="374" y="275"/>
      <point x="374" y="192" type="curve" smooth="yes"/>
      <point x="374" y="95"/>
      <point x="293" y="34"/>
      <point x="200" y="34" type="curve" smooth="yes"/>
      <point x="184" y="34"/>
      <point x="168" y="35"/>
    </contour>
  </outline>
</glyph>
<glyph name="six" format="1">
  <advance width="500"/>
  <unicode hex="0036"/>
  <outline>
    <contour>
      <point x="255" y="-10" type="curve" smooth="yes"/>
      <point x="400" y="-10"/>
      <point x="471" y="94"/>
      <point x="471" y="196" type="curve" smooth="yes"/>
      <point x="471" y="306"/>
      <point x="402" y="388"/>
      <point x="295" y="388" type="curve" smooth="yes"/>
      <point x="191" y="388"/>
      <point x="120" y="315"/>
      <point x="97" y="217" type="curve"/>
      <point x="107" y="183" type="line"/>
      <point x="116" y="262"/>
      <point x="177" y="321"/>
      <point x="256" y="321" type="curve" smooth="yes"/>
      <point x="337" y="321"/>
      <point x="379" y="273"/>
      <point x="379" y="174" type="curve" smooth="yes"/>
      <point x="379" y="104"/>
      <point x="338" y="36"/>
      <point x="257" y="36" type="curve" smooth="yes"/>
      <point x="190" y="36"/>
      <point x="132" y="94"/>
      <point x="132" y="243" type="curve" smooth="yes"/>
      <point x="132.0" y="433.0"/>
      <point x="236" y="583"/>
      <point x="420" y="641" type="curve"/>
      <point x="420" y="670" type="line"/>
      <point x="184" y="604"/>
      <point x="37.0" y="444.0"/>
      <point x="37" y="234" type="curve" smooth="yes"/>
      <point x="37" y="95"/>
      <point x="124" y="-10"/>
    </contour>
  </outline>
</glyph>
<glyph name="seven" format="1">
  <advance width="500"/>
  <unicode hex="0037"/>
  <outline>
    <contour>
      <point x="83" y="0" type="curve"/>
      <point x="195" y="0" type="line"/>
      <point x="236" y="208"/>
      <point x="368" y="456"/>
      <point x="462" y="640" type="curve"/>
      <point x="462" y="660" type="line"/>
      <point x="52" y="660" type="line"/>
      <point x="52" y="583" type="line"/>
      <point x="418" y="583" type="line"/>
      <point x="409" y="626" type="line"/>
      <point x="186" y="234"/>
      <point x="156" y="172"/>
    </contour>
  </outline>
</glyph>
<glyph name="eight" format="1">
  <advance width="500"/>
  <unicode hex="0038"/>
  <outline>
    <contour>
      <point x="252" y="-10" type="curve" smooth="yes"/>
      <point x="344.446601942" y="-10.0"/>
      <point x="459.0" y="50.0"/>
      <point x="459" y="171" type="curve" smooth="yes"/>
      <point x="459.0" y="263.0"/>
      <point x="400.517692021" y="309.713344088"/>
      <point x="279" y="377" type="curve" smooth="yes"/>
      <point x="169" y="438"/>
      <point x="146" y="474"/>
      <point x="146" y="530" type="curve" smooth="yes"/>
      <point x="146" y="589"/>
      <point x="189" y="624"/>
      <point x="243" y="624" type="curve" smooth="yes"/>
      <point x="311.607142857" y="624.0"/>
      <point x="356.0" y="582.0"/>
      <point x="356" y="495" type="curve" smooth="yes"/>
      <point x="356.0" y="439.0"/>
      <point x="319.487051881" y="403.263487083"/>
      <point x="258" y="370" type="curve"/>
      <point x="279" y="340" type="line"/>
      <point x="379.495008062" y="389.24255395"/>
      <point x="443.0" y="440.0"/>
      <point x="443" y="502" type="curve" smooth="yes"/>
      <point x="443.0" y="599.0"/>
      <point x="356.547368421" y="670.0"/>
      <point x="252" y="670" type="curve" smooth="yes"/>
      <point x="154" y="670"/>
      <point x="58" y="591"/>
      <point x="58" y="499" type="curve" smooth="yes"/>
      <point x="58" y="418"/>
      <point x="96" y="375"/>
      <point x="207" y="312" type="curve" smooth="yes"/>
      <point x="310.465824581" y="253.737691013"/>
      <point x="376.0" y="222.0"/>
      <point x="376" y="143" type="curve" smooth="yes"/>
      <point x="376.0" y="74.0"/>
      <point x="330.621848739" y="33.0"/>
      <point x="256" y="33" type="curve" smooth="yes"/>
      <point x="182" y="33"/>
      <point x="132" y="82"/>
      <point x="132" y="168" type="curve" smooth="yes"/>
      <point x="132" y="227"/>
      <point x="143" y="261"/>
      <point x="214" y="313" type="curve"/>
      <point x="188" y="336" type="line"/>
      <point x="70" y="267"/>
      <point x="41" y="211"/>
      <point x="41" y="145" type="curve" smooth="yes"/>
      <point x="41" y="51"/>
      <point x="140" y="-10"/>
    </contour>
  </outline>
</glyph>
<glyph name="nine" format="1">
  <advance width="500"/>
  <unicode hex="0039"/>
  <outline>
    <contour>
      <point x="81" y="-10" type="line"/>
      <point x="317" y="56"/>
      <point x="464" y="216"/>
      <point x="464" y="426" type="curve" smooth="yes"/>
      <point x="464" y="565"/>
      <point x="377" y="670"/>
      <point x="246" y="670" type="curve" smooth="yes"/>
      <point x="101" y="670"/>
      <point x="30" y="566"/>
      <point x="30" y="464" type="curve" smooth="yes"/>
      <point x="30" y="354"/>
      <point x="99" y="272"/>
      <point x="206" y="272" type="curve" smooth="yes"/>
      <point x="310" y="272"/>
      <point x="381" y="345"/>
      <point x="404" y="443" type="curve"/>
      <point x="394" y="477" type="line"/>
      <point x="385" y="398"/>
      <point x="324" y="339"/>
      <point x="245" y="339" type="curve" smooth="yes"/>
      <point x="164" y="339"/>
      <point x="122" y="387"/>
      <point x="122" y="486" type="curve" smooth="yes"/>
      <point x="122" y="556"/>
      <point x="163" y="624"/>
      <point x="244" y="624" type="curve" smooth="yes"/>
      <point x="311" y="624"/>
      <point x="369" y="566"/>
      <point x="369" y="417" type="curve" smooth="yes"/>
      <point x="369" y="227"/>
      <point x="265" y="77"/>
      <point x="81" y="19" type="curve"/>
    </contour>
  </outline>
</glyph>
<glyph name="less" format="1">
  <advance width="500"/>
  <unicode hex="003C"/>
  <outline>
    <contour>
      <point x="460" y="62" type="line"/>
      <point x="460" y="117" type="line"/>
      <point x="70" y="289" type="line"/>
      <point x="70" y="255" type="line"/>
      <point x="460" y="427" type="line"/>
      <point x="460" y="482" type="line"/>
      <point x="40" y="297" type="line"/>
      <point x="40" y="247" type="line"/>
    </contour>
  </outline>
</glyph>
<glyph name="greater" format="1">
  <advance width="500"/>
  <unicode hex="003E"/>
  <outline>
    <contour>
      <point x="40" y="62" type="line"/>
      <point x="460" y="247" type="line"/>
      <point x="460" y="297" type="line"/>
      <point x="40" y="482" type="line"/>
      <point x="40" y="427" type="line"/>
      <point x="430" y="255" type="line"/>
      <point x="430" y="289" type="line"/>
      <point x="40" y="117" type="line"/>
    </contour>
  </outline>
</glyph>
<glyph name="question" format="2">
  <advance width="479"/>
  <unicode hex="003F"/>
  <outline>
    <contour>
      <point x="200" y="200" type="line"/>
      <point x="220" y="200" type="line"/>
      <point x="236" y="345" type="line"/>
      <point x="215" y="271" type="line"/>
      <point x="366" y="336"/>
      <point x="423" y="405"/>
      <point x="423" y="493" type="curve" smooth="yes"/>
      <point x="423" y="590"/>
      <point x="348" y="670"/>
      <point x="246" y="670" type="curve" smooth="yes"/>
      <point x="132" y="670"/>
      <point x="41" y="596"/>
      <point x="41" y="530" type="curve" smooth="yes"/>
      <point x="41" y="496"/>
      <point x="48" y="488"/>
      <point x="70" y="488" type="curve" smooth="yes"/>
      <point x="134" y="488" type="line"/>
      <point x="134" y="622" type="line"/>
      <point x="107" y="565" type="line"/>
      <point x="154" y="610"/>
      <point x="190" y="619"/>
      <point x="224" y="619" type="curve" smooth="yes"/>
      <point x="281" y="619"/>
      <point x="335" y="585"/>
      <point x="335" y="499" type="curve" smooth="yes"/>
      <point x="335" y="425"/>
      <point x="273" y="380"/>
      <point x="174" y="345" type="curve"/>
    </contour>
    <contour>
      <point x="210" y="-5" type="curve" smooth="yes"/>
      <point x="242" y="-5"/>
      <point x="271" y="24"/>
      <point x="271" y="56" type="curve" smooth="yes"/>
      <point x="271" y="89"/>
      <point x="242" y="117"/>
      <point x="210" y="117" type="curve" smooth="yes"/>
      <point x="177" y="117"/>
      <point x="149" y="89"/>
      <point x="149" y="56" type="curve" smooth="yes"/>
      <point x="149" y="24"/>
      <point x="177" y="-5"/>
    </contour>
  </outline>
</glyph>
<glyph name="at" format="2">
  <advance width="813"/>
  <unicode hex="0040"/>
  <outline>
    <contour>
      <point x="375" y="-118" type="curve" smooth="yes"/>
      <point x="483" y="-118"/>
      <point x="549" y="-92"/>
      <point x="622" y="-47" type="curve"/>
      <point x="608" y="-24" type="line"/>
      <point x="554" y="-62"/>
      <point x="488" y="-85"/>
      <point x="404" y="-85" type="curve" smooth="yes"/>
      <point x="243" y="-85"/>
      <point x="129" y="28"/>
      <point x="129" y="203" type="curve" smooth="yes"/>
      <point x="129" y="391"/>
      <point x="255" y="530"/>
      <point x="450" y="530" type="curve" smooth="yes"/>
      <point x="614" y="530"/>
      <point x="708" y="410"/>
      <point x="708" y="257" type="curve" smooth="yes"/>
      <point x="708" y="141"/>
      <point x="651" y="58"/>
      <point x="586" y="58" type="curve" smooth="yes"/>
      <point x="541" y="58"/>
      <point x="525" y="80"/>
      <point x="536" y="144" type="curve" smooth="yes"/>
      <point x="587" y="429" type="line"/>
      <point x="562" y="429" type="line"/>
      <point x="517" y="400" type="line"/>
      <point x="555" y="391" type="line"/>
      <point x="537" y="412"/>
      <point x="497" y="429"/>
      <point x="454" y="429" type="curve" smooth="yes"/>
      <point x="337" y="429"/>
      <point x="234" y="284"/>
      <point x="234" y="141" type="curve" smooth="yes"/>
      <point x="234" y="61"/>
      <point x="269" y="21"/>
      <point x="315" y="21" type="curve" smooth="yes"/>
      <point x="369" y="21"/>
      <point x="425" y="64"/>
      <point x="477" y="157" type="curve"/>
      <point x="490" y="203" type="line"/>
      <point x="447" y="125"/>
      <point x="394" y="79"/>
      <point x="356" y="79" type="curve" smooth="yes"/>
      <point x="317" y="79"/>
      <point x="304" y="101"/>
      <point x="304" y="175" type="curve" smooth="yes"/>
      <point x="304" y="295"/>
      <point x="360" y="395"/>
      <point x="429" y="395" type="curve" smooth="yes"/>
      <point x="469" y="395"/>
      <point x="487" y="372"/>
      <point x="508" y="343" type="curve"/>
      <point x="506" y="367" type="line"/>
      <point x="467" y="147" type="line" smooth="yes"/>
      <point x="454" y="71"/>
      <point x="488" y="20"/>
      <point x="567" y="20" type="curve" smooth="yes"/>
      <point x="659" y="20"/>
      <point x="741" y="118"/>
      <point x="741" y="258" type="curve" smooth="yes"/>
      <point x="741" y="420"/>
      <point x="641" y="562"/>
      <point x="445" y="562" type="curve" smooth="yes"/>
      <point x="227" y="562"/>
      <point x="70" y="398"/>
      <point x="70" y="184" type="curve" smooth="yes"/>
      <point x="70" y="12"/>
      <point x="194" y="-118"/>
    </contour>
  </outline>
</glyph>
<glyph name="A" format="1">
  <advance width="750"/>
  <unicode hex="0041"/>
  <outline>
    <contour>
      <point x="33" y="0" type="line"/>
      <point x="249" y="0" type="line"/>
      <point x="249" y="16" type="line"/>
      <point x="152" y="55" type="line"/>
      <point x="156" y="28" type="line"/>
      <point x="386" y="599" type="line"/>
      <point x="335" y="599" type="line"/>
      <point x="566" y="28" type="line"/>
      <point x="578" y="58" type="line"/>
      <point x="469" y="16" type="line"/>
      <point x="469" y="0" type="line"/>
      <point x="717" y="0" type="line"/>
      <point x="717" y="16" type="line"/>
      <point x="610" y="73" type="line"/>
      <point x="660" y="28" type="line"/>
      <point x="398" y="665" type="line"/>
      <point x="353" y="665" type="line"/>
      <point x="88" y="28" type="line"/>
      <point x="119" y="61" type="line"/>
      <point x="33" y="16" type="line"/>
    </contour>
    <contour>
      <point x="204" y="235" type="line"/>
      <point x="524" y="235" type="line"/>
      <point x="524" y="290" type="line"/>
      <point x="204" y="290" type="line"/>
    </contour>
    <contour>
      <point x="376" y="710" type="move" name="top"/>
    </contour>
    <contour>
      <point x="614" y="0" type="move" name="right"/>
    </contour>
    <contour>
      <point x="376" y="0" type="move" name="bottom"/>
    </contour>
  </outline>
</glyph>
<glyph name="B" format="1">
  <advance width="658"/>
  <unicode hex="0042"/>
  <outline>
    <contour>
      <point x="65" y="0" type="line"/>
      <point x="235" y="0" type="line"/>
      <point x="235" y="660" type="line"/>
      <point x="65" y="660" type="line"/>
      <point x="65" y="644" type="line"/>
      <point x="145" y="604" type="line"/>
      <point x="145" y="56" type="line"/>
      <point x="65" y="16" type="line"/>
    </contour>
    <contour>
      <point x="341" y="0" type="line" smooth="yes"/>
      <point x="493" y="0"/>
      <point x="606" y="82"/>
      <point x="606" y="192" type="curve" smooth="yes"/>
      <point x="606" y="298"/>
      <point x="507" y="363"/>
      <point x="346" y="363" type="curve"/>
      <point x="338" y="348" type="line"/>
      <point x="472" y="348"/>
      <point x="549" y="426"/>
      <point x="549" y="512" type="curve" smooth="yes"/>
      <point x="549" y="611"/>
      <point x="451" y="660"/>
      <point x="318" y="660" type="curve" smooth="yes"/>
      <point x="182" y="660" type="line"/>
      <point x="182" y="605" type="line"/>
      <point x="295" y="605" type="line" smooth="yes"/>
      <point x="400" y="605"/>
      <point x="452" y="564"/>
      <point x="452" y="484" type="curve" smooth="yes"/>
      <point x="452" y="411"/>
      <point x="396" y="368"/>
      <point x="301" y="368" type="curve" smooth="yes"/>
      <point x="190" y="368" type="line"/>
      <point x="190" y="313" type="line"/>
      <point x="333" y="313" type="line" smooth="yes"/>
      <point x="446" y="313"/>
      <point x="509" y="274"/>
      <point x="509" y="184" type="curve" smooth="yes"/>
      <point x="509" y="108"/>
      <point x="445" y="55"/>
      <point x="340" y="55" type="curve" smooth="yes"/>
      <point x="210" y="55" type="line"/>
      <point x="210" y="0" type="line"/>
    </contour>
  </outline>
</glyph>
<glyph name="C" format="1">
  <advance width="726.0"/>
  <unicode hex="0043"/>
  <outline>
    <contour>
      <point x="400" y="-10" type="curve" smooth="yes"/>
      <point x="510" y="-10"/>
      <point x="564" y="10"/>
      <point x="623" y="39" type="curve"/>
      <point x="634" y="198" type="line"/>
      <point x="617" y="198" type="line"/>
      <point x="540" y="62" type="line"/>
      <point x="578" y="106" type="line"/>
      <point x="535" y="76"/>
      <point x="486" y="41"/>
      <point x="398" y="41" type="curve" smooth="yes"/>
      <point x="268" y="41"/>
      <point x="163" y="152"/>
      <point x="163" y="342" type="curve" smooth="yes"/>
      <point x="163" y="504"/>
      <point x="269" y="620"/>
      <point x="413" y="620" type="curve" smooth="yes"/>
      <point x="467" y="620"/>
      <point x="502" y="600"/>
      <point x="565" y="554" type="curve"/>
      <point x="529" y="599" type="line"/>
      <point x="605" y="447" type="line"/>
      <point x="623" y="447" type="line"/>
      <point x="618" y="622" type="line"/>
      <point x="563.216172201" y="648.893879101"/>
      <point x="515.0" y="670.0"/>
      <point x="415" y="670" type="curve" smooth="yes"/>
      <point x="228.0" y="670.0"/>
      <point x="70.0" y="501.470752089"/>
      <point x="70" y="312" type="curve" smooth="yes"/>
      <point x="70" y="126"/>
      <point x="195" y="-10"/>
    </contour>
    <contour>
      <point x="389" y="710" type="move" name="top"/>
    </contour>
    <contour>
      <point x="400.0" y="0.0" type="move" name="bottom"/>
    </contour>
  </outline>
</glyph>
<glyph name="D" format="1">
  <advance width="775"/>
  <unicode hex="0044"/>
  <outline>
    <contour>
      <point x="65" y="0" type="line"/>
      <point x="235" y="0" type="line"/>
      <point x="235" y="660" type="line"/>
      <point x="65" y="660" type="line"/>
      <point x="65" y="644" type="line"/>
      <point x="145" y="604" type="line"/>
      <point x="145" y="56" type="line"/>
      <point x="65" y="16" type="line"/>
    </contour>
    <contour>
      <point x="351" y="0" type="line" smooth="yes"/>
      <point x="554" y="0"/>
      <point x="705" y="152"/>
      <point x="705" y="360" type="curve" smooth="yes"/>
      <point x="705" y="532"/>
      <point x="579" y="660"/>
      <point x="358" y="660" type="curve" smooth="yes"/>
      <point x="182" y="660" type="line"/>
      <point x="182" y="605" type="line"/>
      <point x="335" y="605" type="line" smooth="yes"/>
      <point x="511" y="605"/>
      <point x="610" y="496"/>
      <point x="610" y="329" type="curve" smooth="yes"/>
      <point x="610" y="162"/>
      <point x="511" y="55"/>
      <point x="350" y="55" type="curve" smooth="yes"/>
      <point x="210" y="55" type="line"/>
      <point x="210" y="0" type="line"/>
    </contour>
    <contour>
      <point x="388" y="710" type="move" name="top"/>
    </contour>
    <contour>
      <point x="388" y="0" type="move" name="bottom"/>
    </contour>
  </outline>
</glyph>
<glyph name="E" format="1">
  <advance width="652.0"/>
  <unicode hex="0045"/>
  <outline>
    <contour>
      <point x="65" y="0" type="line"/>
      <point x="235" y="0" type="line"/>
      <point x="235" y="660" type="line"/>
      <point x="65" y="660" type="line"/>
      <point x="65" y="644" type="line"/>
      <point x="145" y="604" type="line"/>
      <point x="145" y="56" type="line"/>
      <point x="65" y="16" type="line"/>
    </contour>
    <contour>
      <point x="538" y="488" type="line"/>
      <point x="554" y="488" type="line"/>
      <point x="554" y="660" type="line"/>
      <point x="182" y="660" type="line"/>
      <point x="182" y="605" type="line"/>
      <point x="476" y="605" type="line"/>
    </contour>
    <contour>
      <point x="455" y="232" type="line"/>
      <point x="471" y="232" type="line"/>
      <point x="471" y="451" type="line"/>
      <point x="455" y="451" type="line"/>
      <point x="405" y="368" type="line"/>
      <point x="190" y="368" type="line"/>
      <point x="190" y="313" type="line"/>
      <point x="405" y="313" type="line"/>
    </contour>
    <contour>
      <point x="582" y="0" type="line"/>
      <point x="582" y="182" type="line"/>
      <point x="566" y="182" type="line"/>
      <point x="504" y="55" type="line"/>
      <point x="210" y="55" type="line"/>
      <point x="210" y="0" type="line"/>
    </contour>
    <contour>
      <point x="335" y="710" type="move" name="top"/>
    </contour>
    <contour>
      <point x="350.0" y="0.0" type="move" name="bottom"/>
    </contour>
    <contour>
      <point x="505" y="0" type="move" name="right"/>
    </contour>
  </outline>
</glyph>
<glyph name="F" format="1">
  <advance width="614"/>
  <unicode hex="0046"/>
  <outline>
    <contour>
      <point x="65" y="0" type="line"/>
      <point x="325" y="0" type="line"/>
      <point x="325" y="16" type="line"/>
      <point x="235" y="56" type="line"/>
      <point x="235" y="660" type="line"/>
      <point x="65" y="660" type="line"/>
      <point x="65" y="644" type="line"/>
      <point x="145" y="604" type="line"/>
      <point x="145" y="56" type="line"/>
      <point x="65" y="16" type="line"/>
    </contour>
    <contour>
      <point x="528" y="488" type="line"/>
      <point x="544" y="488" type="line"/>
      <point x="544" y="660" type="line"/>
      <point x="172" y="660" type="line"/>
      <point x="172" y="605" type="line"/>
      <point x="466" y="605" type="line"/>
    </contour>
    <contour>
      <point x="445" y="232" type="line"/>
      <point x="461" y="232" type="line"/>
      <point x="461" y="451" type="line"/>
      <point x="445" y="451" type="line"/>
      <point x="395" y="368" type="line"/>
      <point x="180" y="368" type="line"/>
      <point x="180" y="313" type="line"/>
      <point x="395" y="313" type="line"/>
    </contour>
  </outline>
</glyph>
<glyph name="G" format="1">
  <advance width="768"/>
  <unicode hex="0047"/>
  <outline>
    <contour>
      <point x="403" y="-10" type="curve" smooth="yes"/>
      <point x="489" y="-10"/>
      <point x="588" y="23"/>
      <point x="649" y="74" type="curve"/>
      <point x="649" y="231" type="line"/>
      <point x="718" y="274" type="line"/>
      <point x="718" y="290" type="line"/>
      <point x="470" y="290" type="line"/>
      <point x="470" y="274" type="line"/>
      <point x="559" y="234" type="line"/>
      <point x="559" y="61" type="line"/>
      <point x="588" y="82" type="line"/>
      <point x="533" y="54"/>
      <point x="485" y="48"/>
      <point x="432" y="48" type="curve" smooth="yes"/>
      <point x="280" y="48"/>
      <point x="159" y="163"/>
      <point x="159" y="362" type="curve" smooth="yes"/>
      <point x="159" y="510"/>
      <point x="270" y="620"/>
      <point x="424" y="620" type="curve" smooth="yes"/>
      <point x="481" y="620"/>
      <point x="514" y="604"/>
      <point x="584" y="554" type="curve"/>
      <point x="546" y="598" type="line"/>
      <point x="628" y="457" type="line"/>
      <point x="644" y="457" type="line"/>
      <point x="639" y="622" type="line"/>
      <point x="582" y="650"/>
      <point x="531" y="670"/>
      <point x="426" y="670" type="curve" smooth="yes"/>
      <point x="230" y="670"/>
      <point x="70" y="517"/>
      <point x="70" y="312" type="curve" smooth="yes"/>
      <point x="70" y="126"/>
      <point x="211" y="-10"/>
    </contour>
    <contour>
      <point x="400" y="710" type="move" name="top"/>
    </contour>
    <contour>
      <point x="415.0" y="0.0" type="move" name="bottom"/>
    </contour>
  </outline>
</glyph>
<glyph name="H" format="1">
  <advance width="810"/>
  <unicode hex="0048"/>
  <outline>
    <contour>
      <point x="65" y="0" type="line"/>
      <point x="315" y="0" type="line"/>
      <point x="315" y="16" type="line"/>
      <point x="235" y="56" type="line"/>
      <point x="235" y="604" type="line"/>
      <point x="315" y="644" type="line"/>
      <point x="315" y="660" type="line"/>
      <point x="65" y="660" type="line"/>
      <point x="65" y="644" type="line"/>
      <point x="145" y="604" type="line"/>
      <point x="145" y="56" type="line"/>
      <point x="65" y="16" type="line"/>
    </contour>
    <contour>
      <point x="190" y="313" type="line"/>
      <point x="620" y="313" type="line"/>
      <point x="620" y="368" type="line"/>
      <point x="190" y="368" type="line"/>
    </contour>
    <contour>
      <point x="495" y="0" type="line"/>
      <point x="745" y="0" type="line"/>
      <point x="745" y="16" type="line"/>
      <point x="665" y="56" type="line"/>
      <point x="665" y="604" type="line"/>
      <point x="745" y="644" type="line"/>
      <point x="745" y="660" type="line"/>
      <point x="495" y="660" type="line"/>
      <point x="495" y="644" type="line"/>
      <point x="575" y="604" type="line"/>
      <point x="575" y="56" type="line"/>
      <point x="495" y="16" type="line"/>
    </contour>
    <contour>
      <point x="405" y="710.0" type="move" name="top"/>
    </contour>
    <contour>
      <point x="405" y="0" type="move" name="bottom"/>
    </contour>
  </outline>
</glyph>
<glyph name="I" format="2">
  <advance width="390"/>
  <unicode hex="0049"/>
  <anchor x="195.0" y="710.0" name="top"/>
  <anchor x="212" y="0" name="right"/>
  <anchor x="195.0" y="0.0" name="bottom"/>
  <outline>
    <contour>
      <point x="70" y="0" type="line"/>
      <point x="320" y="0" type="line"/>
      <point x="320" y="16" type="line"/>
      <point x="240" y="56" type="line"/>
      <point x="240" y="604" type="line"/>
      <point x="320" y="644" type="line"/>
      <point x="320" y="660" type="line"/>
      <point x="70" y="660" type="line"/>
      <point x="70" y="644" type="line"/>
      <point x="150" y="604" type="line"/>
      <point x="150" y="56" type="line"/>
      <point x="70" y="16" type="line"/>
    </contour>
  </outline>
</glyph>
<glyph name="J" format="2">
  <advance width="390"/>
  <unicode hex="004A"/>
  <anchor x="195.0" y="710.0" name="top"/>
  <outline>
    <contour>
      <point x="54" y="-174" type="curve" smooth="yes"/>
      <point x="85" y="-174"/>
      <point x="108" y="-159"/>
      <point x="159" y="-101" type="curve" smooth="yes"/>
      <point x="210" y="-43"/>
      <point x="240" y="66"/>
      <point x="240" y="240" type="curve" smooth="yes"/>
      <point x="240" y="604" type="line"/>
      <point x="320" y="644" type="line"/>
      <point x="320" y="660" type="line"/>
      <point x="70" y="660" type="line"/>
      <point x="70" y="644" type="line"/>
      <point x="150" y="604" type="line"/>
      <point x="150" y="51" type="line" smooth="yes"/>
      <point x="150" y="-43"/>
      <point x="130" y="-97"/>
      <point x="84" y="-125" type="curve"/>
      <point x="136" y="-109" type="line"/>
      <point x="23" y="-89" type="line"/>
      <point x="16" y="-120" type="line" smooth="yes"/>
      <point x="13" y="-133"/>
      <point x="12" y="-138"/>
      <point x="12" y="-142" type="curve" smooth="yes"/>
      <point x="12" y="-161"/>
      <point x="28" y="-174"/>
    </contour>
  </outline>
</glyph>
<glyph name="K" format="1">
  <advance width="719.0"/>
  <unicode hex="004B"/>
  <outline>
    <contour>
      <point x="65" y="0" type="line"/>
      <point x="315" y="0" type="line"/>
      <point x="315" y="16" type="line"/>
      <point x="235" y="56" type="line"/>
      <point x="235" y="604" type="line"/>
      <point x="315" y="644" type="line"/>
      <point x="315" y="660" type="line"/>
      <point x="65" y="660" type="line"/>
      <point x="65" y="644" type="line"/>
      <point x="145" y="604" type="line"/>
      <point x="145" y="56" type="line"/>
      <point x="65" y="16" type="line"/>
    </contour>
    <contour>
      <point x="236" y="338" type="line"/>
      <point x="560" y="0" type="line"/>
      <point x="704" y="0" type="line"/>
      <point x="704" y="16" type="line"/>
      <point x="604" y="59" type="line"/>
      <point x="654" y="31" type="line"/>
      <point x="303" y="386" type="line"/>
      <point x="303" y="338" type="line"/>
      <point x="609" y="638" type="line"/>
      <point x="568" y="611" type="line"/>
      <point x="652" y="644" type="line"/>
      <point x="652" y="660" type="line"/>
      <point x="442" y="660" type="line"/>
      <point x="442" y="644" type="line"/>
      <point x="530" y="602" type="line"/>
      <point x="530" y="627" type="line"/>
    </contour>
    <contour>
      <point x="385.0" y="710.0" type="move" name="top"/>
    </contour>
    <contour>
      <point x="385.0" y="0.0" type="move" name="bottom"/>
    </contour>
  </outline>
</glyph>
<glyph name="L" format="1">
  <advance width="632"/>
  <unicode hex="004C"/>
  <outline>
    <contour>
      <point x="65" y="0" type="line"/>
      <point x="562" y="0" type="line"/>
      <point x="562" y="222" type="line"/>
      <point x="546" y="222" type="line"/>
      <point x="478" y="55" type="line"/>
      <point x="235" y="55" type="line"/>
      <point x="235" y="604" type="line"/>
      <point x="325" y="644" type="line"/>
      <point x="325" y="660" type="line"/>
      <point x="65" y="660" type="line"/>
      <point x="65" y="644" type="line"/>
      <point x="145" y="604" type="line"/>
      <point x="145" y="56" type="line"/>
      <point x="65" y="16" type="line"/>
    </contour>
    <contour>
      <point x="190.0" y="710.0" type="move" name="top"/>
    </contour>
    <contour>
      <point x="475" y="660" type="move" name="right"/>
    </contour>
    <contour>
      <point x="490" y="347" type="move" name="mid"/>
    </contour>
    <contour>
      <point x="354.0" y="0.0" type="move" name="bottom"/>
    </contour>
  </outline>
</glyph>
<glyph name="M" format="1">
  <advance width="959"/>
  <unicode hex="004D"/>
  <outline>
    <contour>
      <point x="60" y="0" type="line"/>
      <point x="282" y="0" type="line"/>
      <point x="282" y="16" type="line"/>
      <point x="201" y="55" type="line"/>
      <point x="217" y="642" type="line"/>
      <point x="161" y="642" type="line"/>
      <point x="139" y="56" type="line"/>
      <point x="60" y="16" type="line"/>
    </contour>
    <contour>
      <point x="449" y="-5" type="line"/>
      <point x="494" y="-5" type="line"/>
      <point x="754" y="597" type="line"/>
      <point x="797" y="597" type="line"/>
      <point x="896" y="644" type="line"/>
      <point x="896" y="660" type="line"/>
      <point x="720" y="660" type="line"/>
      <point x="465" y="71" type="line"/>
      <point x="514" y="71" type="line"/>
      <point x="259" y="660" type="line"/>
      <point x="74" y="660" type="line"/>
      <point x="74" y="644" type="line"/>
      <point x="173" y="597" type="line"/>
      <point x="190" y="597" type="line"/>
    </contour>
    <contour>
      <point x="669" y="0" type="line"/>
      <point x="899" y="0" type="line"/>
      <point x="899" y="16" type="line"/>
      <point x="829" y="56" type="line"/>
      <point x="811" y="642" type="line"/>
      <point x="731" y="642" type="line"/>
      <point x="743" y="55" type="line"/>
      <point x="669" y="16" type="line"/>
    </contour>
    <contour>
      <point x="472.0" y="0.0" type="move" name="bottom"/>
    </contour>
  </outline>
</glyph>
<glyph name="N" format="1">
  <advance width="799"/>
  <unicode hex="004E"/>
  <outline>
    <contour>
      <point x="60" y="0" type="line"/>
      <point x="310" y="0" type="line"/>
      <point x="310" y="16" type="line"/>
      <point x="210" y="55" type="line"/>
      <point x="210" y="561" type="line"/>
      <point x="174" y="561" type="line"/>
      <point x="623" y="-5" type="line"/>
      <point x="660" y="-5" type="line"/>
      <point x="660" y="605" type="line"/>
      <point x="739" y="644" type="line"/>
      <point x="739" y="660" type="line"/>
      <point x="490" y="660" type="line"/>
      <point x="490" y="644" type="line"/>
      <point x="590" y="606" type="line"/>
      <point x="590" y="100" type="line"/>
      <point x="654" y="100" type="line"/>
      <point x="208" y="660" type="line"/>
      <point x="61" y="660" type="line"/>
      <point x="61" y="644" type="line"/>
      <point x="140" y="602" type="line"/>
      <point x="140" y="56" type="line"/>
      <point x="60" y="16" type="line"/>
    </contour>
    <contour>
      <point x="410.0" y="710.0" type="move" name="top"/>
    </contour>
    <contour>
      <point x="420.0" y="0.0" type="move" name="bottom"/>
    </contour>
  </outline>
</glyph>
<glyph name="O" format="1">
  <advance width="807"/>
  <unicode hex="004F"/>
  <outline>
    <contour>
      <point x="403" y="-10" type="curve" smooth="yes"/>
      <point x="595" y="-10"/>
      <point x="737" y="134"/>
      <point x="737" y="330" type="curve" smooth="yes"/>
      <point x="737" y="526"/>
      <point x="595" y="670"/>
      <point x="403" y="670" type="curve" smooth="yes"/>
      <point x="212" y="670"/>
      <point x="70" y="526"/>
      <point x="70" y="330" type="curve" smooth="yes"/>
      <point x="70" y="134"/>
      <point x="212" y="-10"/>
    </contour>
    <contour>
      <point x="424" y="40" type="curve" smooth="yes"/>
      <point x="281" y="40"/>
      <point x="167" y="168"/>
      <point x="167" y="363" type="curve" smooth="yes"/>
      <point x="167" y="521"/>
      <point x="258" y="621"/>
      <point x="386" y="621" type="curve" smooth="yes"/>
      <point x="528" y="621"/>
      <point x="640" y="494"/>
      <point x="640" y="299" type="curve" smooth="yes"/>
      <point x="640" y="141"/>
      <point x="552" y="40"/>
    </contour>
    <contour>
      <point x="391" y="710" type="move" name="top"/>
    </contour>
    <contour>
      <point x="431" y="0" type="move" name="right"/>
    </contour>
    <contour>
      <point x="417" y="0" type="move" name="bottom"/>
    </contour>
  </outline>
</glyph>
<glyph name="P" format="1">
  <advance width="638.0"/>
  <unicode hex="0050"/>
  <outline>
    <contour>
      <point x="65" y="0" type="line"/>
      <point x="325" y="0" type="line"/>
      <point x="325" y="16" type="line"/>
      <point x="235" y="56" type="line"/>
      <point x="235" y="605" type="line"/>
      <point x="313" y="605" type="line" smooth="yes"/>
      <point x="426" y="605"/>
      <point x="489" y="566"/>
      <point x="489" y="473" type="curve" smooth="yes"/>
      <point x="489" y="398"/>
      <point x="425" y="346"/>
      <point x="320" y="346" type="curve" smooth="yes"/>
      <point x="210" y="346" type="line"/>
      <point x="210" y="291" type="line"/>
      <point x="301" y="291" type="line" smooth="yes"/>
      <point x="464" y="291"/>
      <point x="586" y="372"/>
      <point x="586" y="481" type="curve" smooth="yes"/>
      <point x="586" y="605"/>
      <point x="482" y="660"/>
      <point x="325" y="660" type="curve" smooth="yes"/>
      <point x="65" y="660" type="line"/>
      <point x="65" y="644" type="line"/>
      <point x="145" y="604" type="line"/>
      <point x="145" y="56" type="line"/>
      <point x="65" y="16" type="line"/>
    </contour>
  </outline>
</glyph>
<glyph name="Q" format="1">
  <advance width="807"/>
  <unicode hex="0051"/>
  <outline>
    <contour>
      <point x="403" y="-10" type="curve" smooth="yes"/>
      <point x="595" y="-10"/>
      <point x="737" y="134"/>
      <point x="737" y="330" type="curve" smooth="yes"/>
      <point x="737" y="526"/>
      <point x="595" y="670"/>
      <point x="403" y="670" type="curve" smooth="yes"/>
      <point x="212" y="670"/>
      <point x="70" y="526"/>
      <point x="70" y="330" type="curve" smooth="yes"/>
      <point x="70" y="134"/>
      <point x="212" y="-10"/>
    </contour>
    <contour>
      <point x="424" y="40" type="curve" smooth="yes"/>
      <point x="281" y="40"/>
      <point x="167" y="168"/>
      <point x="167" y="363" type="curve" smooth="yes"/>
      <point x="167" y="521"/>
      <point x="258" y="621"/>
      <point x="386" y="621" type="curve" smooth="yes"/>
      <point x="528" y="621"/>
      <point x="640" y="494"/>
      <point x="640" y="299" type="curve" smooth="yes"/>
      <point x="640" y="141"/>
      <point x="552" y="40"/>
    </contour>
    <contour>
      <point x="682" y="-149" type="curve" smooth="yes"/>
      <point x="732" y="-149"/>
      <point x="776" y="-138"/>
      <point x="807" y="-122" type="curve"/>
      <point x="807" y="-106" type="line"/>
      <point x="792" y="-111"/>
      <point x="771" y="-115"/>
      <point x="743" y="-115" type="curve" smooth="yes"/>
      <point x="673" y="-115"/>
      <point x="606" y="-83"/>
      <point x="483" y="16" type="curve"/>
      <point x="347" y="16" type="line"/>
      <point x="515" y="-126"/>
      <point x="599" y="-149"/>
    </contour>
  </outline>
</glyph>
<glyph name="R" format="1">
  <advance width="661"/>
  <unicode hex="0052"/>
  <outline>
    <contour>
      <point x="65" y="0" type="line"/>
      <point x="310" y="0" type="line"/>
      <point x="310" y="16" type="line"/>
      <point x="235" y="57" type="line"/>
      <point x="235" y="660" type="line"/>
      <point x="65" y="660" type="line"/>
      <point x="65" y="644" type="line"/>
      <point x="145" y="604" type="line"/>
      <point x="145" y="56" type="line"/>
      <point x="65" y="16" type="line"/>
    </contour>
    <contour>
      <point x="549" y="497" type="curve" smooth="yes"/>
      <point x="549" y="598"/>
      <point x="463" y="660"/>
      <point x="323" y="660" type="curve" smooth="yes"/>
      <point x="182" y="660" type="line"/>
      <point x="182" y="605" type="line"/>
      <point x="300" y="605" type="line" smooth="yes"/>
      <point x="394" y="605"/>
      <point x="452" y="559"/>
      <point x="452" y="484" type="curve" smooth="yes"/>
      <point x="452" y="411"/>
      <point x="390" y="358"/>
      <point x="306" y="358" type="curve" smooth="yes"/>
      <point x="190" y="358" type="line"/>
      <point x="190" y="303" type="line"/>
      <point x="333" y="303" type="line"/>
      <point x="333" y="312" type="line"/>
      <point x="457" y="324"/>
      <point x="549" y="401"/>
    </contour>
    <contour>
      <point x="522" y="0" type="line"/>
      <point x="666" y="0" type="line"/>
      <point x="666" y="16" type="line"/>
      <point x="600" y="52" type="line"/>
      <point x="402" y="341" type="line"/>
      <point x="304" y="341" type="line"/>
    </contour>
    <contour>
      <point x="317" y="710" type="move" name="top"/>
    </contour>
    <contour>
      <point x="367" y="0" type="move" name="bottom"/>
    </contour>
  </outline>
</glyph>
<glyph name="S" format="1">
  <advance width="531"/>
  <unicode hex="0053"/>
  <outline>
    <contour>
      <point x="264" y="-10" type="curve" smooth="yes"/>
      <point x="356" y="-10"/>
      <point x="476" y="55"/>
      <point x="476" y="180" type="curve" smooth="yes"/>
      <point x="476" y="282"/>
      <point x="420" y="319"/>
      <point x="299" y="378" type="curve" smooth="yes"/>
      <point x="211" y="421"/>
      <point x="171" y="450"/>
      <point x="171" y="518" type="curve" smooth="yes"/>
      <point x="171" y="577"/>
      <point x="213" y="622"/>
      <point x="272" y="622" type="curve" smooth="yes"/>
      <point x="320" y="622"/>
      <point x="351" y="606"/>
      <point x="402" y="566" type="curve"/>
      <point x="384" y="593" type="line"/>
      <point x="439" y="468" type="line"/>
      <point x="455" y="468" type="line"/>
      <point x="445" y="628" type="line"/>
      <point x="391" y="655"/>
      <point x="342" y="670"/>
      <point x="280" y="670" type="curve" smooth="yes"/>
      <point x="179" y="670"/>
      <point x="81" y="577"/>
      <point x="81" y="487" type="curve" smooth="yes"/>
      <point x="81" y="395"/>
      <point x="134" y="357"/>
      <point x="228" y="310" type="curve" smooth="yes"/>
      <point x="328" y="260"/>
      <point x="390" y="239"/>
      <point x="390" y="152" type="curve" smooth="yes"/>
      <point x="390" y="81"/>
      <point x="343" y="37"/>
      <point x="264" y="37" type="curve" smooth="yes"/>
      <point x="215" y="37"/>
      <point x="168" y="56"/>
      <point x="115" y="102" type="curve"/>
      <point x="142" y="56" type="line"/>
      <point x="76" y="200" type="line"/>
      <point x="60" y="200" type="line"/>
      <point x="70" y="36" type="line"/>
      <point x="132" y="5"/>
      <point x="182" y="-10"/>
    </contour>
    <contour>
      <point x="272" y="710" type="move" name="top"/>
    </contour>
    <contour>
      <point x="272" y="0" type="move" name="bottom"/>
    </contour>
  </outline>
</glyph>
<glyph name="T" format="2">
  <advance width="674"/>
  <unicode hex="0054"/>
  <anchor x="337" y="710.0" name="top"/>
  <anchor x="337" y="0.0" name="bottom"/>
  <outline>
    <contour>
      <point x="192" y="0" type="line"/>
      <point x="482" y="0" type="line"/>
      <point x="482" y="16" type="line"/>
      <point x="382" y="56" type="line"/>
      <point x="382" y="605" type="line"/>
      <point x="545" y="605" type="line"/>
      <point x="613" y="458" type="line"/>
      <point x="629" y="458" type="line"/>
      <point x="629" y="660" type="line"/>
      <point x="45" y="660" type="line"/>
      <point x="45" y="458" type="line"/>
      <point x="61" y="458" type="line"/>
      <point x="129" y="605" type="line"/>
      <point x="292" y="605" type="line"/>
      <point x="292" y="56" type="line"/>
      <point x="192" y="16" type="line"/>
    </contour>
  </outline>
</glyph>
<glyph name="U" format="1">
  <advance width="809"/>
  <unicode hex="0055"/>
  <outline>
    <contour>
      <point x="405" y="-10" type="curve" smooth="yes"/>
      <point x="554" y="-10"/>
      <point x="665" y="70"/>
      <point x="665" y="256" type="curve" smooth="yes"/>
      <point x="665" y="605" type="line"/>
      <point x="744" y="644" type="line"/>
      <point x="744" y="660" type="line"/>
      <point x="495" y="660" type="line"/>
      <point x="495" y="644" type="line"/>
      <point x="595" y="606" type="line"/>
      <point x="595" y="236" type="line" smooth="yes"/>
      <point x="595" y="101"/>
      <point x="519" y="48"/>
      <point x="431" y="48" type="curve" smooth="yes"/>
      <point x="321" y="48"/>
      <point x="235" y="105"/>
      <point x="235" y="271" type="curve" smooth="yes"/>
      <point x="235" y="604" type="line"/>
      <point x="315" y="644" type="line"/>
      <point x="315" y="660" type="line"/>
      <point x="65" y="660" type="line"/>
      <point x="65" y="644" type="line"/>
      <point x="145" y="604" type="line"/>
      <point x="145" y="256" type="line" smooth="yes"/>
      <point x="145" y="70"/>
      <point x="256" y="-10"/>
    </contour>
    <contour>
      <point x="415" y="710" type="move" name="top"/>
    </contour>
    <contour>
      <point x="402" y="0" type="move" name="bottom"/>
    </contour>
    <contour>
      <point x="431" y="0" type="move" name="right"/>
    </contour>
  </outline>
</glyph>
<glyph name="V" format="1">
  <advance width="740"/>
  <unicode hex="0056"/>
  <outline>
    <contour>
      <point x="356" y="-5" type="line"/>
      <point x="391" y="-5" type="line"/>
      <point x="656" y="632" type="line"/>
      <point x="632" y="605" type="line"/>
      <point x="705" y="644" type="line"/>
      <point x="705" y="660" type="line"/>
      <point x="495" y="660" type="line"/>
      <point x="495" y="644" type="line"/>
      <point x="577" y="610" type="line"/>
      <point x="577" y="606" type="line"/>
      <point x="373" y="99" type="line"/>
      <point x="411" y="144" type="line"/>
      <point x="366" y="144" type="line"/>
      <point x="404" y="99" type="line"/>
      <point x="199" y="602" type="line"/>
      <point x="199" y="607" type="line"/>
      <point x="285" y="644" type="line"/>
      <point x="285" y="660" type="line"/>
      <point x="35" y="660" type="line"/>
      <point x="35" y="644" type="line"/>
      <point x="144" y="588" type="line"/>
      <point x="94" y="632" type="line"/>
    </contour>
  </outline>
</glyph>
<glyph name="W" format="1">
  <advance width="981"/>
  <unicode hex="0057"/>
  <outline>
    <contour>
      <point x="274" y="-5" type="line"/>
      <point x="309" y="-5" type="line"/>
      <point x="512" y="543" type="line"/>
      <point x="471" y="485" type="line"/>
      <point x="516" y="485" type="line"/>
      <point x="475" y="543" type="line"/>
      <point x="678" y="-5" type="line"/>
      <point x="713" y="-5" type="line"/>
      <point x="906" y="632" type="line"/>
      <point x="876" y="595" type="line"/>
      <point x="966" y="644" type="line"/>
      <point x="966" y="660" type="line"/>
      <point x="745" y="660" type="line"/>
      <point x="745" y="644" type="line"/>
      <point x="854" y="595" type="line"/>
      <point x="838" y="632" type="line"/>
      <point x="694" y="129" type="line"/>
      <point x="726" y="174" type="line"/>
      <point x="681" y="174" type="line"/>
      <point x="717" y="129" type="line"/>
      <point x="524" y="665" type="line"/>
      <point x="487" y="665" type="line"/>
      <point x="296" y="122" type="line"/>
      <point x="333" y="174" type="line"/>
      <point x="288" y="174" type="line"/>
      <point x="324" y="122" type="line"/>
      <point x="177" y="632" type="line"/>
      <point x="150" y="592" type="line"/>
      <point x="269" y="644" type="line"/>
      <point x="269" y="660" type="line"/>
      <point x="15" y="660" type="line"/>
      <point x="15" y="644" type="line"/>
      <point x="124" y="592" type="line"/>
      <point x="83" y="632" type="line"/>
    </contour>
    <contour>
      <point x="506" y="710" type="move" name="top"/>
    </contour>
  </outline>
</glyph>
<glyph name="Y" format="1">
  <advance width="718"/>
  <unicode hex="0059"/>
  <outline>
    <contour>
      <point x="228" y="0" type="line"/>
      <point x="498" y="0" type="line"/>
      <point x="498" y="16" type="line"/>
      <point x="408" y="56" type="line"/>
      <point x="408" y="332" type="line"/>
      <point x="378" y="266" type="line"/>
      <point x="634" y="632" type="line"/>
      <point x="598" y="600" type="line"/>
      <point x="683" y="644" type="line"/>
      <point x="683" y="660" type="line"/>
      <point x="471" y="660" type="line"/>
      <point x="471" y="644" type="line"/>
      <point x="544" y="608" type="line"/>
      <point x="544" y="604" type="line"/>
      <point x="372" y="346" type="line"/>
      <point x="395" y="346" type="line"/>
      <point x="204" y="605" type="line"/>
      <point x="204" y="609" type="line"/>
      <point x="277" y="644" type="line"/>
      <point x="277" y="660" type="line"/>
      <point x="35" y="660" type="line"/>
      <point x="35" y="644" type="line"/>
      <point x="130" y="592" type="line"/>
      <point x="80" y="632" type="line"/>
      <point x="349" y="266" type="line"/>
      <point x="318" y="332" type="line"/>
      <point x="318" y="56" type="line"/>
      <point x="228" y="16" type="line"/>
    </contour>
    <contour>
      <point x="374" y="710" type="move" name="top"/>
    </contour>
    <contour>
      <point x="363.0" y="0.0" type="move" name="bottom"/>
    </contour>
  </outline>
</glyph>
<glyph name="Z" format="1">
  <advance width="646"/>
  <unicode hex="005A"/>
  <outline>
    <contour>
      <point x="90" y="0" type="line"/>
      <point x="556" y="0" type="line"/>
      <point x="556" y="192" type="line"/>
      <point x="540" y="192" type="line"/>
      <point x="478" y="55" type="line"/>
      <point x="182" y="55" type="line"/>
      <point x="182" y="19" type="line"/>
      <point x="545" y="635" type="line"/>
      <point x="545" y="660" type="line"/>
      <point x="102" y="660" type="line"/>
      <point x="102" y="478" type="line"/>
      <point x="118" y="478" type="line"/>
      <point x="180" y="605" type="line"/>
      <point x="452" y="605" type="line"/>
      <point x="452" y="641" type="line"/>
      <point x="90" y="25" type="line"/>
    </contour>
    <contour>
      <point x="333" y="710" type="move" name="top"/>
    </contour>
    <contour>
      <point x="333" y="0" type="move" name="bottom"/>
    </contour>
  </outline>
</glyph>
<glyph name="bracketleft" format="1">
  <advance width="250"/>
  <unicode hex="005B"/>
  <outline>
    <contour>
      <point x="65" y="-150" type="line"/>
      <point x="129" y="-150" type="line"/>
      <point x="129" y="740" type="line"/>
      <point x="65" y="740" type="line"/>
    </contour>
    <contour>
      <point x="67" y="740" type="line"/>
      <point x="67" y="717" type="line"/>
      <point x="245" y="717" type="line"/>
      <point x="245" y="740" type="line"/>
    </contour>
    <contour>
      <point x="67" y="-150" type="line"/>
      <point x="245" y="-150" type="line"/>
      <point x="245" y="-127" type="line"/>
      <point x="67" y="-127" type="line"/>
    </contour>
  </outline>
</glyph>
<glyph name="bracketright" format="1">
  <advance width="250"/>
  <unicode hex="005D"/>
  <outline>
    <contour>
      <point x="121" y="-150" type="line"/>
      <point x="185" y="-150" type="line"/>
      <point x="185" y="740" type="line"/>
      <point x="121" y="740" type="line"/>
    </contour>
    <contour>
      <point x="5" y="740" type="line"/>
      <point x="5" y="717" type="line"/>
      <point x="183" y="717" type="line"/>
      <point x="183" y="740" type="line"/>
    </contour>
    <contour>
      <point x="5" y="-150" type="line"/>
      <point x="183" y="-150" type="line"/>
      <point x="183" y="-127" type="line"/>
      <point x="5" y="-127" type="line"/>
    </contour>
  </outline>
</glyph>
<glyph name="asciicircum" format="1">
  <advance width="500"/>
  <unicode hex="005E"/>
  <outline>
    <contour>
      <point x="40" y="250" type="line"/>
      <point x="95" y="250" type="line"/>
      <point x="267" y="640" type="line"/>
      <point x="233" y="640" type="line"/>
      <point x="405" y="250" type="line"/>
      <point x="460" y="250" type="line"/>
      <point x="275" y="670" type="line"/>
      <point x="225" y="670" type="line"/>
    </contour>
  </outline>
</glyph>
<glyph name="a" format="2">
  <advance width="489"/>
  <unicode hex="0061"/>
  <anchor x="225.0" y="510.0" name="top"/>
  <anchor x="402.0" y="0.0" name="right"/>
  <anchor x="237.0" y="0.0" name="bottom"/>
  <outline>
    <contour>
      <point x="156" y="-10" type="curve" smooth="yes"/>
      <point x="212" y="-10"/>
      <point x="266" y="16"/>
      <point x="301" y="50" type="curve"/>
      <point x="319" y="50" type="line"/>
      <point x="319" y="83" type="line"/>
      <point x="269" y="60"/>
      <point x="237" y="52"/>
      <point x="200" y="52" type="curve" smooth="yes"/>
      <point x="152" y="52"/>
      <point x="125" y="73"/>
      <point x="125" y="114" type="curve" smooth="yes"/>
      <point x="125" y="162"/>
      <point x="144" y="197"/>
      <point x="333" y="229" type="curve"/>
      <point x="333" y="265" type="line"/>
      <point x="206" y="235" type="line" smooth="yes"/>
      <point x="91" y="208"/>
      <point x="47" y="159"/>
      <point x="47" y="94" type="curve"/>
      <point x="47" y="29"/>
      <point x="93" y="-10"/>
    </contour>
    <contour>
      <point x="385" y="-10" type="curve" smooth="yes"/>
      <point x="430" y="-10"/>
      <point x="462" y="16"/>
      <point x="478" y="45" type="curve"/>
      <point x="478" y="48" type="line"/>
      <point x="475" y="50" type="line"/>
      <point x="437" y="50" type="line" smooth="yes"/>
      <point x="407" y="50"/>
      <point x="390" y="57"/>
      <point x="381" y="67" type="curve"/>
      <point x="381" y="351" type="line" smooth="yes"/>
      <point x="381" y="417"/>
      <point x="336" y="460"/>
      <point x="240" y="460" type="curve" smooth="yes"/>
      <point x="135" y="460"/>
      <point x="57" y="395"/>
      <point x="57" y="339" type="curve" smooth="yes"/>
      <point x="57" y="313"/>
      <point x="64" y="305"/>
      <point x="86" y="305" type="curve" smooth="yes"/>
      <point x="150" y="305" type="line"/>
      <point x="150" y="427" type="line"/>
      <point x="125" y="384" type="line"/>
      <point x="172" y="410"/>
      <point x="192" y="414"/>
      <point x="215" y="414" type="curve" smooth="yes"/>
      <point x="261" y="414"/>
      <point x="301" y="376"/>
      <point x="301" y="330" type="curve" smooth="yes"/>
      <point x="301" y="71" type="line"/>
      <point x="303" y="71" type="line"/>
      <point x="309" y="23"/>
      <point x="336" y="-10"/>
    </contour>
  </outline>
</glyph>
<glyph name="b" format="1">
  <advance width="560"/>
  <unicode hex="0062"/>
  <outline>
    <contour>
      <point x="103" y="-10" type="line"/>
      <point x="109" y="-10" type="line"/>
      <point x="183" y="65" type="line"/>
      <point x="183" y="750" type="line"/>
      <point x="177" y="750" type="line"/>
      <point x="43" y="695" type="line"/>
      <point x="43" y="688" type="line"/>
      <point x="103" y="636" type="line"/>
    </contour>
    <contour>
      <point x="277" y="-10" type="curve" smooth="yes"/>
      <point x="409" y="-10"/>
      <point x="511" y="83"/>
      <point x="511" y="247" type="curve" smooth="yes"/>
      <point x="511" y="379"/>
      <point x="438" y="460"/>
      <point x="337" y="460" type="curve" smooth="yes"/>
      <point x="283" y="460"/>
      <point x="238" y="441"/>
      <point x="187" y="398" type="curve"/>
      <point x="173" y="398" type="line"/>
      <point x="173" y="354" type="line"/>
      <point x="207" y="379"/>
      <point x="246" y="391"/>
      <point x="282" y="391" type="curve" smooth="yes"/>
      <point x="364" y="391"/>
      <point x="431" y="340"/>
      <point x="431" y="224" type="curve" smooth="yes"/>
      <point x="431" y="90"/>
      <point x="372" y="38"/>
      <point x="303" y="38" type="curve" smooth="yes"/>
      <point x="252" y="38"/>
      <point x="214" y="51"/>
      <point x="173" y="88" type="curve"/>
      <point x="123" y="20" type="line"/>
      <point x="166" y="3"/>
      <point x="217" y="-10"/>
    </contour>
  </outline>
</glyph>
<glyph name="c" format="1">
  <advance width="479"/>
  <unicode hex="0063"/>
  <outline>
    <contour>
      <point x="259" y="-10" type="curve" smooth="yes"/>
      <point x="340" y="-10"/>
      <point x="403" y="37"/>
      <point x="434" y="95" type="curve"/>
      <point x="434" y="105" type="line"/>
      <point x="431" y="105" type="line"/>
      <point x="381" y="78"/>
      <point x="339" y="65"/>
      <point x="302" y="65" type="curve" smooth="yes"/>
      <point x="171" y="65"/>
      <point x="129" y="155"/>
      <point x="129" y="251" type="curve" smooth="yes"/>
      <point x="129" y="355"/>
      <point x="174" y="416"/>
      <point x="247" y="416" type="curve" smooth="yes"/>
      <point x="291" y="416"/>
      <point x="320" y="398"/>
      <point x="340" y="371" type="curve" smooth="yes"/>
      <point x="374" y="325" type="line"/>
      <point x="381" y="325" type="line"/>
      <point x="419" y="357" type="line" smooth="yes"/>
      <point x="429" y="365"/>
      <point x="432" y="371"/>
      <point x="432" y="381" type="curve" smooth="yes"/>
      <point x="432" y="389"/>
      <point x="427" y="398"/>
      <point x="416" y="411" type="curve" smooth="yes"/>
      <point x="390" y="440"/>
      <point x="334" y="460"/>
      <point x="280" y="460" type="curve" smooth="yes"/>
      <point x="150" y="460"/>
      <point x="50" y="354"/>
      <point x="50" y="205" type="curve" smooth="yes"/>
      <point x="50" y="75"/>
      <point x="130" y="-10"/>
    </contour>
    <contour>
      <point x="264.0" y="510.0" type="move" name="top"/>
    </contour>
    <contour>
      <point x="260" y="0" type="move" name="bottom"/>
    </contour>
  </outline>
</glyph>
<glyph name="d" format="1">
  <advance width="559"/>
  <unicode hex="0064"/>
  <outline>
    <contour>
      <point x="218" y="-10" type="curve" smooth="yes"/>
      <point x="272" y="-10"/>
      <point x="316" y="8"/>
      <point x="367" y="51" type="curve"/>
      <point x="382" y="51" type="line"/>
      <point x="382" y="96" type="line"/>
      <point x="348" y="71"/>
      <point x="309" y="59"/>
      <point x="273" y="59" type="curve" smooth="yes"/>
      <point x="191" y="59"/>
      <point x="124" y="107"/>
      <point x="124" y="217" type="curve" smooth="yes"/>
      <point x="124" y="357"/>
      <point x="192" y="411"/>
      <point x="272" y="411" type="curve" smooth="yes"/>
      <point x="319" y="411"/>
      <point x="350" y="390"/>
      <point x="392" y="352" type="curve"/>
      <point x="432" y="430" type="line"/>
      <point x="393" y="447"/>
      <point x="358" y="460"/>
      <point x="285" y="460" type="curve" smooth="yes"/>
      <point x="155" y="460"/>
      <point x="44" y="364"/>
      <point x="44" y="194" type="curve" smooth="yes"/>
      <point x="44" y="68"/>
      <point x="117" y="-10"/>
    </contour>
    <contour>
      <point x="382" y="0" type="line"/>
      <point x="523" y="0" type="line"/>
      <point x="523" y="16" type="line"/>
      <point x="452" y="45" type="line"/>
      <point x="452" y="750" type="line"/>
      <point x="446" y="750" type="line"/>
      <point x="307" y="695" type="line"/>
      <point x="307" y="688" type="line"/>
      <point x="372" y="636" type="line"/>
      <point x="372" y="60" type="line"/>
    </contour>
    <contour>
      <point x="577" y="740" type="move" name="right"/>
    </contour>
    <contour>
      <point x="271" y="0" type="move" name="bottom"/>
    </contour>
  </outline>
</glyph>
<glyph name="e" format="1">
  <advance width="484"/>
  <unicode hex="0065"/>
  <outline>
    <contour>
      <point x="259" y="-10" type="curve" smooth="yes"/>
      <point x="340" y="-10"/>
      <point x="403" y="37"/>
      <point x="434" y="95" type="curve"/>
      <point x="434" y="105" type="line"/>
      <point x="431" y="105" type="line"/>
      <point x="381" y="78"/>
      <point x="339" y="65"/>
      <point x="302" y="65" type="curve" smooth="yes"/>
      <point x="171" y="65"/>
      <point x="129" y="155"/>
      <point x="129" y="251" type="curve" smooth="yes"/>
      <point x="129" y="355"/>
      <point x="174" y="416"/>
      <point x="247" y="416" type="curve" smooth="yes"/>
      <point x="306" y="416"/>
      <point x="343" y="377"/>
      <point x="358" y="284" type="curve"/>
      <point x="376" y="288" type="line"/>
      <point x="119" y="288" type="line"/>
      <point x="119" y="242" type="line"/>
      <point x="428" y="242" type="line"/>
      <point x="433" y="247" type="line"/>
      <point x="433" y="384"/>
      <point x="368" y="460"/>
      <point x="263" y="460" type="curve" smooth="yes"/>
      <point x="150" y="460"/>
      <point x="50" y="354"/>
      <point x="50" y="205" type="curve" smooth="yes"/>
      <point x="50" y="75"/>
      <point x="130" y="-10"/>
    </contour>
    <contour>
      <point x="260" y="510" type="move" name="top"/>
    </contour>
    <contour>
      <point x="358" y="0" type="move" name="right"/>
    </contour>
    <contour>
      <point x="264.0" y="0.0" type="move" name="bottom"/>
    </contour>
  </outline>
</glyph>
<glyph name="f" format="1">
  <advance width="342"/>
  <unicode hex="0066"/>
  <outline>
    <contour>
      <point x="54" y="0" type="line"/>
      <point x="268" y="0" type="line"/>
      <point x="268" y="16" type="line"/>
      <point x="197" y="46" type="line"/>
      <point x="197" y="530" type="line" smooth="yes"/>
      <point x="197" y="622"/>
      <point x="216" y="668"/>
      <point x="289" y="668" type="curve" smooth="yes"/>
      <point x="315" y="668"/>
      <point x="334" y="665"/>
      <point x="354" y="657" type="curve" smooth="yes"/>
      <point x="381" y="646" type="line"/>
      <point x="388" y="646" type="line"/>
      <point x="408" y="695" type="line" smooth="yes"/>
      <point x="411" y="702"/>
      <point x="412" y="708"/>
      <point x="412" y="713" type="curve" smooth="yes"/>
      <point x="412" y="725"/>
      <point x="402" y="732"/>
      <point x="382" y="741" type="curve" smooth="yes"/>
      <point x="373" y="745"/>
      <point x="358" y="750"/>
      <point x="346" y="750" type="curve" smooth="yes"/>
      <point x="204" y="750"/>
      <point x="117" y="555"/>
      <point x="117" y="490" type="curve" smooth="yes"/>
      <point x="117" y="48" type="line"/>
      <point x="54" y="16" type="line"/>
    </contour>
    <contour>
      <point x="39" y="403" type="line"/>
      <point x="329" y="403" type="line"/>
      <point x="329" y="450" type="line"/>
      <point x="39" y="450" type="line"/>
    </contour>
  </outline>
</glyph>
<glyph name="g" format="2">
  <advance width="546"/>
  <unicode hex="0067"/>
  <anchor x="263.0" y="510.0" name="top"/>
  <outline>
    <contour>
      <point x="258" y="163" type="curve" smooth="yes"/>
      <point x="351" y="163"/>
      <point x="422" y="227"/>
      <point x="422" y="312" type="curve" smooth="yes"/>
      <point x="422" y="354"/>
      <point x="398" y="398"/>
      <point x="369" y="417" type="curve"/>
      <point x="342" y="441" type="line"/>
      <point x="322" y="451"/>
      <point x="285" y="460"/>
      <point x="258" y="460" type="curve" smooth="yes"/>
      <point x="165" y="460"/>
      <point x="94" y="395"/>
      <point x="94" y="312" type="curve" smooth="yes"/>
      <point x="94" y="227"/>
      <point x="165" y="163"/>
    </contour>
    <contour>
      <point x="267" y="204" type="curve" smooth="yes"/>
      <point x="211" y="204"/>
      <point x="170" y="250"/>
      <point x="170" y="314" type="curve" smooth="yes"/>
      <point x="170" y="373"/>
      <point x="200" y="420"/>
      <point x="252" y="420" type="curve" smooth="yes"/>
      <point x="304" y="420"/>
      <point x="346" y="376"/>
      <point x="346" y="309" type="curve" smooth="yes"/>
      <point x="346" y="251"/>
      <point x="315" y="204"/>
    </contour>
    <contour>
      <point x="496" y="396" type="line"/>
      <point x="496" y="450" type="line"/>
      <point x="324" y="441" type="line"/>
      <point x="324" y="387" type="line"/>
      <point x="374" y="387" type="line"/>
      <point x="390" y="402" type="line"/>
    </contour>
    <contour>
      <point x="258" y="-240" type="curve" smooth="yes"/>
      <point x="402" y="-240"/>
      <point x="490" y="-154"/>
      <point x="490" y="-68" type="curve" smooth="yes"/>
      <point x="490" y="18"/>
      <point x="445" y="62"/>
      <point x="348" y="62" type="curve" smooth="yes"/>
      <point x="213" y="62" type="line" smooth="yes"/>
      <point x="177" y="62"/>
      <point x="161" y="82"/>
      <point x="161" y="105" type="curve" smooth="yes"/>
      <point x="161" y="124"/>
      <point x="168" y="146"/>
      <point x="221" y="169" type="curve"/>
      <point x="219" y="191" type="line"/>
      <point x="184" y="191" type="line"/>
      <point x="184" y="180" type="line"/>
      <point x="105" y="129" type="line"/>
      <point x="98" y="112"/>
      <point x="94" y="96"/>
      <point x="94" y="80" type="curve" smooth="yes"/>
      <point x="94" y="30"/>
      <point x="132" y="-10"/>
      <point x="204" y="-10" type="curve"/>
      <point x="314" y="-10" type="line" smooth="yes"/>
      <point x="402" y="-10"/>
      <point x="419" y="-44"/>
      <point x="419" y="-96" type="curve" smooth="yes"/>
      <point x="419" y="-156"/>
      <point x="361" y="-208"/>
      <point x="280" y="-208" type="curve" smooth="yes"/>
      <point x="209" y="-208"/>
      <point x="161" y="-153"/>
      <point x="161" y="-81" type="curve" smooth="yes"/>
      <point x="161" y="-47"/>
      <point x="176" y="-17"/>
      <point x="216" y="-8" type="curve"/>
      <point x="211" y="9" type="line"/>
      <point x="166" y="9" type="line"/>
      <point x="166" y="-7" type="line"/>
      <point x="101" y="-57" type="line"/>
      <point x="95" y="-70"/>
      <point x="91" y="-84"/>
      <point x="91" y="-100" type="curve" smooth="yes"/>
      <point x="91" y="-173"/>
      <point x="143" y="-240"/>
    </contour>
  </outline>
</glyph>
<glyph name="i" format="1">
  <advance width="313"/>
  <unicode hex="0069"/>
  <outline>
    <contour>
      <point x="54" y="0" type="line"/>
      <point x="260" y="0" type="line"/>
      <point x="260" y="16" type="line"/>
      <point x="197" y="48" type="line"/>
      <point x="197" y="460" type="line"/>
      <point x="191" y="460" type="line"/>
      <point x="57" y="405" type="line"/>
      <point x="57" y="398" type="line"/>
      <point x="117" y="346" type="line"/>
      <point x="117" y="48" type="line"/>
      <point x="54" y="16" type="line"/>
    </contour>
    <contour>
      <point x="154" y="581" type="curve" smooth="yes"/>
      <point x="188" y="581"/>
      <point x="214" y="607"/>
      <point x="214" y="641" type="curve" smooth="yes"/>
      <point x="214" y="676"/>
      <point x="188" y="701"/>
      <point x="154" y="701" type="curve" smooth="yes"/>
      <point x="119" y="701"/>
      <point x="94" y="676"/>
      <point x="94" y="641" type="curve" smooth="yes"/>
      <point x="94" y="607"/>
      <point x="119" y="581"/>
    </contour>
    <contour>
      <point x="157.0" y="510.0" type="move" name="top"/>
    </contour>
    <contour>
      <point x="175" y="0" type="move" name="right"/>
    </contour>
    <contour>
      <point x="157.0" y="0.0" type="move" name="bottom"/>
    </contour>
  </outline>
</glyph>
<glyph name="j" format="1">
  <advance width="314"/>
  <unicode hex="006A"/>
  <outline>
    <contour>
      <point x="54" y="-230" type="line"/>
      <point x="164" y="-177"/>
      <point x="197" y="-101"/>
      <point x="197" y="0" type="curve" smooth="yes"/>
      <point x="197" y="460" type="line"/>
      <point x="191" y="460" type="line"/>
      <point x="57" y="405" type="line"/>
      <point x="57" y="398" type="line"/>
      <point x="117" y="346" type="line"/>
      <point x="117" y="-10" type="line" smooth="yes"/>
      <point x="117" y="-122"/>
      <point x="100" y="-171"/>
      <point x="54" y="-214" type="curve"/>
    </contour>
    <contour>
      <point x="154" y="581" type="curve" smooth="yes"/>
      <point x="188" y="581"/>
      <point x="214" y="607"/>
      <point x="214" y="641" type="curve" smooth="yes"/>
      <point x="214" y="676"/>
      <point x="188" y="701"/>
      <point x="154" y="701" type="curve" smooth="yes"/>
      <point x="119" y="701"/>
      <point x="94" y="676"/>
      <point x="94" y="641" type="curve" smooth="yes"/>
      <point x="94" y="607"/>
      <point x="119" y="581"/>
    </contour>
    <contour>
      <point x="157" y="510" type="move" name="top"/>
    </contour>
  </outline>
</glyph>
<glyph name="k" format="1">
  <advance width="558.0"/>
  <unicode hex="006B"/>
  <outline>
    <contour>
      <point x="48" y="0" type="line"/>
      <point x="262" y="0" type="line"/>
      <point x="262" y="16" type="line"/>
      <point x="191" y="45" type="line"/>
      <point x="191" y="750" type="line"/>
      <point x="185" y="750" type="line"/>
      <point x="51" y="695" type="line"/>
      <point x="51" y="688" type="line"/>
      <point x="111" y="636" type="line"/>
      <point x="111" y="48" type="line"/>
      <point x="48" y="16" type="line"/>
    </contour>
    <contour>
      <point x="398" y="0" type="line"/>
      <point x="530" y="0" type="line"/>
      <point x="530" y="16" type="line"/>
      <point x="466" y="50" type="line"/>
      <point x="244" y="294" type="line"/>
      <point x="244" y="257" type="line"/>
      <point x="429" y="399" type="line"/>
      <point x="493" y="434" type="line"/>
      <point x="493" y="450" type="line"/>
      <point x="303" y="450" type="line"/>
      <point x="303" y="434" type="line"/>
      <point x="352" y="398" type="line"/>
      <point x="352" y="392" type="line"/>
      <point x="191" y="255" type="line"/>
      <point x="191" y="240" type="line"/>
      <point x="360" y="52" type="line"/>
    </contour>
    <contour>
      <point x="295" y="0" type="move" name="bottom"/>
    </contour>
  </outline>
</glyph>
<glyph name="l" format="1">
  <advance width="294.0"/>
  <unicode hex="006C"/>
  <outline>
    <contour>
      <point x="44" y="0" type="line"/>
      <point x="250" y="0" type="line"/>
      <point x="250" y="16" type="line"/>
      <point x="187" y="48" type="line"/>
      <point x="187" y="750" type="line"/>
      <point x="181" y="750" type="line"/>
      <point x="47" y="695" type="line"/>
      <point x="47" y="688" type="line"/>
      <point x="107" y="636" type="line"/>
      <point x="107" y="48" type="line"/>
      <point x="44" y="16" type="line"/>
    </contour>
    <contour>
      <point x="147" y="765" type="move" name="top"/>
    </contour>
    <contour>
      <point x="313" y="740" type="move" name="right"/>
    </contour>
    <contour>
      <point x="295" y="300" type="move" name="mid"/>
    </contour>
    <contour>
      <point x="147" y="0.0" type="move" name="bottom"/>
    </contour>
  </outline>
</glyph>
<glyph name="m" format="1">
  <advance width="860"/>
  <unicode hex="006D"/>
  <outline>
    <contour>
      <point x="48" y="0" type="line"/>
      <point x="256" y="0" type="line"/>
      <point x="256" y="16" type="line"/>
      <point x="191" y="48" type="line"/>
      <point x="191" y="380" type="line"/>
      <point x="181" y="460" type="line"/>
      <point x="175" y="460" type="line"/>
      <point x="51" y="405" type="line"/>
      <point x="51" y="398" type="line"/>
      <point x="111" y="346" type="line"/>
      <point x="111" y="48" type="line"/>
      <point x="48" y="16" type="line"/>
    </contour>
    <contour>
      <point x="324" y="0" type="line"/>
      <point x="540" y="0" type="line"/>
      <point x="540" y="16" type="line"/>
      <point x="471" y="48" type="line"/>
      <point x="471" y="343" type="line"/>
      <point x="471" y="420"/>
      <point x="417" y="460"/>
      <point x="342" y="460" type="curve" smooth="yes"/>
      <point x="287" y="460"/>
      <point x="245" y="437"/>
      <point x="195" y="386" type="curve"/>
      <point x="183" y="386" type="line"/>
      <point x="183" y="342" type="line"/>
      <point x="205" y="371"/>
      <point x="259" y="386"/>
      <point x="297" y="386" type="curve" smooth="yes"/>
      <point x="352" y="386"/>
      <point x="391" y="355"/>
      <point x="391" y="296" type="curve" smooth="yes"/>
      <point x="391" y="48" type="line"/>
      <point x="324" y="16" type="line"/>
    </contour>
    <contour>
      <point x="608" y="0" type="line"/>
      <point x="822" y="0" type="line"/>
      <point x="822" y="16" type="line"/>
      <point x="759" y="48" type="line"/>
      <point x="759" y="343" type="line" smooth="yes"/>
      <point x="759" y="420"/>
      <point x="705" y="460"/>
      <point x="630" y="460" type="curve" smooth="yes"/>
      <point x="571" y="460"/>
      <point x="527" y="433"/>
      <point x="471" y="374" type="curve"/>
      <point x="460" y="374" type="line"/>
      <point x="460" y="328" type="line"/>
      <point x="484" y="366"/>
      <point x="532" y="386"/>
      <point x="585" y="386" type="curve" smooth="yes"/>
      <point x="640" y="386"/>
      <point x="679" y="355"/>
      <point x="679" y="296" type="curve" smooth="yes"/>
      <point x="679" y="48" type="line"/>
      <point x="608" y="16" type="line"/>
    </contour>
    <contour>
      <point x="431" y="0" type="move" name="bottom"/>
    </contour>
  </outline>
</glyph>
<glyph name="n" format="1">
  <advance width="582"/>
  <unicode hex="006E"/>
  <outline>
    <contour>
      <point x="48" y="0" type="line"/>
      <point x="262" y="0" type="line"/>
      <point x="262" y="16" type="line"/>
      <point x="191" y="48" type="line"/>
      <point x="191" y="380" type="line"/>
      <point x="181" y="460" type="line"/>
      <point x="175" y="460" type="line"/>
      <point x="51" y="405" type="line"/>
      <point x="51" y="398" type="line"/>
      <point x="111" y="346" type="line"/>
      <point x="111" y="48" type="line"/>
      <point x="48" y="16" type="line"/>
    </contour>
    <contour>
      <point x="330" y="0" type="line"/>
      <point x="544" y="0" type="line"/>
      <point x="544" y="16" type="line"/>
      <point x="481" y="48" type="line"/>
      <point x="481" y="343" type="line" smooth="yes"/>
      <point x="481" y="420"/>
      <point x="425" y="460"/>
      <point x="347" y="460" type="curve" smooth="yes"/>
      <point x="290" y="460"/>
      <point x="246" y="437"/>
      <point x="195" y="386" type="curve"/>
      <point x="183" y="386" type="line"/>
      <point x="183" y="342" type="line"/>
      <point x="205" y="371"/>
      <point x="262" y="386"/>
      <point x="302" y="386" type="curve" smooth="yes"/>
      <point x="360" y="386"/>
      <point x="401" y="355"/>
      <point x="401" y="296" type="curve" smooth="yes"/>
      <point x="401" y="48" type="line"/>
      <point x="330" y="16" type="line"/>
    </contour>
    <contour>
      <point x="296" y="510" type="move" name="top"/>
    </contour>
    <contour>
      <point x="296" y="0" type="move" name="bottom"/>
    </contour>
  </outline>
</glyph>
<glyph name="o" format="1">
  <advance width="540"/>
  <unicode hex="006F"/>
  <outline>
    <contour>
      <point x="270" y="-10" type="curve" smooth="yes"/>
      <point x="401" y="-10"/>
      <point x="490" y="91"/>
      <point x="490" y="225" type="curve" smooth="yes"/>
      <point x="490" y="359"/>
      <point x="401" y="460"/>
      <point x="270" y="460" type="curve" smooth="yes"/>
      <point x="139.0" y="460.0"/>
      <point x="50" y="359"/>
      <point x="50" y="225" type="curve" smooth="yes"/>
      <point x="50" y="91"/>
      <point x="139.0" y="-10.0"/>
    </contour>
    <contour>
      <point x="284" y="33" type="curve" smooth="yes"/>
      <point x="182.703448276" y="33.0"/>
      <point x="140.0" y="140.0"/>
      <point x="140" y="246" type="curve" smooth="yes"/>
      <point x="140.0" y="333.0"/>
      <point x="176" y="418"/>
      <point x="258" y="418" type="curve" smooth="yes"/>
      <point x="359" y="418"/>
      <point x="400.0" y="311.0"/>
      <point x="400" y="205" type="curve" smooth="yes"/>
      <point x="400.0" y="119.0"/>
      <point x="365.299145299" y="33.0"/>
    </contour>
    <contour>
      <point x="267.0" y="510.0" type="move" name="top"/>
    </contour>
    <contour>
      <point x="306" y="0" type="move" name="right"/>
    </contour>
    <contour>
      <point x="276.0" y="0.0" type="move" name="bottom"/>
    </contour>
  </outline>
</glyph>
<glyph name="p" format="1">
  <advance width="567"/>
  <unicode hex="0070"/>
  <outline>
    <contour>
      <point x="48" y="-230" type="line"/>
      <point x="262" y="-230" type="line"/>
      <point x="262" y="-214" type="line"/>
      <point x="191" y="-182" type="line"/>
      <point x="191" y="380" type="line"/>
      <point x="181" y="460" type="line"/>
      <point x="175" y="460" type="line"/>
      <point x="51" y="405" type="line"/>
      <point x="51" y="398" type="line"/>
      <point x="111" y="346" type="line"/>
      <point x="111" y="-182" type="line"/>
      <point x="48" y="-214" type="line"/>
    </contour>
    <contour>
      <point x="292" y="-10" type="curve" smooth="yes"/>
      <point x="417" y="-10"/>
      <point x="519" y="83"/>
      <point x="519" y="247" type="curve" smooth="yes"/>
      <point x="519" y="379"/>
      <point x="446" y="460"/>
      <point x="345" y="460" type="curve" smooth="yes"/>
      <point x="291" y="460"/>
      <point x="247" y="442"/>
      <point x="196" y="399" type="curve"/>
      <point x="181" y="399" type="line"/>
      <point x="181" y="354" type="line"/>
      <point x="215" y="379"/>
      <point x="254" y="391"/>
      <point x="290" y="391" type="curve" smooth="yes"/>
      <point x="372" y="391"/>
      <point x="439" y="337"/>
      <point x="439" y="214" type="curve" smooth="yes"/>
      <point x="439" y="87"/>
      <point x="385" y="38"/>
      <point x="321" y="38" type="curve" smooth="yes"/>
      <point x="266" y="38"/>
      <point x="224" y="50"/>
      <point x="181" y="88" type="curve"/>
      <point x="131" y="20" type="line"/>
      <point x="174" y="1"/>
      <point x="225" y="-10"/>
    </contour>
  </outline>
</glyph>
<glyph name="q" format="1">
  <advance width="558"/>
  <unicode hex="0071"/>
  <outline>
    <contour>
      <point x="305.0" y="-230.0" type="line"/>
      <point x="519.0" y="-230.0" type="line"/>
      <point x="519.0" y="-214.0" type="line"/>
      <point x="456.0" y="-183.0" type="line"/>
      <point x="456.0" y="460.0" type="line"/>
      <point x="450.0" y="460.0" type="line"/>
      <point x="382.0" y="427.0" type="line"/>
      <point x="439.0" y="427.0" type="line"/>
      <point x="384.0" y="447.0"/>
      <point x="347.0" y="460.0"/>
      <point x="289.0" y="460.0" type="curve" smooth="yes"/>
      <point x="159.0" y="460.0"/>
      <point x="48.0" y="364.0"/>
      <point x="48.0" y="194.0" type="curve" smooth="yes"/>
      <point x="48.0" y="68.0"/>
      <point x="121.0" y="-10.0"/>
      <point x="222.0" y="-10.0" type="curve" smooth="yes"/>
      <point x="275.0" y="-10.0"/>
      <point x="324" y="10"/>
      <point x="370.0" y="50.0" type="curve"/>
      <point x="388.0" y="50.0" type="line"/>
      <point x="388.0" y="97.0" type="line"/>
      <point x="355.0" y="72.0"/>
      <point x="310.0" y="59.0"/>
      <point x="277.0" y="59.0" type="curve" smooth="yes"/>
      <point x="195.0" y="59.0"/>
      <point x="128.0" y="107.0"/>
      <point x="128.0" y="217.0" type="curve" smooth="yes"/>
      <point x="128.0" y="357.0"/>
      <point x="191.0" y="411.0"/>
      <point x="266.0" y="411.0" type="curve" smooth="yes"/>
      <point x="302.0" y="411.0"/>
      <point x="336.0" y="405.0"/>
      <point x="364.0" y="381.0" type="curve" smooth="yes"/>
      <point x="375.0" y="372.0"/>
      <point x="376.0" y="370.0"/>
      <point x="376.0" y="321.0" type="curve"/>
      <point x="376.0" y="-186.0" type="line"/>
      <point x="305.0" y="-214.0" type="line"/>
    </contour>
  </outline>
</glyph>
<glyph name="r" format="2">
  <advance width="397"/>
  <unicode hex="0072"/>
  <anchor x="222" y="510" name="top"/>
  <anchor x="155.0" y="0.0" name="bottom"/>
  <outline>
    <contour>
      <point x="52" y="0" type="line"/>
      <point x="266" y="0" type="line"/>
      <point x="266" y="16" type="line"/>
      <point x="195" y="48" type="line"/>
      <point x="195" y="367" type="line"/>
      <point x="185" y="460" type="line"/>
      <point x="179" y="460" type="line"/>
      <point x="55" y="405" type="line"/>
      <point x="55" y="398" type="line"/>
      <point x="115" y="346" type="line"/>
      <point x="115" y="48" type="line"/>
      <point x="52" y="16" type="line"/>
    </contour>
    <contour>
      <point x="272" y="380" type="curve"/>
      <point x="231" y="380" type="line"/>
      <point x="365" y="355" type="line"/>
      <point x="371" y="392" type="line" smooth="yes"/>
      <point x="373" y="403"/>
      <point x="374" y="412"/>
      <point x="374" y="415" type="curve" smooth="yes"/>
      <point x="374" y="443"/>
      <point x="353" y="457"/>
      <point x="325" y="457" type="curve" smooth="yes"/>
      <point x="288" y="457"/>
      <point x="246" y="432"/>
      <point x="198" y="368" type="curve"/>
      <point x="184" y="368" type="line"/>
      <point x="184" y="304" type="line"/>
      <point x="208" y="345"/>
      <point x="237" y="370"/>
    </contour>
  </outline>
</glyph>
<glyph name="s" format="1">
  <advance width="432"/>
  <unicode hex="0073"/>
  <outline>
    <contour>
      <point x="213" y="-10" type="curve" smooth="yes"/>
      <point x="279" y="-10"/>
      <point x="364" y="37"/>
      <point x="364" y="126" type="curve" smooth="yes"/>
      <point x="364.0" y="220.01459854"/>
      <point x="299.230775248" y="238.890685409"/>
      <point x="242" y="266" type="curve" smooth="yes"/>
      <point x="178.683883195" y="295.222823141"/>
      <point x="146" y="312"/>
      <point x="146" y="357" type="curve" smooth="yes"/>
      <point x="146" y="397"/>
      <point x="176.223880597" y="421.0"/>
      <point x="221" y="421" type="curve" smooth="yes"/>
      <point x="252.460674157" y="421.0"/>
      <point x="278.774615761" y="405.695314081"/>
      <point x="301" y="370" type="curve" smooth="yes"/>
      <point x="334" y="317" type="line"/>
      <point x="348" y="317" type="line"/>
      <point x="348" y="426" type="line"/>
      <point x="306" y="447"/>
      <point x="266" y="460"/>
      <point x="217" y="460" type="curve" smooth="yes"/>
      <point x="147" y="460"/>
      <point x="75" y="401"/>
      <point x="75" y="327" type="curve" smooth="yes"/>
      <point x="75.0" y="260.44"/>
      <point x="112.716406541" y="230.129285253"/>
      <point x="181" y="199" type="curve" smooth="yes"/>
      <point x="250.407396075" y="166.74022436"/>
      <point x="295.0" y="153.884615385"/>
      <point x="295" y="97" type="curve" smooth="yes"/>
      <point x="295" y="53"/>
      <point x="264" y="26"/>
      <point x="210" y="26" type="curve" smooth="yes"/>
      <point x="162" y="26"/>
      <point x="130" y="44"/>
      <point x="109" y="81" type="curve" smooth="yes"/>
      <point x="77" y="136" type="line"/>
      <point x="63" y="136" type="line"/>
      <point x="63" y="24" type="line"/>
      <point x="110" y="0"/>
      <point x="150" y="-10"/>
    </contour>
    <contour>
      <point x="215.0" y="510.0" type="move" name="top"/>
    </contour>
    <contour>
      <point x="215.0" y="0.0" type="move" name="bottom"/>
    </contour>
  </outline>
</glyph>
<glyph name="t" format="1">
  <advance width="354"/>
  <unicode hex="0074"/>
  <outline>
    <contour>
      <point x="208" y="-10" type="curve"/>
      <point x="271" y="-10"/>
      <point x="310" y="23"/>
      <point x="324" y="53" type="curve"/>
      <point x="324" y="63" type="line"/>
      <point x="321" y="63" type="line"/>
      <point x="305" y="59"/>
      <point x="282" y="56"/>
      <point x="257" y="56" type="curve" smooth="yes"/>
      <point x="215" y="56"/>
      <point x="180" y="72"/>
      <point x="180" y="106" type="curve" smooth="yes"/>
      <point x="180" y="403" type="line"/>
      <point x="312" y="403" type="line"/>
      <point x="312" y="450" type="line"/>
      <point x="180" y="450" type="line"/>
      <point x="180" y="560" type="line"/>
      <point x="174" y="560" type="line"/>
      <point x="103" y="450" type="line"/>
      <point x="18" y="409" type="line"/>
      <point x="18" y="403" type="line"/>
      <point x="100" y="403" type="line"/>
      <point x="100" y="89" type="line" smooth="yes"/>
      <point x="100" y="26"/>
      <point x="149" y="-10"/>
    </contour>
    <contour>
      <point x="155" y="610" type="move" name="top"/>
    </contour>
    <contour>
      <point x="212.0" y="0.0" type="move" name="bottom"/>
    </contour>
    <contour>
      <point x="309" y="740" type="move" name="right"/>
    </contour>
  </outline>
</glyph>
<glyph name="v" format="1">
  <advance width="480"/>
  <unicode hex="0076"/>
  <outline>
    <contour>
      <point x="227" y="0" type="line"/>
      <point x="242" y="0" type="line"/>
      <point x="278" y="83" type="line"/>
      <point x="278" y="119" type="line"/>
      <point x="262" y="119" type="line"/>
      <point x="134" y="398" type="line"/>
      <point x="134" y="404" type="line"/>
      <point x="216" y="434" type="line"/>
      <point x="216" y="450" type="line"/>
      <point x="-23" y="450" type="line"/>
      <point x="-23" y="434" type="line"/>
      <point x="44" y="403" type="line"/>
    </contour>
    <contour>
      <point x="248" y="0" type="line"/>
      <point x="429" y="399" type="line"/>
      <point x="503" y="434" type="line"/>
      <point x="503" y="450" type="line"/>
      <point x="307" y="450" type="line"/>
      <point x="307" y="434" type="line"/>
      <point x="379" y="398" type="line"/>
      <point x="379" y="392" type="line"/>
      <point x="235" y="43" type="line"/>
      <point x="235" y="0" type="line"/>
    </contour>
  </outline>
</glyph>
<glyph name="w" format="1">
  <advance width="753"/>
  <unicode hex="0077"/>
  <outline>
    <contour>
      <point x="201" y="0" type="line"/>
      <point x="216" y="0" type="line"/>
      <point x="252" y="81" type="line"/>
      <point x="252" y="121" type="line"/>
      <point x="238" y="121" type="line"/>
      <point x="134" y="398" type="line"/>
      <point x="134" y="404" type="line"/>
      <point x="216" y="434" type="line"/>
      <point x="216" y="450" type="line"/>
      <point x="-23" y="450" type="line"/>
      <point x="-23" y="434" type="line"/>
      <point x="44" y="403" type="line"/>
    </contour>
    <contour>
      <point x="384" y="450" type="line"/>
      <point x="210" y="46" type="line"/>
      <point x="210" y="0" type="line"/>
      <point x="222" y="0" type="line"/>
      <point x="389" y="367" type="line"/>
      <point x="352" y="367" type="line"/>
      <point x="514" y="0" type="line"/>
      <point x="529" y="0" type="line"/>
      <point x="559" y="96" type="line"/>
      <point x="405" y="450" type="line"/>
    </contour>
    <contour>
      <point x="535" y="0" type="line"/>
      <point x="702" y="399" type="line"/>
      <point x="776" y="434" type="line"/>
      <point x="776" y="450" type="line"/>
      <point x="580" y="450" type="line"/>
      <point x="580" y="434" type="line"/>
      <point x="652" y="398" type="line"/>
      <point x="652" y="392" type="line"/>
      <point x="551" y="124" type="line"/>
      <point x="526" y="124" type="line"/>
      <point x="526" y="0" type="line"/>
    </contour>
    <contour>
      <point x="395" y="510" type="move" name="top"/>
    </contour>
  </outline>
</glyph>
<glyph name="x" format="1">
  <advance width="496"/>
  <unicode hex="0078"/>
  <outline>
    <contour>
      <point x="276" y="0" type="line"/>
      <point x="470" y="0" type="line"/>
      <point x="470" y="16" type="line"/>
      <point x="429" y="47" type="line"/>
      <point x="170" y="398" type="line"/>
      <point x="170" y="404" type="line"/>
      <point x="238" y="434" type="line"/>
      <point x="238" y="450" type="line"/>
      <point x="31" y="450" type="line"/>
      <point x="31" y="434" type="line"/>
      <point x="78" y="403" type="line"/>
      <point x="337" y="52" type="line"/>
      <point x="337" y="46" type="line"/>
      <point x="276" y="16" type="line"/>
    </contour>
    <contour>
      <point x="26" y="0" type="line"/>
      <point x="201" y="0" type="line"/>
      <point x="201" y="16" type="line"/>
      <point x="139" y="52" type="line"/>
      <point x="139" y="58" type="line"/>
      <point x="251" y="224" type="line"/>
      <point x="229" y="247" type="line"/>
      <point x="80" y="51" type="line"/>
      <point x="26" y="16" type="line"/>
    </contour>
    <contour>
      <point x="453" y="450" type="line"/>
      <point x="287" y="450" type="line"/>
      <point x="287" y="434" type="line"/>
      <point x="344" y="398" type="line"/>
      <point x="344" y="392" type="line"/>
      <point x="243" y="243" type="line"/>
      <point x="264" y="220" type="line"/>
      <point x="400" y="399" type="line"/>
      <point x="453" y="434" type="line"/>
    </contour>
  </outline>
</glyph>
<glyph name="y" format="2">
  <advance width="480"/>
  <unicode hex="0079"/>
  <anchor x="264" y="510" name="top"/>
  <anchor x="298" y="-28" name="bottom"/>
  <outline>
    <contour>
      <point x="-23" y="450" type="line"/>
      <point x="-23" y="434" type="line"/>
      <point x="44" y="403" type="line"/>
      <point x="231" y="0" type="line"/>
      <point x="284" y="72" type="line"/>
      <point x="284" y="108" type="line"/>
      <point x="267" y="108" type="line"/>
      <point x="134" y="398" type="line"/>
      <point x="134" y="403" type="line"/>
      <point x="216" y="434" type="line"/>
      <point x="216" y="450" type="line"/>
    </contour>
    <contour>
      <point x="128" y="-180" type="curve"/>
      <point x="155" y="-158" type="line"/>
      <point x="47" y="-158" type="line"/>
      <point x="47" y="-197" type="line" smooth="yes"/>
      <point x="47" y="-236"/>
      <point x="54" y="-240"/>
      <point x="87" y="-240" type="curve" smooth="yes"/>
      <point x="144" y="-240"/>
      <point x="177" y="-210"/>
      <point x="206" y="-139" type="curve" smooth="yes"/>
      <point x="428" y="400" type="line"/>
      <point x="503" y="434" type="line"/>
      <point x="503" y="450" type="line"/>
      <point x="307" y="450" type="line"/>
      <point x="307" y="434" type="line"/>
      <point x="382" y="398" type="line"/>
      <point x="382" y="392" type="line"/>
      <point x="258" y="77" type="line"/>
      <point x="232" y="17" type="line" smooth="yes"/>
      <point x="180" y="-102"/>
      <point x="164" y="-134"/>
    </contour>
  </outline>
</glyph>
<glyph name="z" format="2">
  <advance width="482"/>
  <unicode hex="007A"/>
  <anchor x="243" y="510" name="top"/>
  <anchor x="243" y="0" name="bottom"/>
  <outline>
    <contour>
      <point x="70" y="0" type="line"/>
      <point x="407" y="0" type="line"/>
      <point x="407" y="151" type="line"/>
      <point x="391" y="151" type="line"/>
      <point x="342" y="8" type="line"/>
      <point x="381" y="44" type="line"/>
      <point x="157" y="44" type="line"/>
      <point x="157" y="14" type="line"/>
      <point x="399" y="432" type="line"/>
      <point x="399" y="450" type="line"/>
      <point x="148" y="450" type="line" smooth="yes"/>
      <point x="132" y="450"/>
      <point x="102" y="456"/>
      <point x="85" y="460" type="curve"/>
      <point x="80" y="460" type="line"/>
      <point x="69" y="306" type="line"/>
      <point x="85" y="306" type="line"/>
      <point x="145" y="440" type="line"/>
      <point x="105" y="406" type="line"/>
      <point x="312" y="406" type="line"/>
      <point x="312" y="436" type="line"/>
      <point x="70" y="18" type="line"/>
    </contour>
  </outline>
</glyph>
<glyph name="braceleft" format="1">
  <advance width="250"/>
  <unicode hex="007B"/>
  <outline>
    <contour>
      <point x="226" y="-150" type="curve" smooth="yes"/>
      <point x="245" y="-150" type="line"/>
      <point x="245" y="-127" type="line"/>
      <point x="218" y="-127" type="line" smooth="yes"/>
      <point x="160" y="-127"/>
      <point x="132" y="-90"/>
      <point x="132" y="-35" type="curve" smooth="yes"/>
      <point x="132" y="43"/>
      <point x="175" y="108"/>
      <point x="175" y="177" type="curve" smooth="yes"/>
      <point x="175" y="226"/>
      <point x="153" y="264"/>
      <point x="89" y="295" type="curve"/>
      <point x="153" y="326"/>
      <point x="175" y="364"/>
      <point x="175" y="413" type="curve" smooth="yes"/>
      <point x="175" y="482"/>
      <point x="132" y="547"/>
      <point x="132" y="625" type="curve" smooth="yes"/>
      <point x="132" y="680"/>
      <point x="160" y="717"/>
      <point x="218" y="717" type="curve" smooth="yes"/>
      <point x="245" y="717" type="line"/>
      <point x="245" y="740" type="line"/>
      <point x="226" y="740" type="line" smooth="yes"/>
      <point x="115" y="740"/>
      <point x="68" y="686"/>
      <point x="68" y="607" type="curve" smooth="yes"/>
      <point x="68" y="524"/>
      <point x="116" y="459"/>
      <point x="116" y="391" type="curve" smooth="yes"/>
      <point x="116" y="347"/>
      <point x="95" y="307"/>
      <point x="30" y="307" type="curve" smooth="yes"/>
      <point x="5" y="307" type="line"/>
      <point x="5" y="284" type="line"/>
      <point x="30" y="284" type="line" smooth="yes"/>
      <point x="95" y="284"/>
      <point x="116" y="244"/>
      <point x="116" y="199" type="curve" smooth="yes"/>
      <point x="116" y="131"/>
      <point x="68" y="66"/>
      <point x="68" y="-17" type="curve" smooth="yes"/>
      <point x="68" y="-96"/>
      <point x="115" y="-150"/>
    </contour>
  </outline>
</glyph>
<glyph name="braceright" format="1">
  <advance width="250"/>
  <unicode hex="007D"/>
  <outline>
    <contour>
      <point x="24" y="-150" type="line" smooth="yes"/>
      <point x="135" y="-150"/>
      <point x="182" y="-96"/>
      <point x="182" y="-17" type="curve" smooth="yes"/>
      <point x="182" y="66"/>
      <point x="134" y="131"/>
      <point x="134" y="199" type="curve" smooth="yes"/>
      <point x="134" y="244"/>
      <point x="155" y="284"/>
      <point x="220" y="284" type="curve" smooth="yes"/>
      <point x="245" y="284" type="line"/>
      <point x="245" y="307" type="line"/>
      <point x="220" y="307" type="line" smooth="yes"/>
      <point x="155" y="307"/>
      <point x="134" y="347"/>
      <point x="134" y="391" type="curve" smooth="yes"/>
      <point x="134" y="459"/>
      <point x="182" y="524"/>
      <point x="182" y="607" type="curve" smooth="yes"/>
      <point x="182" y="686"/>
      <point x="135" y="740"/>
      <point x="24" y="740" type="curve" smooth="yes"/>
      <point x="5" y="740" type="line"/>
      <point x="5" y="717" type="line"/>
      <point x="32" y="717" type="line" smooth="yes"/>
      <point x="90" y="717"/>
      <point x="118" y="680"/>
      <point x="118" y="625" type="curve" smooth="yes"/>
      <point x="118" y="547"/>
      <point x="75" y="482"/>
      <point x="75" y="413" type="curve" smooth="yes"/>
      <point x="75" y="364"/>
      <point x="97" y="326"/>
      <point x="161" y="295" type="curve"/>
      <point x="97" y="264"/>
      <point x="75" y="226"/>
      <point x="75" y="177" type="curve" smooth="yes"/>
      <point x="75" y="108"/>
      <point x="118" y="43"/>
      <point x="118" y="-35" type="curve" smooth="yes"/>
      <point x="118" y="-90"/>
      <point x="90" y="-127"/>
      <point x="32" y="-127" type="curve" smooth="yes"/>
      <point x="5" y="-127" type="line"/>
      <point x="5" y="-150" type="line"/>
    </contour>
  </outline>
</glyph>
<glyph name="asciitilde" format="1">
  <advance width="500"/>
  <unicode hex="007E"/>
  <outline>
    <contour>
      <point x="40" y="201" type="curve"/>
      <point x="92" y="201" type="line"/>
      <point x="92" y="260"/>
      <point x="114" y="292"/>
      <point x="153" y="292" type="curve" smooth="yes"/>
      <point x="218" y="292"/>
      <point x="251" y="201"/>
      <point x="346" y="201" type="curve" smooth="yes"/>
      <point x="415" y="201"/>
      <point x="460" y="253"/>
      <point x="460" y="343" type="curve"/>
      <point x="408" y="343" type="line"/>
      <point x="408" y="281"/>
      <point x="390" y="252"/>
      <point x="347" y="252" type="curve" smooth="yes"/>
      <point x="281" y="252"/>
      <point x="249" y="343"/>
      <point x="154" y="343" type="curve" smooth="yes"/>
      <point x="85" y="343"/>
      <point x="40" y="291"/>
    </contour>
  </outline>
</glyph>
<glyph name="exclamdown" format="1">
  <advance width="250"/>
  <unicode hex="00A1"/>
  <outline>
    <contour>
      <point x="70" y="-205" type="line"/>
      <point x="180" y="-205" type="line"/>
      <point x="135" y="255" type="line"/>
      <point x="115" y="255" type="line"/>
    </contour>
    <contour>
      <point x="125" y="338" type="curve" smooth="yes"/>
      <point x="157" y="338"/>
      <point x="186" y="366"/>
      <point x="186" y="399" type="curve" smooth="yes"/>
      <point x="186" y="431"/>
      <point x="157" y="460"/>
      <point x="125" y="460" type="curve" smooth="yes"/>
      <point x="92" y="460"/>
      <point x="64" y="431"/>
      <point x="64" y="399" type="curve" smooth="yes"/>
      <point x="64" y="366"/>
      <point x="92" y="338"/>
    </contour>
  </outline>
</glyph>
<glyph name="cent" format="2">
  <advance width="500"/>
  <unicode hex="00A2"/>
  <outline>
    <contour>
      <point x="168" y="26" type="line"/>
      <point x="205" y="26" type="line"/>
      <point x="355" y="635" type="line"/>
      <point x="318" y="635" type="line"/>
    </contour>
    <contour>
      <point x="310" y="175" type="curve" smooth="yes"/>
      <point x="187" y="175"/>
      <point x="137" y="255"/>
      <point x="137" y="347" type="curve" smooth="yes"/>
      <point x="137" y="445"/>
      <point x="202" y="525"/>
      <point x="301" y="525" type="curve" smooth="yes"/>
      <point x="310" y="525"/>
      <point x="320" y="524"/>
      <point x="327" y="523" type="curve"/>
      <point x="300" y="545" type="line"/>
      <point x="390" y="432" type="line"/>
      <point x="421" y="459" type="line" smooth="yes"/>
      <point x="437" y="473"/>
      <point x="442" y="479"/>
      <point x="442" y="493" type="curve" smooth="yes"/>
      <point x="442" y="522"/>
      <point x="389" y="566"/>
      <point x="305" y="566" type="curve" smooth="yes"/>
      <point x="166" y="566"/>
      <point x="58" y="459"/>
      <point x="58" y="311" type="curve" smooth="yes"/>
      <point x="58" y="181"/>
      <point x="138" y="96"/>
      <point x="267" y="96" type="curve" smooth="yes"/>
      <point x="348" y="96"/>
      <point x="411" y="143"/>
      <point x="442" y="193" type="curve"/>
      <point x="442" y="215" type="line"/>
      <point x="439" y="215" type="line"/>
      <point x="389" y="188"/>
      <point x="347" y="175"/>
    </contour>
  </outline>
</glyph>
<glyph name="sterling" format="1">
  <advance width="500"/>
  <unicode hex="00A3"/>
  <outline>
    <contour>
      <point x="47" y="0" type="line"/>
      <point x="447" y="0" type="line"/>
      <point x="457" y="179" type="line"/>
      <point x="421" y="179" type="line"/>
      <point x="391" y="82" type="line"/>
      <point x="123" y="82" type="line"/>
      <point x="132" y="70" type="line"/>
      <point x="229" y="136"/>
      <point x="269" y="188"/>
      <point x="269" y="245" type="curve" smooth="yes"/>
      <point x="269" y="325"/>
      <point x="163" y="446"/>
      <point x="163" y="529" type="curve" smooth="yes"/>
      <point x="163" y="581"/>
      <point x="196" y="622"/>
      <point x="263" y="622" type="curve" smooth="yes"/>
      <point x="311" y="622"/>
      <point x="333" y="604"/>
      <point x="363" y="549" type="curve" smooth="yes"/>
      <point x="377" y="523" type="line"/>
      <point x="384" y="523" type="line"/>
      <point x="429" y="559" type="line" smooth="yes"/>
      <point x="439" y="567"/>
      <point x="442" y="573"/>
      <point x="442" y="583" type="curve" smooth="yes"/>
      <point x="442" y="591"/>
      <point x="437" y="600"/>
      <point x="426" y="613" type="curve" smooth="yes"/>
      <point x="399" y="646"/>
      <point x="350" y="670"/>
      <point x="281" y="670" type="curve" smooth="yes"/>
      <point x="162" y="670"/>
      <point x="85" y="571"/>
      <point x="85" y="471" type="curve" smooth="yes"/>
      <point x="85" y="387"/>
      <point x="174" y="291"/>
      <point x="174" y="218" type="curve" smooth="yes"/>
      <point x="174" y="169"/>
      <point x="140" y="117"/>
      <point x="47" y="40" type="curve"/>
    </contour>
    <contour>
      <point x="43" y="315" type="line"/>
      <point x="393" y="315" type="line"/>
      <point x="393" y="353" type="line"/>
      <point x="43" y="353" type="line"/>
    </contour>
  </outline>
</glyph>
<glyph name="currency" format="1">
  <advance width="500"/>
  <unicode hex="00A4"/>
  <outline>
    <contour>
      <point x="40" y="98" type="line"/>
      <point x="76" y="62" type="line"/>
      <point x="155" y="141" type="line"/>
      <point x="182" y="122"/>
      <point x="215" y="110"/>
      <point x="250" y="110" type="curve" smooth="yes"/>
      <point x="285" y="110"/>
      <point x="318" y="122"/>
      <point x="345" y="141" type="curve"/>
      <point x="424" y="62" type="line"/>
      <point x="460" y="98" type="line"/>
      <point x="381" y="177" type="line"/>
      <point x="400" y="204"/>
      <point x="412" y="237"/>
      <point x="412" y="272" type="curve" smooth="yes"/>
      <point x="412" y="307"/>
      <point x="400" y="340"/>
      <point x="381" y="367" type="curve"/>
      <point x="460" y="446" type="line"/>
      <point x="424" y="482" type="line"/>
      <point x="345" y="403" type="line"/>
      <point x="318" y="422"/>
      <point x="285" y="434"/>
      <point x="250" y="434" type="curve" smooth="yes"/>
      <point x="215" y="434"/>
      <point x="182" y="422"/>
      <point x="155" y="403" type="curve"/>
      <point x="76" y="482" type="line"/>
      <point x="40" y="446" type="line"/>
      <point x="119" y="367" type="line"/>
      <point x="100" y="340"/>
      <point x="88" y="307"/>
      <point x="88" y="272" type="curve" smooth="yes"/>
      <point x="88" y="237"/>
      <point x="100" y="204"/>
      <point x="119" y="177" type="curve"/>
    </contour>
    <contour>
      <point x="250" y="157" type="curve" smooth="yes"/>
      <point x="187" y="157"/>
      <point x="140" y="207"/>
      <point x="140" y="272" type="curve" smooth="yes"/>
      <point x="140" y="337"/>
      <point x="187" y="387"/>
      <point x="250" y="387" type="curve" smooth="yes"/>
      <point x="313" y="387"/>
      <point x="360" y="337"/>
      <point x="360" y="272" type="curve" smooth="yes"/>
      <point x="360" y="207"/>
      <point x="313" y="157"/>
    </contour>
  </outline>
</glyph>
<glyph name="yen" format="1">
  <advance width="500"/>
  <unicode hex="00A5"/>
  <outline>
    <contour>
      <point x="120" y="0" type="line"/>
      <point x="375" y="0" type="line"/>
      <point x="375" y="16" type="line"/>
      <point x="290" y="56" type="line"/>
      <point x="290" y="426" type="line"/>
      <point x="273" y="367" type="line"/>
      <point x="462" y="639" type="line"/>
      <point x="407" y="606" type="line"/>
      <point x="498" y="644" type="line"/>
      <point x="498" y="660" type="line"/>
      <point x="322" y="660" type="line"/>
      <point x="322" y="644" type="line"/>
      <point x="384" y="618" type="line"/>
      <point x="384" y="615" type="line"/>
      <point x="262" y="422" type="line"/>
      <point x="284" y="422" type="line"/>
      <point x="149" y="620" type="line"/>
      <point x="149" y="622" type="line"/>
      <point x="210" y="644" type="line"/>
      <point x="210" y="660" type="line"/>
      <point x="2" y="660" type="line"/>
      <point x="2" y="644" type="line"/>
      <point x="75" y="606" type="line"/>
      <point x="26" y="639" type="line"/>
      <point x="223" y="367" type="line"/>
      <point x="205" y="426" type="line"/>
      <point x="205" y="56" type="line"/>
      <point x="120" y="16" type="line"/>
    </contour>
    <contour>
      <point x="72" y="389" type="line"/>
      <point x="422" y="389" type="line"/>
      <point x="422" y="427" type="line"/>
      <point x="72" y="427" type="line"/>
    </contour>
    <contour>
      <point x="72" y="239" type="line"/>
      <point x="422" y="239" type="line"/>
      <point x="422" y="277" type="line"/>
      <point x="72" y="277" type="line"/>
    </contour>
  </outline>
</glyph>
<glyph name="section" format="2">
  <advance width="500"/>
  <unicode hex="00A7"/>
  <outline>
    <contour>
      <point x="171" y="-77" type="curve"/>
      <point x="243" y="-98" type="line"/>
      <point x="113" y="8" type="line"/>
      <point x="75" y="-40" type="line" smooth="yes"/>
      <point x="70" y="-46"/>
      <point x="68" y="-50"/>
      <point x="68" y="-55" type="curve" smooth="yes"/>
      <point x="68" y="-85"/>
      <point x="128" y="-120"/>
      <point x="192" y="-120" type="curve" smooth="yes"/>
      <point x="294" y="-120"/>
      <point x="401" y="-44"/>
      <point x="401" y="48" type="curve"/>
      <point x="401" y="122"/>
      <point x="365" y="167"/>
      <point x="249" y="191" type="curve" smooth="yes"/>
      <point x="133" y="215"/>
      <point x="105" y="247"/>
      <point x="105" y="302" type="curve" smooth="yes"/>
      <point x="105" y="354"/>
      <point x="134" y="388"/>
      <point x="207" y="390" type="curve"/>
      <point x="207" y="422" type="line"/>
      <point x="102" y="407"/>
      <point x="32" y="355"/>
      <point x="32" y="273" type="curve" smooth="yes"/>
      <point x="32" y="202"/>
      <point x="67" y="153"/>
      <point x="185" y="127" type="curve" smooth="yes"/>
      <point x="303" y="101"/>
      <point x="333" y="67"/>
      <point x="333" y="13" type="curve"/>
      <point x="333" y="-32"/>
      <point x="278" y="-80"/>
      <point x="205" y="-80" type="curve" smooth="yes"/>
      <point x="194" y="-80"/>
      <point x="182" y="-79"/>
    </contour>
    <contour>
      <point x="307" y="670" type="curve" smooth="yes"/>
      <point x="205" y="670"/>
      <point x="98" y="595"/>
      <point x="98" y="503" type="curve" smooth="yes"/>
      <point x="98" y="424"/>
      <point x="139" y="378"/>
      <point x="255" y="357" type="curve" smooth="yes"/>
      <point x="371" y="336"/>
      <point x="397" y="305"/>
      <point x="397" y="253" type="curve" smooth="yes"/>
      <point x="397" y="206"/>
      <point x="347" y="170"/>
      <point x="297" y="170" type="curve"/>
      <point x="297" y="137" type="line"/>
      <point x="400" y="155"/>
      <point x="465" y="208"/>
      <point x="465" y="291" type="curve" smooth="yes"/>
      <point x="465" y="358"/>
      <point x="433" y="402"/>
      <point x="313" y="427" type="curve" smooth="yes"/>
      <point x="193" y="452"/>
      <point x="166" y="481"/>
      <point x="166" y="529" type="curve" smooth="yes"/>
      <point x="166" y="581"/>
      <point x="224" y="630"/>
      <point x="299" y="630" type="curve" smooth="yes"/>
      <point x="318" y="630"/>
      <point x="339" y="629"/>
      <point x="369" y="626" type="curve"/>
      <point x="267" y="639" type="line"/>
      <point x="385" y="547" type="line"/>
      <point x="421" y="591" type="line" smooth="yes"/>
      <point x="425" y="596"/>
      <point x="427" y="601"/>
      <point x="427" y="606" type="curve" smooth="yes"/>
      <point x="427" y="635"/>
      <point x="371" y="670"/>
    </contour>
  </outline>
</glyph>
<glyph name="copyright" format="1">
  <advance width="806"/>
  <unicode hex="00A9"/>
  <outline>
    <contour>
      <point x="403" y="-10" type="curve" smooth="yes"/>
      <point x="594" y="-10"/>
      <point x="736" y="134"/>
      <point x="736" y="330" type="curve" smooth="yes"/>
      <point x="736" y="526"/>
      <point x="594" y="670"/>
      <point x="403" y="670" type="curve" smooth="yes"/>
      <point x="212" y="670"/>
      <point x="70" y="526"/>
      <point x="70" y="330" type="curve" smooth="yes"/>
      <point x="70" y="134"/>
      <point x="212" y="-10"/>
    </contour>
    <contour>
      <point x="403" y="26" type="curve" smooth="yes"/>
      <point x="234" y="26"/>
      <point x="108" y="155"/>
      <point x="108" y="330" type="curve" smooth="yes"/>
      <point x="108" y="505"/>
      <point x="234" y="634"/>
      <point x="403" y="634" type="curve" smooth="yes"/>
      <point x="572" y="634"/>
      <point x="698" y="505"/>
      <point x="698" y="330" type="curve" smooth="yes"/>
      <point x="698" y="155"/>
      <point x="572" y="26"/>
    </contour>
    <contour>
      <point x="414" y="129" type="curve" smooth="yes"/>
      <point x="474" y="129"/>
      <point x="512" y="142"/>
      <point x="550" y="161" type="curve"/>
      <point x="558" y="266" type="line"/>
      <point x="529" y="266" type="line"/>
      <point x="485" y="176" type="line"/>
      <point x="513" y="210" type="line"/>
      <point x="480" y="186"/>
      <point x="453" y="175"/>
      <point x="413" y="175" type="curve" smooth="yes"/>
      <point x="340" y="175"/>
      <point x="285" y="237"/>
      <point x="285" y="341" type="curve" smooth="yes"/>
      <point x="285" y="430"/>
      <point x="342" y="495"/>
      <point x="422" y="495" type="curve" smooth="yes"/>
      <point x="452" y="495"/>
      <point x="470" y="483"/>
      <point x="506" y="458" type="curve"/>
      <point x="485" y="480" type="line"/>
      <point x="522" y="394" type="line"/>
      <point x="551" y="394" type="line"/>
      <point x="547" y="509" type="line"/>
      <point x="511" y="527"/>
      <point x="483" y="540"/>
      <point x="423" y="540" type="curve" smooth="yes"/>
      <point x="310" y="540"/>
      <point x="215" y="438"/>
      <point x="215" y="324" type="curve" smooth="yes"/>
      <point x="215" y="212"/>
      <point x="290" y="129"/>
    </contour>
  </outline>
</glyph>
<glyph name="ordfeminine" format="2">
  <advance width="400"/>
  <unicode hex="00AA"/>
  <outline>
    <contour>
      <point x="144" y="417" type="curve" smooth="yes"/>
      <point x="173" y="417"/>
      <point x="199" y="431"/>
      <point x="218" y="452" type="curve"/>
      <point x="228" y="452" type="line"/>
      <point x="228" y="470" type="line"/>
      <point x="211" y="462"/>
      <point x="198" y="458"/>
      <point x="184" y="458" type="curve" smooth="yes"/>
      <point x="161" y="458"/>
      <point x="148" y="469"/>
      <point x="148" y="491" type="curve" smooth="yes"/>
      <point x="148" y="519"/>
      <point x="162" y="534"/>
      <point x="235" y="546" type="curve"/>
      <point x="235" y="569" type="line"/>
      <point x="168" y="552" type="line" smooth="yes"/>
      <point x="101" y="535"/>
      <point x="82" y="515"/>
      <point x="82" y="477" type="curve"/>
      <point x="82" y="439"/>
      <point x="110" y="417"/>
    </contour>
    <contour>
      <point x="276" y="417" type="curve" smooth="yes"/>
      <point x="305" y="417"/>
      <point x="323" y="430"/>
      <point x="331" y="444" type="curve"/>
      <point x="331" y="450" type="line"/>
      <point x="329" y="452" type="line"/>
      <point x="314" y="452" type="line" smooth="yes"/>
      <point x="301" y="452"/>
      <point x="292" y="456"/>
      <point x="287" y="461" type="curve"/>
      <point x="287" y="602" type="line" smooth="yes"/>
      <point x="287" y="647"/>
      <point x="252" y="669"/>
      <point x="195" y="669" type="curve" smooth="yes"/>
      <point x="144" y="669"/>
      <point x="91" y="632"/>
      <point x="91" y="598" type="curve" smooth="yes"/>
      <point x="91" y="586"/>
      <point x="94" y="582"/>
      <point x="105" y="582" type="curve" smooth="yes"/>
      <point x="143" y="582" type="line"/>
      <point x="143" y="646" type="line"/>
      <point x="117" y="611" type="line"/>
      <point x="142" y="637"/>
      <point x="161" y="640"/>
      <point x="177" y="640" type="curve" smooth="yes"/>
      <point x="202" y="640"/>
      <point x="218" y="625"/>
      <point x="218" y="598" type="curve" smooth="yes"/>
      <point x="218" y="459" type="line"/>
      <point x="219" y="459" type="line"/>
      <point x="226" y="433"/>
      <point x="244" y="417"/>
    </contour>
    <contour>
      <point x="85" y="292" type="line"/>
      <point x="315" y="292" type="line"/>
      <point x="315" y="342" type="line"/>
      <point x="85" y="342" type="line"/>
    </contour>
  </outline>
</glyph>
<glyph name="logicalnot" format="1">
  <advance width="500"/>
  <unicode hex="00AC"/>
  <outline>
    <contour>
      <point x="410" y="62" type="line"/>
      <point x="460" y="62" type="line"/>
      <point x="460" y="297" type="line"/>
      <point x="40" y="297" type="line"/>
      <point x="40" y="247" type="line"/>
      <point x="410" y="247" type="line"/>
    </contour>
  </outline>
</glyph>
<glyph name="registered" format="1">
  <advance width="540"/>
  <unicode hex="00AE"/>
  <outline>
    <contour>
      <point x="270" y="238" type="curve" smooth="yes"/>
      <point x="392" y="238"/>
      <point x="482" y="331"/>
      <point x="482" y="454" type="curve" smooth="yes"/>
      <point x="482" y="577"/>
      <point x="392" y="670"/>
      <point x="270" y="670" type="curve" smooth="yes"/>
      <point x="148" y="670"/>
      <point x="58" y="577"/>
      <point x="58" y="454" type="curve" smooth="yes"/>
      <point x="58" y="331"/>
      <point x="148" y="238"/>
    </contour>
    <contour>
      <point x="270" y="268" type="curve" smooth="yes"/>
      <point x="164" y="268"/>
      <point x="91" y="348"/>
      <point x="91" y="454" type="curve" smooth="yes"/>
      <point x="91" y="560"/>
      <point x="164" y="640"/>
      <point x="270" y="640" type="curve" smooth="yes"/>
      <point x="376" y="640"/>
      <point x="449" y="560"/>
      <point x="449" y="454" type="curve" smooth="yes"/>
      <point x="449" y="348"/>
      <point x="376" y="268"/>
    </contour>
    <contour>
      <point x="162" y="329" type="line"/>
      <point x="265" y="329" type="line"/>
      <point x="265" y="336" type="line"/>
      <point x="235" y="352" type="line"/>
      <point x="235" y="584" type="line"/>
      <point x="162" y="584" type="line"/>
      <point x="162" y="578" type="line"/>
      <point x="193" y="562" type="line"/>
      <point x="193" y="352" type="line"/>
      <point x="162" y="336" type="line"/>
    </contour>
    <contour>
      <point x="356" y="521" type="curve" smooth="yes"/>
      <point x="356" y="560"/>
      <point x="323" y="584"/>
      <point x="269" y="584" type="curve" smooth="yes"/>
      <point x="210" y="584" type="line"/>
      <point x="210" y="561" type="line"/>
      <point x="257" y="561" type="line" smooth="yes"/>
      <point x="288" y="561"/>
      <point x="311" y="547"/>
      <point x="311" y="516" type="curve" smooth="yes"/>
      <point x="311" y="485"/>
      <point x="288" y="469"/>
      <point x="259" y="469" type="curve" smooth="yes"/>
      <point x="213" y="469" type="line"/>
      <point x="213" y="446" type="line"/>
      <point x="273" y="446" type="line"/>
      <point x="273" y="449" type="line"/>
      <point x="321" y="454"/>
      <point x="356" y="484"/>
    </contour>
    <contour>
      <point x="318" y="329" type="line"/>
      <point x="382" y="329" type="line"/>
      <point x="382" y="336" type="line"/>
      <point x="356" y="349" type="line"/>
      <point x="299" y="461" type="line"/>
      <point x="253" y="461" type="line"/>
    </contour>
  </outline>
</glyph>
<glyph name="degree" format="1">
  <advance width="500"/>
  <unicode hex="00B0"/>
  <outline>
    <contour>
      <point x="250" y="410" type="curve" smooth="yes"/>
      <point x="325" y="410"/>
      <point x="380" y="470"/>
      <point x="380" y="540" type="curve" smooth="yes"/>
      <point x="380" y="610"/>
      <point x="325" y="670"/>
      <point x="250" y="670" type="curve" smooth="yes"/>
      <point x="175" y="670"/>
      <point x="120" y="610"/>
      <point x="120" y="540" type="curve" smooth="yes"/>
      <point x="120" y="470"/>
      <point x="175" y="410"/>
    </contour>
    <contour>
      <point x="250" y="449" type="curve" smooth="yes"/>
      <point x="201" y="449"/>
      <point x="162" y="484"/>
      <point x="162" y="540" type="curve" smooth="yes"/>
      <point x="162" y="596"/>
      <point x="201" y="631"/>
      <point x="250" y="631" type="curve" smooth="yes"/>
      <point x="299" y="631"/>
      <point x="338" y="596"/>
      <point x="338" y="540" type="curve" smooth="yes"/>
      <point x="338" y="484"/>
      <point x="299" y="449"/>
    </contour>
  </outline>
</glyph>
<glyph name="plusminus" format="1">
  <advance width="500"/>
  <unicode hex="00B1"/>
  <outline>
    <contour>
      <point x="40" y="287" type="line"/>
      <point x="460" y="287" type="line"/>
      <point x="460" y="337" type="line"/>
      <point x="40" y="337" type="line"/>
    </contour>
    <contour>
      <point x="224" y="152" type="line"/>
      <point x="276" y="152" type="line"/>
      <point x="276" y="482" type="line"/>
      <point x="224" y="482" type="line"/>
    </contour>
    <contour>
      <point x="40" y="62" type="line"/>
      <point x="460" y="62" type="line"/>
      <point x="460" y="112" type="line"/>
      <point x="40" y="112" type="line"/>
    </contour>
  </outline>
</glyph>
<glyph name="periodcentered" format="1">
  <advance width="250"/>
  <unicode hex="00B7"/>
  <outline>
    <contour>
      <point x="125" y="210" type="curve" smooth="yes"/>
      <point x="158" y="210"/>
      <point x="186" y="238"/>
      <point x="186" y="271" type="curve" smooth="yes"/>
      <point x="186" y="304"/>
      <point x="158" y="332"/>
      <point x="125" y="332" type="curve" smooth="yes"/>
      <point x="92" y="332"/>
      <point x="64" y="304"/>
      <point x="64" y="271" type="curve" smooth="yes"/>
      <point x="64" y="238"/>
      <point x="92" y="210"/>
    </contour>
  </outline>
</glyph>
<glyph name="ordmasculine" format="1">
  <advance width="400"/>
  <unicode hex="00BA"/>
  <outline>
    <contour>
      <point x="200" y="417" type="curve" smooth="yes"/>
      <point x="274" y="417"/>
      <point x="325" y="473"/>
      <point x="325" y="543" type="curve" smooth="yes"/>
      <point x="325" y="612"/>
      <point x="274" y="669"/>
      <point x="200" y="669" type="curve" smooth="yes"/>
      <point x="125" y="669"/>
      <point x="75" y="612"/>
      <point x="75" y="543" type="curve" smooth="yes"/>
      <point x="75" y="473"/>
      <point x="125" y="417"/>
    </contour>
    <contour>
      <point x="206" y="442" type="curve" smooth="yes"/>
      <point x="171" y="442"/>
      <point x="147" y="484"/>
      <point x="147" y="554" type="curve" smooth="yes"/>
      <point x="147" y="607"/>
      <point x="165" y="644"/>
      <point x="195" y="644" type="curve" smooth="yes"/>
      <point x="230" y="644"/>
      <point x="253" y="600"/>
      <point x="253" y="532" type="curve" smooth="yes"/>
      <point x="253" y="476"/>
      <point x="236" y="442"/>
    </contour>
    <contour>
      <point x="85" y="292" type="line"/>
      <point x="315" y="292" type="line"/>
      <point x="315" y="342" type="line"/>
      <point x="85" y="342" type="line"/>
    </contour>
  </outline>
</glyph>
<glyph name="questiondown" format="2">
  <advance width="479"/>
  <unicode hex="00BF"/>
  <outline>
    <contour>
      <point x="279" y="255" type="line"/>
      <point x="259" y="255" type="line"/>
      <point x="243" y="110" type="line"/>
      <point x="264" y="184" type="line"/>
      <point x="113" y="119"/>
      <point x="56" y="50"/>
      <point x="56" y="-38" type="curve" smooth="yes"/>
      <point x="56" y="-135"/>
      <point x="131" y="-215"/>
      <point x="233" y="-215" type="curve" smooth="yes"/>
      <point x="347" y="-215"/>
      <point x="438" y="-141"/>
      <point x="438" y="-75" type="curve" smooth="yes"/>
      <point x="438" y="-41"/>
      <point x="431" y="-33"/>
      <point x="409" y="-33" type="curve" smooth="yes"/>
      <point x="345" y="-33" type="line"/>
      <point x="345" y="-167" type="line"/>
      <point x="372" y="-110" type="line"/>
      <point x="325" y="-155"/>
      <point x="289" y="-164"/>
      <point x="255" y="-164" type="curve" smooth="yes"/>
      <point x="198" y="-164"/>
      <point x="144" y="-130"/>
      <point x="144" y="-44" type="curve" smooth="yes"/>
      <point x="144" y="30"/>
      <point x="206" y="75"/>
      <point x="305" y="110" type="curve"/>
    </contour>
    <contour>
      <point x="269" y="460" type="curve" smooth="yes"/>
      <point x="237" y="460"/>
      <point x="208" y="431"/>
      <point x="208" y="399" type="curve" smooth="yes"/>
      <point x="208" y="366"/>
      <point x="237" y="338"/>
      <point x="269" y="338" type="curve" smooth="yes"/>
      <point x="302" y="338"/>
      <point x="330" y="366"/>
      <point x="330" y="399" type="curve" smooth="yes"/>
      <point x="330" y="431"/>
      <point x="302" y="460"/>
    </contour>
  </outline>
</glyph>
<glyph name="AE" format="1">
  <advance width="982"/>
  <unicode hex="00C6"/>
  <outline>
    <contour>
      <point x="464" y="660" type="line"/>
      <point x="79" y="28" type="line"/>
      <point x="141" y="75" type="line"/>
      <point x="28" y="16" type="line"/>
      <point x="28" y="0" type="line"/>
      <point x="243" y="0" type="line"/>
      <point x="243" y="16" type="line"/>
      <point x="142" y="59" type="line"/>
      <point x="150" y="28" type="line"/>
      <point x="490" y="603" type="line"/>
      <point x="475" y="603" type="line"/>
      <point x="475" y="56" type="line"/>
      <point x="395" y="16" type="line"/>
      <point x="395" y="0" type="line"/>
      <point x="565" y="0" type="line"/>
      <point x="565" y="660" type="line"/>
    </contour>
    <contour>
      <point x="258" y="235" type="line"/>
      <point x="508" y="235" type="line"/>
      <point x="508" y="290" type="line"/>
      <point x="258" y="290" type="line"/>
    </contour>
    <contour>
      <point x="884" y="660" type="line"/>
      <point x="512" y="660" type="line"/>
      <point x="512" y="605" type="line"/>
      <point x="806" y="605" type="line"/>
      <point x="868" y="488" type="line"/>
      <point x="884" y="488" type="line"/>
    </contour>
    <contour>
      <point x="520" y="313" type="line"/>
      <point x="735" y="313" type="line"/>
      <point x="785" y="232" type="line"/>
      <point x="801" y="232" type="line"/>
      <point x="801" y="451" type="line"/>
      <point x="785" y="451" type="line"/>
      <point x="735" y="368" type="line"/>
      <point x="520" y="368" type="line"/>
    </contour>
    <contour>
      <point x="912" y="0" type="line"/>
      <point x="912" y="182" type="line"/>
      <point x="896" y="182" type="line"/>
      <point x="834" y="55" type="line"/>
      <point x="540" y="55" type="line"/>
      <point x="540" y="0" type="line"/>
    </contour>
    <contour>
      <point x="535" y="710" type="move" name="top"/>
    </contour>
  </outline>
</glyph>
<glyph name="Ccedilla" format="1">
  <advance width="726.0"/>
  <unicode hex="00C7"/>
  <outline>
    <contour>
      <point x="400" y="-10" type="curve" smooth="yes"/>
      <point x="510" y="-10"/>
      <point x="564" y="10"/>
      <point x="623" y="39" type="curve"/>
      <point x="634" y="198" type="line"/>
      <point x="617" y="198" type="line"/>
      <point x="540" y="62" type="line"/>
      <point x="578" y="106" type="line"/>
      <point x="535" y="76"/>
      <point x="486" y="41"/>
      <point x="398" y="41" type="curve" smooth="yes"/>
      <point x="268" y="41"/>
      <point x="163" y="152"/>
      <point x="163" y="342" type="curve" smooth="yes"/>
      <point x="163" y="504"/>
      <point x="269" y="620"/>
      <point x="413" y="620" type="curve" smooth="yes"/>
      <point x="467" y="620"/>
      <point x="502" y="600"/>
      <point x="565" y="554" type="curve"/>
      <point x="529" y="599" type="line"/>
      <point x="605" y="447" type="line"/>
      <point x="623" y="447" type="line"/>
      <point x="618" y="622" type="line"/>
      <point x="563" y="649"/>
      <point x="515" y="670"/>
      <point x="415" y="670" type="curve" smooth="yes"/>
      <point x="228" y="670"/>
      <point x="70" y="501"/>
      <point x="70" y="312" type="curve" smooth="yes"/>
      <point x="70" y="126"/>
      <point x="195" y="-10"/>
    </contour>
    <contour>
      <point x="383" y="-210" type="curve" smooth="yes"/>
      <point x="356" y="-210"/>
      <point x="338" y="-206"/>
      <point x="320" y="-198" type="curve"/>
      <point x="317" y="-198" type="line"/>
      <point x="317" y="-210" type="line"/>
      <point x="335" y="-231"/>
      <point x="363" y="-240"/>
      <point x="400" y="-240" type="curve"/>
      <point x="463" y="-240"/>
      <point x="497" y="-203"/>
      <point x="497" y="-155" type="curve" smooth="yes"/>
      <point x="497" y="-98"/>
      <point x="465" y="-75"/>
      <point x="374" y="-49" type="curve"/>
      <point x="387" y="-69" type="line"/>
      <point x="428" y="20" type="line"/>
      <point x="393" y="20" type="line"/>
      <point x="336" y="-103" type="line"/>
      <point x="415" y="-128"/>
      <point x="437" y="-142"/>
      <point x="437" y="-171" type="curve" smooth="yes"/>
      <point x="437" y="-192"/>
      <point x="423" y="-210"/>
    </contour>
  </outline>
</glyph>
<glyph name="multiply" format="1">
  <advance width="500"/>
  <unicode hex="00D7"/>
  <outline>
    <contour>
      <point x="102" y="88" type="line"/>
      <point x="434" y="419" type="line"/>
      <point x="398" y="456" type="line"/>
      <point x="66" y="125" type="line"/>
    </contour>
    <contour>
      <point x="398" y="88" type="line"/>
      <point x="434" y="125" type="line"/>
      <point x="102" y="456" type="line"/>
      <point x="66" y="419" type="line"/>
    </contour>
  </outline>
</glyph>
<glyph name="Oslash" format="1">
  <advance width="807"/>
  <unicode hex="00D8"/>
  <outline>
    <contour>
      <point x="403" y="-10" type="curve" smooth="yes"/>
      <point x="595" y="-10"/>
      <point x="737" y="134"/>
      <point x="737" y="330" type="curve" smooth="yes"/>
      <point x="737" y="526"/>
      <point x="595" y="670"/>
      <point x="403" y="670" type="curve" smooth="yes"/>
      <point x="212" y="670"/>
      <point x="70" y="526"/>
      <point x="70" y="330" type="curve" smooth="yes"/>
      <point x="70" y="134"/>
      <point x="212" y="-10"/>
    </contour>
    <contour>
      <point x="424" y="40" type="curve" smooth="yes"/>
      <point x="281" y="40"/>
      <point x="167" y="168"/>
      <point x="167" y="363" type="curve" smooth="yes"/>
      <point x="167" y="521"/>
      <point x="258" y="621"/>
      <point x="386" y="621" type="curve" smooth="yes"/>
      <point x="528" y="621"/>
      <point x="640" y="494"/>
      <point x="640" y="299" type="curve" smooth="yes"/>
      <point x="640" y="141"/>
      <point x="552" y="40"/>
    </contour>
    <contour>
      <point x="70" y="-10" type="line"/>
      <point x="139" y="-10" type="line"/>
      <point x="737" y="670" type="line"/>
      <point x="668" y="670" type="line"/>
    </contour>
    <contour>
      <point x="391" y="710" type="move" name="top"/>
    </contour>
  </outline>
</glyph>
<glyph name="Thorn" format="1">
  <advance width="638.0"/>
  <unicode hex="00DE"/>
  <outline>
    <contour>
      <point x="65" y="0" type="line"/>
      <point x="315" y="0" type="line"/>
      <point x="315" y="16" type="line"/>
      <point x="235" y="56" type="line"/>
      <point x="235" y="604" type="line"/>
      <point x="315" y="644" type="line"/>
      <point x="315" y="660" type="line"/>
      <point x="65" y="660" type="line"/>
      <point x="65" y="644" type="line"/>
      <point x="145" y="604" type="line"/>
      <point x="145" y="56" type="line"/>
      <point x="65" y="16" type="line"/>
    </contour>
    <contour>
      <point x="301" y="171" type="line" smooth="yes"/>
      <point x="464" y="171"/>
      <point x="586" y="252"/>
      <point x="586" y="361" type="curve" smooth="yes"/>
      <point x="586" y="485"/>
      <point x="482" y="540"/>
      <point x="325" y="540" type="curve" smooth="yes"/>
      <point x="218" y="540" type="line"/>
      <point x="218" y="485" type="line"/>
      <point x="313" y="485" type="line" smooth="yes"/>
      <point x="426" y="485"/>
      <point x="489" y="446"/>
      <point x="489" y="353" type="curve" smooth="yes"/>
      <point x="489" y="278"/>
      <point x="425" y="226"/>
      <point x="320" y="226" type="curve" smooth="yes"/>
      <point x="210" y="226" type="line"/>
      <point x="210" y="171" type="line"/>
    </contour>
  </outline>
</glyph>
<glyph name="germandbls" format="1">
  <advance width="603.0"/>
  <unicode hex="00DF"/>
  <outline>
    <contour>
      <point x="64.0" y="0.0" type="line"/>
      <point x="207.0" y="0.0" type="line"/>
      <point x="207.0" y="552.0" type="line" smooth="yes"/>
      <point x="207.0" y="646.0"/>
      <point x="242" y="710"/>
      <point x="334" y="710" type="curve" smooth="yes"/>
      <point x="406" y="710"/>
      <point x="447.0" y="665.0"/>
      <point x="447" y="608" type="curve" smooth="yes"/>
      <point x="447" y="467"/>
      <point x="321" y="444"/>
      <point x="321" y="351" type="curve" smooth="yes"/>
      <point x="321" y="290"/>
      <point x="359" y="261"/>
      <point x="404" y="228" type="curve" smooth="yes"/>
      <point x="465" y="184"/>
      <point x="513.0" y="154.695652174"/>
      <point x="513.0" y="101.0" type="curve" smooth="yes"/>
      <point x="513.0" y="52.0"/>
      <point x="477" y="26"/>
      <point x="427" y="26" type="curve" smooth="yes"/>
      <point x="383" y="26"/>
      <point x="353.0" y="46.0"/>
      <point x="333.0" y="81.0" type="curve" smooth="yes"/>
      <point x="301.0" y="136.0" type="line"/>
      <point x="287.0" y="136.0" type="line"/>
      <point x="287.0" y="24.0" type="line"/>
      <point x="333.0" y="0.0"/>
      <point x="373" y="-10"/>
      <point x="435" y="-10" type="curve" smooth="yes"/>
      <point x="513.805194805" y="-10.0"/>
      <point x="583.0" y="50.0"/>
      <point x="583" y="124" type="curve" smooth="yes"/>
      <point x="583.0" y="178.0"/>
      <point x="560" y="212"/>
      <point x="493" y="265" type="curve" smooth="yes"/>
      <point x="428" y="317"/>
      <point x="397" y="334"/>
      <point x="397" y="374" type="curve" smooth="yes"/>
      <point x="397" y="476"/>
      <point x="523" y="520"/>
      <point x="523" y="623" type="curve" smooth="yes"/>
      <point x="523" y="692"/>
      <point x="461.0" y="750.0"/>
      <point x="358.0" y="750.0" type="curve" smooth="yes"/>
      <point x="214.0" y="750.0"/>
      <point x="127.0" y="616.0"/>
      <point x="127.0" y="480.0" type="curve" smooth="yes"/>
      <point x="127.0" y="48.0" type="line"/>
      <point x="64.0" y="16.0" type="line"/>
    </contour>
    <contour>
      <point x="49" y="403" type="line"/>
      <point x="159" y="403" type="line"/>
      <point x="159" y="450" type="line"/>
      <point x="49" y="450" type="line"/>
    </contour>
  </outline>
</glyph>
<glyph name="ae" format="2">
  <advance width="737"/>
  <unicode hex="00E6"/>
  <anchor x="377" y="510" name="top"/>
  <outline>
    <contour>
      <point x="302" y="330" type="curve" smooth="yes"/>
      <point x="302" y="207" type="line" smooth="yes"/>
      <point x="302" y="74"/>
      <point x="385" y="-10"/>
      <point x="512" y="-10" type="curve" smooth="yes"/>
      <point x="593" y="-10"/>
      <point x="656" y="37"/>
      <point x="687" y="95" type="curve"/>
      <point x="687" y="105" type="line"/>
      <point x="684" y="105" type="line"/>
      <point x="634" y="78"/>
      <point x="592" y="65"/>
      <point x="555" y="65" type="curve" smooth="yes"/>
      <point x="424" y="65"/>
      <point x="382" y="155"/>
      <point x="382" y="251" type="curve" smooth="yes"/>
      <point x="382" y="355"/>
      <point x="427" y="416"/>
      <point x="500" y="416" type="curve" smooth="yes"/>
      <point x="559" y="416"/>
      <point x="596" y="377"/>
      <point x="611" y="284" type="curve"/>
      <point x="629" y="288" type="line"/>
      <point x="372" y="288" type="line"/>
      <point x="372" y="242" type="line"/>
      <point x="681" y="242" type="line"/>
      <point x="686" y="247" type="line"/>
      <point x="686" y="384"/>
      <point x="621" y="460"/>
      <point x="516" y="460" type="curve" smooth="yes"/>
      <point x="453" y="460"/>
      <point x="395" y="427"/>
      <point x="355" y="373" type="curve"/>
      <point x="380" y="373" type="line"/>
      <point x="371" y="426"/>
      <point x="326" y="460"/>
      <point x="241" y="460" type="curve" smooth="yes"/>
      <point x="136" y="460"/>
      <point x="58" y="395"/>
      <point x="58" y="339" type="curve" smooth="yes"/>
      <point x="58" y="313"/>
      <point x="65" y="305"/>
      <point x="87" y="305" type="curve" smooth="yes"/>
      <point x="151" y="305" type="line"/>
      <point x="151" y="427" type="line"/>
      <point x="126" y="384" type="line"/>
      <point x="173" y="410"/>
      <point x="193" y="414"/>
      <point x="216" y="414" type="curve" smooth="yes"/>
      <point x="262" y="414"/>
      <point x="302" y="376"/>
    </contour>
    <contour>
      <point x="157" y="-10" type="curve" smooth="yes"/>
      <point x="234" y="-10"/>
      <point x="298" y="26"/>
      <point x="336" y="71" type="curve"/>
      <point x="344" y="71" type="line"/>
      <point x="344" y="97" type="line"/>
      <point x="294" y="70"/>
      <point x="253" y="52"/>
      <point x="201" y="52" type="curve" smooth="yes"/>
      <point x="153" y="52"/>
      <point x="126" y="73"/>
      <point x="126" y="114" type="curve" smooth="yes"/>
      <point x="126" y="162"/>
      <point x="145" y="197"/>
      <point x="334" y="229" type="curve"/>
      <point x="334" y="265" type="line"/>
      <point x="207" y="235" type="line" smooth="yes"/>
      <point x="92" y="208"/>
      <point x="48" y="159"/>
      <point x="48" y="94" type="curve"/>
      <point x="48" y="29"/>
      <point x="94" y="-10"/>
    </contour>
  </outline>
</glyph>
<glyph name="ccedilla" format="1">
  <advance width="479"/>
  <unicode hex="00E7"/>
  <outline>
    <contour>
      <point x="259" y="-10" type="curve" smooth="yes"/>
      <point x="340" y="-10"/>
      <point x="403" y="37"/>
      <point x="434" y="95" type="curve"/>
      <point x="434" y="105" type="line"/>
      <point x="431" y="105" type="line"/>
      <point x="381" y="78"/>
      <point x="339" y="65"/>
      <point x="302" y="65" type="curve" smooth="yes"/>
      <point x="171" y="65"/>
      <point x="129" y="155"/>
      <point x="129" y="251" type="curve" smooth="yes"/>
      <point x="129" y="355"/>
      <point x="174" y="416"/>
      <point x="247" y="416" type="curve" smooth="yes"/>
      <point x="291" y="416"/>
      <point x="320" y="398"/>
      <point x="340" y="371" type="curve" smooth="yes"/>
      <point x="374" y="325" type="line"/>
      <point x="381" y="325" type="line"/>
      <point x="419" y="357" type="line" smooth="yes"/>
      <point x="429" y="365"/>
      <point x="432" y="371"/>
      <point x="432" y="381" type="curve" smooth="yes"/>
      <point x="432" y="389"/>
      <point x="427" y="398"/>
      <point x="416" y="411" type="curve" smooth="yes"/>
      <point x="390" y="440"/>
      <point x="334" y="460"/>
      <point x="280" y="460" type="curve" smooth="yes"/>
      <point x="150" y="460"/>
      <point x="50" y="354"/>
      <point x="50" y="205" type="curve" smooth="yes"/>
      <point x="50" y="75"/>
      <point x="130" y="-10"/>
    </contour>
    <contour>
      <point x="243" y="-210" type="curve" smooth="yes"/>
      <point x="216" y="-210"/>
      <point x="198" y="-206"/>
      <point x="180" y="-198" type="curve"/>
      <point x="177" y="-198" type="line"/>
      <point x="177" y="-210" type="line"/>
      <point x="195" y="-231"/>
      <point x="223" y="-240"/>
      <point x="260" y="-240" type="curve"/>
      <point x="323" y="-240"/>
      <point x="357" y="-203"/>
      <point x="357" y="-155" type="curve" smooth="yes"/>
      <point x="357" y="-98"/>
      <point x="325" y="-75"/>
      <point x="234" y="-49" type="curve"/>
      <point x="247" y="-69" type="line"/>
      <point x="288" y="20" type="line"/>
      <point x="253" y="20" type="line"/>
      <point x="196" y="-103" type="line"/>
      <point x="275" y="-128"/>
      <point x="297" y="-142"/>
      <point x="297" y="-171" type="curve" smooth="yes"/>
      <point x="297" y="-192"/>
      <point x="283" y="-210"/>
    </contour>
  </outline>
</glyph>
<glyph name="eth" format="1">
  <advance width="545"/>
  <unicode hex="00F0"/>
  <outline>
    <contour>
      <point x="270.0" y="-10.0" type="curve" smooth="yes"/>
      <point x="405.0" y="-10.0"/>
      <point x="495.0" y="103.0"/>
      <point x="495.0" y="259.0" type="curve" smooth="yes"/>
      <point x="495.0" y="490.0"/>
      <point x="348.0" y="676.0"/>
      <point x="112.0" y="749.0" type="curve"/>
      <point x="112.0" y="716.0" type="line"/>
      <point x="297.0" y="651.0"/>
      <point x="402.0" y="481.0"/>
      <point x="402.0" y="264.0" type="curve" smooth="yes"/>
      <point x="402.0" y="102.0"/>
      <point x="346" y="33"/>
      <point x="280" y="33" type="curve" smooth="yes"/>
      <point x="182" y="33"/>
      <point x="140" y="141"/>
      <point x="140" y="226" type="curve" smooth="yes"/>
      <point x="140" y="368"/>
      <point x="203.0" y="411.0"/>
      <point x="276.0" y="411.0" type="curve" smooth="yes"/>
      <point x="327.0" y="411.0"/>
      <point x="365.0" y="389.0"/>
      <point x="405.0" y="348.0" type="curve"/>
      <point x="436.0" y="429.0" type="line"/>
      <point x="397.0" y="446.0"/>
      <point x="362.0" y="460.0"/>
      <point x="289.0" y="460.0" type="curve" smooth="yes"/>
      <point x="160.0" y="460.0"/>
      <point x="50" y="378"/>
      <point x="50" y="215" type="curve" smooth="yes"/>
      <point x="50" y="91"/>
      <point x="139.0" y="-10.0"/>
    </contour>
    <contour>
      <point x="138" y="523" type="line"/>
      <point x="207" y="523" type="line"/>
      <point x="429" y="741" type="line"/>
      <point x="360" y="741" type="line"/>
    </contour>
  </outline>
</glyph>
<glyph name="divide" format="1">
  <advance width="500"/>
  <unicode hex="00F7"/>
  <outline>
    <contour>
      <point x="40" y="247" type="line"/>
      <point x="460" y="247" type="line"/>
      <point x="460" y="297" type="line"/>
      <point x="40" y="297" type="line"/>
    </contour>
    <contour>
      <point x="218" y="418" type="line"/>
      <point x="282" y="418" type="line"/>
      <point x="282" y="482" type="line"/>
      <point x="218" y="482" type="line"/>
    </contour>
    <contour>
      <point x="218" y="62" type="line"/>
      <point x="282" y="62" type="line"/>
      <point x="282" y="126" type="line"/>
      <point x="218" y="126" type="line"/>
    </contour>
  </outline>
</glyph>
<glyph name="oslash" format="1">
  <advance width="540"/>
  <unicode hex="00F8"/>
  <outline>
    <contour>
      <point x="270" y="-10" type="curve" smooth="yes"/>
      <point x="401" y="-10"/>
      <point x="490" y="91"/>
      <point x="490" y="225" type="curve" smooth="yes"/>
      <point x="490" y="359"/>
      <point x="401" y="460"/>
      <point x="270" y="460" type="curve" smooth="yes"/>
      <point x="139" y="460"/>
      <point x="50" y="359"/>
      <point x="50" y="225" type="curve" smooth="yes"/>
      <point x="50" y="91"/>
      <point x="139" y="-10"/>
    </contour>
    <contour>
      <point x="284" y="33" type="curve" smooth="yes"/>
      <point x="183" y="33"/>
      <point x="140" y="140"/>
      <point x="140" y="246" type="curve" smooth="yes"/>
      <point x="140" y="333"/>
      <point x="176" y="418"/>
      <point x="258" y="418" type="curve" smooth="yes"/>
      <point x="359" y="418"/>
      <point x="400" y="311"/>
      <point x="400" y="205" type="curve" smooth="yes"/>
      <point x="400" y="119"/>
      <point x="365" y="33"/>
    </contour>
    <contour>
      <point x="50" y="-10" type="line"/>
      <point x="116" y="-10" type="line"/>
      <point x="490" y="460" type="line"/>
      <point x="424" y="460" type="line"/>
    </contour>
    <contour>
      <point x="267" y="510" type="move" name="top"/>
    </contour>
  </outline>
</glyph>
<glyph name="thorn" format="1">
  <advance width="567"/>
  <unicode hex="00FE"/>
  <outline>
    <contour>
      <point x="48" y="-230" type="line"/>
      <point x="262" y="-230" type="line"/>
      <point x="262" y="-214" type="line"/>
      <point x="191" y="-182" type="line"/>
      <point x="191" y="750" type="line"/>
      <point x="175" y="750" type="line"/>
      <point x="51" y="695" type="line"/>
      <point x="51" y="688" type="line"/>
      <point x="111" y="636" type="line"/>
      <point x="111" y="-182" type="line"/>
      <point x="48" y="-214" type="line"/>
    </contour>
    <contour>
      <point x="292" y="-10" type="curve" smooth="yes"/>
      <point x="417" y="-10"/>
      <point x="519" y="83"/>
      <point x="519" y="247" type="curve" smooth="yes"/>
      <point x="519" y="379"/>
      <point x="446" y="460"/>
      <point x="345" y="460" type="curve" smooth="yes"/>
      <point x="291" y="460"/>
      <point x="247" y="442"/>
      <point x="196" y="399" type="curve"/>
      <point x="181" y="399" type="line"/>
      <point x="181" y="354" type="line"/>
      <point x="215" y="379"/>
      <point x="254" y="391"/>
      <point x="290" y="391" type="curve" smooth="yes"/>
      <point x="372" y="391"/>
      <point x="439" y="337"/>
      <point x="439" y="214" type="curve" smooth="yes"/>
      <point x="439" y="87"/>
      <point x="385" y="38"/>
      <point x="321" y="38" type="curve" smooth="yes"/>
      <point x="266" y="38"/>
      <point x="224" y="50"/>
      <point x="181" y="88" type="curve"/>
      <point x="131" y="20" type="line"/>
      <point x="174" y="1"/>
      <point x="225" y="-10"/>
    </contour>
  </outline>
</glyph>
<glyph name="Aogonek" format="1">
  <advance width="750"/>
  <unicode hex="0104"/>
  <outline>
    <contour>
      <point x="335" y="599" type="line"/>
      <point x="566" y="28" type="line"/>
      <point x="578" y="58" type="line"/>
      <point x="469" y="16" type="line"/>
      <point x="469" y="0" type="line"/>
      <point x="717" y="0" type="line"/>
      <point x="717" y="16" type="line"/>
      <point x="610" y="73" type="line"/>
      <point x="660" y="28" type="line"/>
      <point x="398" y="665" type="line"/>
      <point x="353" y="665" type="line"/>
      <point x="88" y="28" type="line"/>
      <point x="119" y="61" type="line"/>
      <point x="33" y="16" type="line"/>
      <point x="33" y="0" type="line"/>
      <point x="249" y="0" type="line"/>
      <point x="249" y="16" type="line"/>
      <point x="152" y="55" type="line"/>
      <point x="156" y="28" type="line"/>
      <point x="386" y="599" type="line"/>
    </contour>
    <contour>
      <point x="204" y="235" type="line"/>
      <point x="524" y="235" type="line"/>
      <point x="524" y="290" type="line"/>
      <point x="204" y="290" type="line"/>
    </contour>
    <contour>
      <point x="571" y="-130" type="curve" smooth="yes"/>
      <point x="571" y="-87"/>
      <point x="588" y="-41"/>
      <point x="631" y="20" type="curve"/>
      <point x="609" y="20" type="line"/>
      <point x="549" y="-48"/>
      <point x="505" y="-98"/>
      <point x="505" y="-152" type="curve" smooth="yes"/>
      <point x="505" y="-205"/>
      <point x="546" y="-240"/>
      <point x="604" y="-240" type="curve" smooth="yes"/>
      <point x="643" y="-240"/>
      <point x="671" y="-223"/>
      <point x="689" y="-195" type="curve"/>
      <point x="689" y="-183" type="line"/>
      <point x="686" y="-183" type="line"/>
      <point x="668" y="-193"/>
      <point x="651" y="-195"/>
      <point x="636" y="-195" type="curve" smooth="yes"/>
      <point x="595" y="-195"/>
      <point x="571" y="-176"/>
    </contour>
  </outline>
</glyph>
<glyph name="aogonek" format="1">
  <advance width="489.0"/>
  <unicode hex="0105"/>
  <outline>
    <contour>
      <point x="156" y="-10" type="curve" smooth="yes"/>
      <point x="212" y="-10"/>
      <point x="266" y="16"/>
      <point x="301" y="50" type="curve"/>
      <point x="319" y="50" type="line"/>
      <point x="319" y="83" type="line"/>
      <point x="269" y="60"/>
      <point x="237" y="52"/>
      <point x="200" y="52" type="curve" smooth="yes"/>
      <point x="152" y="52"/>
      <point x="125" y="73"/>
      <point x="125" y="114" type="curve" smooth="yes"/>
      <point x="125" y="162"/>
      <point x="144" y="197"/>
      <point x="333" y="229" type="curve"/>
      <point x="333" y="265" type="line"/>
      <point x="206" y="235" type="line" smooth="yes"/>
      <point x="91" y="208"/>
      <point x="47" y="159"/>
      <point x="47" y="94" type="curve"/>
      <point x="47" y="29"/>
      <point x="93" y="-10"/>
    </contour>
    <contour>
      <point x="385" y="-10" type="curve" smooth="yes"/>
      <point x="430" y="-10"/>
      <point x="462" y="16"/>
      <point x="478" y="45" type="curve"/>
      <point x="478" y="48" type="line"/>
      <point x="475" y="50" type="line"/>
      <point x="437" y="50" type="line" smooth="yes"/>
      <point x="407" y="50"/>
      <point x="390" y="57"/>
      <point x="381" y="67" type="curve"/>
      <point x="381" y="351" type="line" smooth="yes"/>
      <point x="381" y="435"/>
      <point x="308" y="460"/>
      <point x="237" y="460" type="curve" smooth="yes"/>
      <point x="191" y="460"/>
      <point x="150" y="442"/>
      <point x="113" y="418" type="curve" smooth="yes"/>
      <point x="77" y="395"/>
      <point x="60" y="362"/>
      <point x="60" y="333" type="curve" smooth="yes"/>
      <point x="60" y="309"/>
      <point x="66" y="305"/>
      <point x="86" y="305" type="curve" smooth="yes"/>
      <point x="138" y="305" type="line"/>
      <point x="143" y="310" type="line"/>
      <point x="143" y="338" type="line" smooth="yes"/>
      <point x="143" y="384"/>
      <point x="160" y="413"/>
      <point x="211" y="413" type="curve" smooth="yes"/>
      <point x="257" y="413"/>
      <point x="301" y="376"/>
      <point x="301" y="330" type="curve" smooth="yes"/>
      <point x="301" y="71" type="line"/>
      <point x="303" y="71" type="line"/>
      <point x="309" y="23"/>
      <point x="336" y="-10"/>
    </contour>
    <contour>
      <point x="392" y="-240" type="curve" smooth="yes"/>
      <point x="431" y="-240"/>
      <point x="459" y="-223"/>
      <point x="477" y="-195" type="curve"/>
      <point x="477" y="-183" type="line"/>
      <point x="474" y="-183" type="line"/>
      <point x="456" y="-193"/>
      <point x="439" y="-195"/>
      <point x="424" y="-195" type="curve" smooth="yes"/>
      <point x="383" y="-195"/>
      <point x="359" y="-176"/>
      <point x="359" y="-130" type="curve" smooth="yes"/>
      <point x="359" y="-87"/>
      <point x="376" y="-41"/>
      <point x="419" y="20" type="curve"/>
      <point x="397" y="20" type="line"/>
      <point x="337" y="-48"/>
      <point x="293" y="-98"/>
      <point x="293" y="-152" type="curve" smooth="yes"/>
      <point x="293" y="-205"/>
      <point x="334" y="-240"/>
    </contour>
  </outline>
</glyph>
<glyph name="Dcroat" format="1">
  <advance width="775"/>
  <unicode hex="0110"/>
  <outline>
    <contour>
      <point x="65" y="0" type="line"/>
      <point x="235" y="0" type="line"/>
      <point x="235" y="660" type="line"/>
      <point x="65" y="660" type="line"/>
      <point x="65" y="644" type="line"/>
      <point x="145" y="604" type="line"/>
      <point x="145" y="56" type="line"/>
      <point x="65" y="16" type="line"/>
    </contour>
    <contour>
      <point x="351" y="0" type="line" smooth="yes"/>
      <point x="554" y="0"/>
      <point x="705" y="152"/>
      <point x="705" y="360" type="curve" smooth="yes"/>
      <point x="705" y="532"/>
      <point x="579" y="660"/>
      <point x="358" y="660" type="curve" smooth="yes"/>
      <point x="182" y="660" type="line"/>
      <point x="182" y="605" type="line"/>
      <point x="335" y="605" type="line" smooth="yes"/>
      <point x="511" y="605"/>
      <point x="610" y="496"/>
      <point x="610" y="329" type="curve" smooth="yes"/>
      <point x="610" y="162"/>
      <point x="511" y="55"/>
      <point x="350" y="55" type="curve" smooth="yes"/>
      <point x="210" y="55" type="line"/>
      <point x="210" y="0" type="line"/>
    </contour>
    <contour>
      <point x="65" y="317" type="line"/>
      <point x="410" y="317" type="line"/>
      <point x="410" y="367" type="line"/>
      <point x="65" y="367" type="line"/>
    </contour>
  </outline>
</glyph>
<glyph name="dcroat" format="1">
  <advance width="575"/>
  <unicode hex="0111"/>
  <outline>
    <contour>
      <point x="222" y="-10" type="curve" smooth="yes"/>
      <point x="276" y="-10"/>
      <point x="320" y="8"/>
      <point x="371" y="51" type="curve"/>
      <point x="386" y="51" type="line"/>
      <point x="386" y="96" type="line"/>
      <point x="352" y="71"/>
      <point x="313" y="59"/>
      <point x="277" y="59" type="curve" smooth="yes"/>
      <point x="195" y="59"/>
      <point x="128" y="107"/>
      <point x="128" y="217" type="curve" smooth="yes"/>
      <point x="128" y="357"/>
      <point x="196" y="411"/>
      <point x="276" y="411" type="curve" smooth="yes"/>
      <point x="323" y="411"/>
      <point x="354" y="390"/>
      <point x="396" y="352" type="curve"/>
      <point x="436" y="430" type="line"/>
      <point x="397" y="447"/>
      <point x="362" y="460"/>
      <point x="289" y="460" type="curve" smooth="yes"/>
      <point x="159" y="460"/>
      <point x="48" y="364"/>
      <point x="48" y="194" type="curve" smooth="yes"/>
      <point x="48" y="68"/>
      <point x="121" y="-10"/>
    </contour>
    <contour>
      <point x="386" y="0" type="line"/>
      <point x="527" y="0" type="line"/>
      <point x="527" y="16" type="line"/>
      <point x="456" y="45" type="line"/>
      <point x="456" y="750" type="line"/>
      <point x="450" y="750" type="line"/>
      <point x="311" y="695" type="line"/>
      <point x="311" y="688" type="line"/>
      <point x="376" y="636" type="line"/>
      <point x="376" y="60" type="line"/>
    </contour>
    <contour>
      <point x="240" y="538" type="line"/>
      <point x="527" y="538" type="line"/>
      <point x="527" y="585" type="line"/>
      <point x="240" y="585" type="line"/>
    </contour>
  </outline>
</glyph>
<glyph name="Eogonek" format="1">
  <advance width="652.0"/>
  <unicode hex="0118"/>
  <outline>
    <contour>
      <point x="65" y="0" type="line"/>
      <point x="235" y="0" type="line"/>
      <point x="235" y="660" type="line"/>
      <point x="65" y="660" type="line"/>
      <point x="65" y="644" type="line"/>
      <point x="145" y="604" type="line"/>
      <point x="145" y="56" type="line"/>
      <point x="65" y="16" type="line"/>
    </contour>
    <contour>
      <point x="554" y="660" type="line"/>
      <point x="182" y="660" type="line"/>
      <point x="182" y="605" type="line"/>
      <point x="476" y="605" type="line"/>
      <point x="538" y="488" type="line"/>
      <point x="554" y="488" type="line"/>
    </contour>
    <contour>
      <point x="190" y="313" type="line"/>
      <point x="405" y="313" type="line"/>
      <point x="455" y="232" type="line"/>
      <point x="471" y="232" type="line"/>
      <point x="471" y="451" type="line"/>
      <point x="455" y="451" type="line"/>
      <point x="405" y="368" type="line"/>
      <point x="190" y="368" type="line"/>
    </contour>
    <contour>
      <point x="582" y="0" type="line"/>
      <point x="582" y="182" type="line"/>
      <point x="566" y="182" type="line"/>
      <point x="504" y="55" type="line"/>
      <point x="210" y="55" type="line"/>
      <point x="210" y="0" type="line"/>
    </contour>
    <contour>
      <point x="462" y="-130" type="curve" smooth="yes"/>
      <point x="462" y="-87"/>
      <point x="479" y="-41"/>
      <point x="522" y="20" type="curve"/>
      <point x="500" y="20" type="line"/>
      <point x="440" y="-48"/>
      <point x="396" y="-98"/>
      <point x="396" y="-152" type="curve" smooth="yes"/>
      <point x="396" y="-205"/>
      <point x="437" y="-240"/>
      <point x="495" y="-240" type="curve" smooth="yes"/>
      <point x="534" y="-240"/>
      <point x="562" y="-223"/>
      <point x="580" y="-195" type="curve"/>
      <point x="580" y="-183" type="line"/>
      <point x="577" y="-183" type="line"/>
      <point x="559" y="-193"/>
      <point x="542" y="-195"/>
      <point x="527" y="-195" type="curve" smooth="yes"/>
      <point x="486" y="-195"/>
      <point x="462" y="-176"/>
    </contour>
  </outline>
</glyph>
<glyph name="eogonek" format="1">
  <advance width="484"/>
  <unicode hex="0119"/>
  <outline>
    <contour>
      <point x="259" y="-10" type="curve" smooth="yes"/>
      <point x="295" y="-10"/>
      <point x="328" y="-1"/>
      <point x="354" y="14" type="curve"/>
      <point x="357" y="24" type="line"/>
      <point x="297" y="-41"/>
      <point x="249" y="-98"/>
      <point x="249" y="-152" type="curve" smooth="yes"/>
      <point x="249" y="-205"/>
      <point x="290" y="-240"/>
      <point x="348" y="-240" type="curve" smooth="yes"/>
      <point x="387" y="-240"/>
      <point x="415" y="-223"/>
      <point x="433" y="-195" type="curve"/>
      <point x="433" y="-183" type="line"/>
      <point x="430" y="-183" type="line"/>
      <point x="412" y="-193"/>
      <point x="395" y="-195"/>
      <point x="380" y="-195" type="curve" smooth="yes"/>
      <point x="339" y="-195"/>
      <point x="315" y="-176"/>
      <point x="315" y="-130" type="curve" smooth="yes"/>
      <point x="315" y="-82"/>
      <point x="337" y="-30"/>
      <point x="387" y="37" type="curve"/>
      <point x="407" y="54"/>
      <point x="423" y="74"/>
      <point x="434" y="95" type="curve"/>
      <point x="434" y="105" type="line"/>
      <point x="431" y="105" type="line"/>
      <point x="381" y="78"/>
      <point x="339" y="65"/>
      <point x="302" y="65" type="curve" smooth="yes"/>
      <point x="171" y="65"/>
      <point x="129" y="155"/>
      <point x="129" y="251" type="curve" smooth="yes"/>
      <point x="129" y="355"/>
      <point x="174" y="416"/>
      <point x="247" y="416" type="curve" smooth="yes"/>
      <point x="306" y="416"/>
      <point x="343" y="377"/>
      <point x="358" y="284" type="curve"/>
      <point x="376" y="288" type="line"/>
      <point x="119" y="288" type="line"/>
      <point x="119" y="242" type="line"/>
      <point x="428" y="242" type="line"/>
      <point x="433" y="247" type="line"/>
      <point x="433" y="384"/>
      <point x="368" y="460"/>
      <point x="263" y="460" type="curve" smooth="yes"/>
      <point x="150" y="460"/>
      <point x="50" y="354"/>
      <point x="50" y="205" type="curve" smooth="yes"/>
      <point x="50" y="75"/>
      <point x="130" y="-10"/>
    </contour>
  </outline>
</glyph>
<glyph name="Hbar" format="1">
  <advance width="810"/>
  <unicode hex="0126"/>
  <outline>
    <contour>
      <point x="65" y="0" type="line"/>
      <point x="315" y="0" type="line"/>
      <point x="315" y="16" type="line"/>
      <point x="235" y="56" type="line"/>
      <point x="235" y="604" type="line"/>
      <point x="315" y="644" type="line"/>
      <point x="315" y="660" type="line"/>
      <point x="65" y="660" type="line"/>
      <point x="65" y="644" type="line"/>
      <point x="145" y="604" type="line"/>
      <point x="145" y="56" type="line"/>
      <point x="65" y="16" type="line"/>
    </contour>
    <contour>
      <point x="190" y="313" type="line"/>
      <point x="620" y="313" type="line"/>
      <point x="620" y="368" type="line"/>
      <point x="190" y="368" type="line"/>
    </contour>
    <contour>
      <point x="495" y="0" type="line"/>
      <point x="745" y="0" type="line"/>
      <point x="745" y="16" type="line"/>
      <point x="665" y="56" type="line"/>
      <point x="665" y="604" type="line"/>
      <point x="745" y="644" type="line"/>
      <point x="745" y="660" type="line"/>
      <point x="495" y="660" type="line"/>
      <point x="495" y="644" type="line"/>
      <point x="575" y="604" type="line"/>
      <point x="575" y="56" type="line"/>
      <point x="495" y="16" type="line"/>
    </contour>
    <contour>
      <point x="65" y="470" type="line"/>
      <point x="745" y="470" type="line"/>
      <point x="745" y="520" type="line"/>
      <point x="65" y="520" type="line"/>
    </contour>
  </outline>
</glyph>
<glyph name="hbar" format="1">
  <advance width="582"/>
  <unicode hex="0127"/>
  <outline>
    <contour>
      <point x="191" y="45" type="line"/>
      <point x="191" y="750" type="line"/>
      <point x="185" y="750" type="line"/>
      <point x="51" y="695" type="line"/>
      <point x="51" y="688" type="line"/>
      <point x="111" y="636" type="line"/>
      <point x="111" y="48" type="line"/>
      <point x="48" y="16" type="line"/>
      <point x="48" y="0" type="line"/>
      <point x="262" y="0" type="line"/>
      <point x="262" y="16" type="line"/>
    </contour>
    <contour>
      <point x="48" y="538" type="line"/>
      <point x="335" y="538" type="line"/>
      <point x="335" y="585" type="line"/>
      <point x="48" y="585" type="line"/>
    </contour>
    <contour>
      <point x="330" y="0" type="line"/>
      <point x="544" y="0" type="line"/>
      <point x="544" y="16" type="line"/>
      <point x="481" y="48" type="line"/>
      <point x="481" y="343" type="line" smooth="yes"/>
      <point x="481" y="420"/>
      <point x="425" y="460"/>
      <point x="347" y="460" type="curve" smooth="yes"/>
      <point x="290" y="460"/>
      <point x="246" y="437"/>
      <point x="195" y="386" type="curve"/>
      <point x="183" y="386" type="line"/>
      <point x="183" y="342" type="line"/>
      <point x="205" y="371"/>
      <point x="262" y="386"/>
      <point x="302" y="386" type="curve" smooth="yes"/>
      <point x="360" y="386"/>
      <point x="401" y="355"/>
      <point x="401" y="296" type="curve" smooth="yes"/>
      <point x="401" y="45" type="line"/>
      <point x="330" y="16" type="line"/>
    </contour>
  </outline>
</glyph>
<glyph name="Iogonek" format="1">
  <advance width="390"/>
  <unicode hex="012E"/>
  <outline>
    <contour>
      <point x="70" y="0" type="line"/>
      <point x="320" y="0" type="line"/>
      <point x="320" y="16" type="line"/>
      <point x="240" y="56" type="line"/>
      <point x="240" y="604" type="line"/>
      <point x="320" y="644" type="line"/>
      <point x="320" y="660" type="line"/>
      <point x="70" y="660" type="line"/>
      <point x="70" y="644" type="line"/>
      <point x="150" y="604" type="line"/>
      <point x="150" y="56" type="line"/>
      <point x="70" y="16" type="line"/>
    </contour>
    <contour>
      <point x="202" y="-240" type="curve" smooth="yes"/>
      <point x="241" y="-240"/>
      <point x="269" y="-223"/>
      <point x="287" y="-195" type="curve"/>
      <point x="287" y="-183" type="line"/>
      <point x="284" y="-183" type="line"/>
      <point x="266" y="-193"/>
      <point x="249" y="-195"/>
      <point x="234" y="-195" type="curve" smooth="yes"/>
      <point x="193" y="-195"/>
      <point x="169" y="-176"/>
      <point x="169" y="-130" type="curve" smooth="yes"/>
      <point x="169" y="-87"/>
      <point x="186" y="-41"/>
      <point x="229" y="20" type="curve"/>
      <point x="207" y="20" type="line"/>
      <point x="147" y="-48"/>
      <point x="103" y="-98"/>
      <point x="103" y="-152" type="curve" smooth="yes"/>
      <point x="103" y="-205"/>
      <point x="144" y="-240"/>
    </contour>
  </outline>
</glyph>
<glyph name="iogonek" format="1">
  <advance width="313"/>
  <unicode hex="012F"/>
  <outline>
    <contour>
      <point x="54" y="0" type="line"/>
      <point x="260" y="0" type="line"/>
      <point x="260" y="16" type="line"/>
      <point x="197" y="48" type="line"/>
      <point x="197" y="460" type="line"/>
      <point x="191" y="460" type="line"/>
      <point x="57" y="405" type="line"/>
      <point x="57" y="398" type="line"/>
      <point x="117" y="346" type="line"/>
      <point x="117" y="48" type="line"/>
      <point x="54" y="16" type="line"/>
    </contour>
    <contour>
      <point x="154" y="581" type="curve" smooth="yes"/>
      <point x="188" y="581"/>
      <point x="214" y="607"/>
      <point x="214" y="641" type="curve" smooth="yes"/>
      <point x="214" y="676"/>
      <point x="188" y="701"/>
      <point x="154" y="701" type="curve" smooth="yes"/>
      <point x="119" y="701"/>
      <point x="94" y="676"/>
      <point x="94" y="641" type="curve" smooth="yes"/>
      <point x="94" y="607"/>
      <point x="119" y="581"/>
    </contour>
    <contour>
      <point x="165" y="-240" type="curve" smooth="yes"/>
      <point x="204" y="-240"/>
      <point x="232" y="-223"/>
      <point x="250" y="-195" type="curve"/>
      <point x="250" y="-183" type="line"/>
      <point x="247" y="-183" type="line"/>
      <point x="229" y="-193"/>
      <point x="212" y="-195"/>
      <point x="197" y="-195" type="curve" smooth="yes"/>
      <point x="156" y="-195"/>
      <point x="132" y="-176"/>
      <point x="132" y="-130" type="curve" smooth="yes"/>
      <point x="132" y="-87"/>
      <point x="149" y="-41"/>
      <point x="192" y="20" type="curve"/>
      <point x="170" y="20" type="line"/>
      <point x="110" y="-48"/>
      <point x="66" y="-98"/>
      <point x="66" y="-152" type="curve" smooth="yes"/>
      <point x="66" y="-205"/>
      <point x="107" y="-240"/>
    </contour>
  </outline>
</glyph>
<glyph name="idotless" format="1">
  <advance width="313"/>
  <unicode hex="0131"/>
  <outline>
    <contour>
      <point x="54" y="0" type="line"/>
      <point x="260" y="0" type="line"/>
      <point x="260" y="16" type="line"/>
      <point x="197" y="48" type="line"/>
      <point x="197" y="460" type="line"/>
      <point x="191" y="460" type="line"/>
      <point x="57" y="405" type="line"/>
      <point x="57" y="398" type="line"/>
      <point x="117" y="346" type="line"/>
      <point x="117" y="48" type="line"/>
      <point x="54" y="16" type="line"/>
    </contour>
    <contour>
      <point x="157.0" y="510.0" type="move" name="top"/>
    </contour>
    <contour>
      <point x="170.0" y="0.0" type="move" name="right"/>
    </contour>
    <contour>
      <point x="157.0" y="0.0" type="move" name="bottom"/>
    </contour>
  </outline>
</glyph>
<glyph name="kgreenlandic" format="1">
  <advance width="558.0"/>
  <unicode hex="0138"/>
  <outline>
    <contour>
      <point x="48" y="0" type="line"/>
      <point x="262" y="0" type="line"/>
      <point x="262" y="16" type="line"/>
      <point x="191" y="45" type="line"/>
      <point x="191" y="460" type="line"/>
      <point x="185" y="460" type="line"/>
      <point x="51" y="405" type="line"/>
      <point x="51" y="398" type="line"/>
      <point x="111" y="346" type="line"/>
      <point x="111" y="48" type="line"/>
      <point x="48" y="16" type="line"/>
    </contour>
    <contour>
      <point x="398" y="0" type="line"/>
      <point x="530" y="0" type="line"/>
      <point x="530" y="16" type="line"/>
      <point x="466" y="50" type="line"/>
      <point x="258" y="279" type="line"/>
      <point x="239" y="253" type="line"/>
      <point x="429" y="399" type="line"/>
      <point x="493" y="434" type="line"/>
      <point x="493" y="450" type="line"/>
      <point x="303" y="450" type="line"/>
      <point x="303" y="434" type="line"/>
      <point x="352" y="398" type="line"/>
      <point x="352" y="392" type="line"/>
      <point x="191" y="255" type="line"/>
      <point x="191" y="240" type="line"/>
      <point x="360" y="52" type="line"/>
    </contour>
  </outline>
</glyph>
<glyph name="Lslash" format="1">
  <advance width="632"/>
  <unicode hex="0141"/>
  <outline>
    <contour>
      <point x="65" y="0" type="line"/>
      <point x="562" y="0" type="line"/>
      <point x="562" y="222" type="line"/>
      <point x="546" y="222" type="line"/>
      <point x="478" y="55" type="line"/>
      <point x="235" y="55" type="line"/>
      <point x="235" y="604" type="line"/>
      <point x="325" y="644" type="line"/>
      <point x="325" y="660" type="line"/>
      <point x="65" y="660" type="line"/>
      <point x="65" y="644" type="line"/>
      <point x="145" y="604" type="line"/>
      <point x="145" y="56" type="line"/>
      <point x="65" y="16" type="line"/>
    </contour>
    <contour>
      <point x="66" y="196" type="line"/>
      <point x="163" y="263" type="line"/>
      <point x="222" y="292" type="line"/>
      <point x="383" y="401" type="line"/>
      <point x="383" y="460" type="line"/>
      <point x="222" y="351" type="line"/>
      <point x="163" y="322" type="line"/>
      <point x="66" y="255" type="line"/>
    </contour>
  </outline>
</glyph>
<glyph name="lslash" format="1">
  <advance width="294.0"/>
  <unicode hex="0142"/>
  <outline>
    <contour>
      <point x="44" y="0" type="line"/>
      <point x="250" y="0" type="line"/>
      <point x="250" y="16" type="line"/>
      <point x="187" y="48" type="line"/>
      <point x="187" y="750" type="line"/>
      <point x="171" y="750" type="line"/>
      <point x="47" y="695" type="line"/>
      <point x="47" y="688" type="line"/>
      <point x="107" y="636" type="line"/>
      <point x="107" y="48" type="line"/>
      <point x="44" y="16" type="line"/>
    </contour>
    <contour>
      <point x="44" y="266" type="line"/>
      <point x="136" y="323" type="line"/>
      <point x="167" y="335" type="line"/>
      <point x="260" y="394" type="line"/>
      <point x="260" y="450" type="line"/>
      <point x="169" y="393" type="line"/>
      <point x="135" y="379" type="line"/>
      <point x="44" y="322" type="line"/>
    </contour>
  </outline>
</glyph>
<glyph name="Eng" format="2">
  <advance width="799"/>
  <unicode hex="014A"/>
  <outline>
    <contour>
      <point x="524" y="-179" type="curve"/>
      <point x="592" y="-150" type="line"/>
      <point x="429" y="-150" type="line"/>
      <point x="429" y="-201" type="line" smooth="yes"/>
      <point x="429" y="-226"/>
      <point x="438" y="-240"/>
      <point x="483" y="-240" type="curve" smooth="yes"/>
      <point x="591" y="-240"/>
      <point x="660" y="-133"/>
      <point x="660" y="-14" type="curve" smooth="yes"/>
      <point x="660" y="605" type="line"/>
      <point x="739" y="644" type="line"/>
      <point x="739" y="660" type="line"/>
      <point x="490" y="660" type="line"/>
      <point x="490" y="644" type="line"/>
      <point x="590" y="606" type="line"/>
      <point x="590" y="100" type="line"/>
      <point x="655" y="100" type="line"/>
      <point x="208" y="660" type="line"/>
      <point x="61" y="660" type="line"/>
      <point x="61" y="644" type="line"/>
      <point x="140" y="602" type="line"/>
      <point x="140" y="56" type="line"/>
      <point x="60" y="16" type="line"/>
      <point x="60" y="0" type="line"/>
      <point x="310" y="0" type="line"/>
      <point x="310" y="16" type="line"/>
      <point x="210" y="55" type="line"/>
      <point x="210" y="561" type="line"/>
      <point x="169" y="561" type="line"/>
      <point x="618" y="1" type="line"/>
      <point x="590" y="65" type="line"/>
      <point x="590" y="-46" type="line" smooth="yes"/>
      <point x="590" y="-107"/>
      <point x="574" y="-153"/>
    </contour>
  </outline>
</glyph>
<glyph name="Eng" format="1">
  <advance width="799"/>
  <unicode hex="014A"/>
  <outline>
    <contour>
      <point x="60.0" y="0.0" type="line"/>
      <point x="310.0" y="0.0" type="line"/>
      <point x="310.0" y="16.0" type="line"/>
      <point x="210" y="55" type="line"/>
      <point x="210" y="561" type="line"/>
      <point x="169.0" y="561.0" type="line"/>
      <point x="618.0" y="1.0" type="line"/>
      <point x="590" y="65" type="line"/>
      <point x="590" y="-46" type="line" smooth="yes"/>
      <point x="590" y="-127"/>
      <point x="564.722772277" y="-157"/>
      <point x="479" y="-157" type="curve" smooth="yes"/>
      <point x="433" y="-157" type="line"/>
      <point x="429" y="-161" type="line"/>
      <point x="429" y="-211" type="line" smooth="yes"/>
      <point x="429" y="-233"/>
      <point x="441" y="-240"/>
      <point x="471" y="-240" type="curve" smooth="yes"/>
      <point x="518.288135593" y="-240.0"/>
      <point x="564.090644345" y="-225.757796379"/>
      <point x="595" y="-200" type="curve" smooth="yes"/>
      <point x="633.024898532" y="-168.629458711"/>
      <point x="660" y="-119.0"/>
      <point x="660" y="-26" type="curve" smooth="yes"/>
      <point x="660.0" y="605.0" type="line"/>
      <point x="739.0" y="644.0" type="line"/>
      <point x="739.0" y="660.0" type="line"/>
      <point x="490.0" y="660.0" type="line"/>
      <point x="490.0" y="644.0" type="line"/>
      <point x="590" y="606" type="line"/>
      <point x="590" y="100" type="line"/>
      <point x="655.0" y="100.0" type="line"/>
      <point x="208.0" y="660.0" type="line"/>
      <point x="61.0" y="660.0" type="line"/>
      <point x="61.0" y="644.0" type="line"/>
      <point x="140.0" y="602.0" type="line"/>
      <point x="140.0" y="56.0" type="line"/>
      <point x="60.0" y="16.0" type="line"/>
    </contour>
  </outline>
</glyph>
<glyph name="OE" format="1">
  <advance width="1013"/>
  <unicode hex="0152"/>
  <outline>
    <contour>
      <point x="417" y="0" type="curve" smooth="yes"/>
      <point x="596" y="0" type="line"/>
      <point x="596" y="660" type="line"/>
      <point x="424" y="660" type="line" smooth="yes"/>
      <point x="221" y="660"/>
      <point x="70" y="522"/>
      <point x="70" y="326" type="curve" smooth="yes"/>
      <point x="70" y="130"/>
      <point x="200" y="2"/>
    </contour>
    <contour>
      <point x="440" y="55" type="line" smooth="yes"/>
      <point x="264" y="55"/>
      <point x="165" y="164"/>
      <point x="165" y="330" type="curve" smooth="yes"/>
      <point x="165" y="499"/>
      <point x="264" y="605"/>
      <point x="425" y="605" type="curve" smooth="yes"/>
      <point x="535" y="605" type="line"/>
      <point x="506" y="627" type="line"/>
      <point x="506" y="28" type="line"/>
      <point x="532" y="55" type="line"/>
    </contour>
    <contour>
      <point x="915" y="488" type="line"/>
      <point x="915" y="660" type="line"/>
      <point x="563" y="660" type="line"/>
      <point x="563" y="605" type="line"/>
      <point x="837" y="605" type="line"/>
      <point x="899" y="488" type="line"/>
    </contour>
    <contour>
      <point x="832" y="232" type="line"/>
      <point x="832" y="451" type="line"/>
      <point x="816" y="451" type="line"/>
      <point x="766" y="368" type="line"/>
      <point x="551" y="368" type="line"/>
      <point x="551" y="313" type="line"/>
      <point x="766" y="313" type="line"/>
      <point x="816" y="232" type="line"/>
    </contour>
    <contour>
      <point x="943" y="0" type="line"/>
      <point x="943" y="182" type="line"/>
      <point x="927" y="182" type="line"/>
      <point x="865" y="55" type="line"/>
      <point x="571" y="55" type="line"/>
      <point x="571" y="0" type="line"/>
    </contour>
  </outline>
</glyph>
<glyph name="oe" format="1">
  <advance width="845"/>
  <unicode hex="0153"/>
  <outline>
    <contour>
      <point x="270" y="-10" type="curve" smooth="yes"/>
      <point x="352" y="-10"/>
      <point x="417" y="29"/>
      <point x="455" y="91" type="curve"/>
      <point x="437" y="91" type="line"/>
      <point x="470" y="28"/>
      <point x="534" y="-10"/>
      <point x="620" y="-10" type="curve" smooth="yes"/>
      <point x="701" y="-10"/>
      <point x="764" y="37"/>
      <point x="795" y="95" type="curve"/>
      <point x="795" y="105" type="line"/>
      <point x="792" y="105" type="line"/>
      <point x="742" y="78"/>
      <point x="700" y="65"/>
      <point x="663" y="65" type="curve" smooth="yes"/>
      <point x="532" y="65"/>
      <point x="490" y="155"/>
      <point x="490" y="251" type="curve" smooth="yes"/>
      <point x="490" y="355"/>
      <point x="535" y="416"/>
      <point x="608" y="416" type="curve" smooth="yes"/>
      <point x="667" y="416"/>
      <point x="704" y="377"/>
      <point x="719" y="284" type="curve"/>
      <point x="737" y="288" type="line"/>
      <point x="480" y="288" type="line"/>
      <point x="480" y="242" type="line"/>
      <point x="789" y="242" type="line"/>
      <point x="794" y="247" type="line"/>
      <point x="794" y="384"/>
      <point x="729" y="460"/>
      <point x="624" y="460" type="curve" smooth="yes"/>
      <point x="551" y="460"/>
      <point x="484" y="416"/>
      <point x="445" y="345" type="curve"/>
      <point x="462" y="345" type="line"/>
      <point x="426" y="415"/>
      <point x="358" y="460"/>
      <point x="270" y="460" type="curve" smooth="yes"/>
      <point x="139" y="460"/>
      <point x="50" y="359"/>
      <point x="50" y="225" type="curve" smooth="yes"/>
      <point x="50" y="91"/>
      <point x="139" y="-10"/>
    </contour>
    <contour>
      <point x="284" y="33" type="curve" smooth="yes"/>
      <point x="183" y="33"/>
      <point x="140" y="140"/>
      <point x="140" y="246" type="curve" smooth="yes"/>
      <point x="140" y="333"/>
      <point x="176" y="418"/>
      <point x="258" y="418" type="curve" smooth="yes"/>
      <point x="359" y="418"/>
      <point x="400" y="311"/>
      <point x="400" y="205" type="curve" smooth="yes"/>
      <point x="400" y="119"/>
      <point x="365" y="33"/>
    </contour>
  </outline>
</glyph>
<glyph name="Scedilla" format="1">
  <advance width="531"/>
  <unicode hex="015E"/>
  <outline>
    <contour>
      <point x="264" y="-10" type="curve" smooth="yes"/>
      <point x="356" y="-10"/>
      <point x="476" y="55"/>
      <point x="476" y="180" type="curve" smooth="yes"/>
      <point x="476" y="282"/>
      <point x="420" y="319"/>
      <point x="299" y="378" type="curve" smooth="yes"/>
      <point x="211" y="421"/>
      <point x="171" y="450"/>
      <point x="171" y="518" type="curve" smooth="yes"/>
      <point x="171" y="577"/>
      <point x="213" y="622"/>
      <point x="272" y="622" type="curve" smooth="yes"/>
      <point x="320" y="622"/>
      <point x="351" y="606"/>
      <point x="402" y="566" type="curve"/>
      <point x="376" y="612" type="line"/>
      <point x="439" y="468" type="line"/>
      <point x="455" y="468" type="line"/>
      <point x="445" y="628" type="line"/>
      <point x="391" y="655"/>
      <point x="342" y="670"/>
      <point x="280" y="670" type="curve" smooth="yes"/>
      <point x="179" y="670"/>
      <point x="81" y="577"/>
      <point x="81" y="487" type="curve" smooth="yes"/>
      <point x="81" y="395"/>
      <point x="134" y="357"/>
      <point x="228" y="310" type="curve" smooth="yes"/>
      <point x="328" y="260"/>
      <point x="390" y="239"/>
      <point x="390" y="152" type="curve" smooth="yes"/>
      <point x="390" y="81"/>
      <point x="343" y="37"/>
      <point x="264" y="37" type="curve" smooth="yes"/>
      <point x="215" y="37"/>
      <point x="168" y="56"/>
      <point x="115" y="102" type="curve"/>
      <point x="142" y="56" type="line"/>
      <point x="76" y="200" type="line"/>
      <point x="60" y="200" type="line"/>
      <point x="70" y="36" type="line"/>
      <point x="132" y="5"/>
      <point x="182" y="-10"/>
    </contour>
    <contour>
      <point x="272" y="-240" type="curve"/>
      <point x="335" y="-240"/>
      <point x="369" y="-203"/>
      <point x="369" y="-155" type="curve" smooth="yes"/>
      <point x="369" y="-98"/>
      <point x="337" y="-75"/>
      <point x="246" y="-49" type="curve"/>
      <point x="259" y="-69" type="line"/>
      <point x="300" y="20" type="line"/>
      <point x="265" y="20" type="line"/>
      <point x="208" y="-103" type="line"/>
      <point x="287" y="-128"/>
      <point x="309" y="-142"/>
      <point x="309" y="-171" type="curve" smooth="yes"/>
      <point x="309" y="-192"/>
      <point x="295" y="-210"/>
      <point x="255" y="-210" type="curve" smooth="yes"/>
      <point x="228" y="-210"/>
      <point x="210" y="-206"/>
      <point x="192" y="-198" type="curve"/>
      <point x="189" y="-198" type="line"/>
      <point x="189" y="-210" type="line"/>
      <point x="207" y="-231"/>
      <point x="235" y="-240"/>
    </contour>
  </outline>
</glyph>
<glyph name="scedilla" format="1">
  <advance width="432"/>
  <unicode hex="015F"/>
  <outline>
    <contour>
      <point x="213" y="-10" type="curve" smooth="yes"/>
      <point x="279" y="-10"/>
      <point x="364" y="37"/>
      <point x="364" y="126" type="curve" smooth="yes"/>
      <point x="364" y="220"/>
      <point x="299" y="239"/>
      <point x="242" y="266" type="curve" smooth="yes"/>
      <point x="179" y="295"/>
      <point x="146" y="312"/>
      <point x="146" y="357" type="curve" smooth="yes"/>
      <point x="146" y="397"/>
      <point x="176" y="421"/>
      <point x="221" y="421" type="curve" smooth="yes"/>
      <point x="252" y="421"/>
      <point x="279" y="406"/>
      <point x="301" y="370" type="curve" smooth="yes"/>
      <point x="334" y="317" type="line"/>
      <point x="348" y="317" type="line"/>
      <point x="348" y="426" type="line"/>
      <point x="306" y="447"/>
      <point x="266" y="460"/>
      <point x="217" y="460" type="curve" smooth="yes"/>
      <point x="147" y="460"/>
      <point x="75" y="401"/>
      <point x="75" y="327" type="curve" smooth="yes"/>
      <point x="75" y="260"/>
      <point x="113" y="230"/>
      <point x="181" y="199" type="curve" smooth="yes"/>
      <point x="250" y="167"/>
      <point x="295" y="154"/>
      <point x="295" y="97" type="curve" smooth="yes"/>
      <point x="295" y="53"/>
      <point x="264" y="26"/>
      <point x="210" y="26" type="curve" smooth="yes"/>
      <point x="162" y="26"/>
      <point x="130" y="44"/>
      <point x="109" y="81" type="curve" smooth="yes"/>
      <point x="77" y="136" type="line"/>
      <point x="63" y="136" type="line"/>
      <point x="63" y="24" type="line"/>
      <point x="110" y="0"/>
      <point x="150" y="-10"/>
    </contour>
    <contour>
      <point x="215" y="-240" type="curve"/>
      <point x="278" y="-240"/>
      <point x="312" y="-203"/>
      <point x="312" y="-155" type="curve" smooth="yes"/>
      <point x="312" y="-98"/>
      <point x="280" y="-75"/>
      <point x="189" y="-49" type="curve"/>
      <point x="202" y="-69" type="line"/>
      <point x="243" y="20" type="line"/>
      <point x="208" y="20" type="line"/>
      <point x="151" y="-103" type="line"/>
      <point x="230" y="-128"/>
      <point x="252" y="-142"/>
      <point x="252" y="-171" type="curve" smooth="yes"/>
      <point x="252" y="-192"/>
      <point x="238" y="-210"/>
      <point x="198" y="-210" type="curve" smooth="yes"/>
      <point x="171" y="-210"/>
      <point x="153" y="-206"/>
      <point x="135" y="-198" type="curve"/>
      <point x="132" y="-198" type="line"/>
      <point x="132" y="-210" type="line"/>
      <point x="150" y="-231"/>
      <point x="178" y="-240"/>
    </contour>
  </outline>
</glyph>
<glyph name="Tcedilla" format="1">
  <advance width="674"/>
  <unicode hex="0162"/>
  <outline>
    <contour>
      <point x="192" y="0" type="line"/>
      <point x="482" y="0" type="line"/>
      <point x="482" y="16" type="line"/>
      <point x="382" y="56" type="line"/>
      <point x="382" y="605" type="line"/>
      <point x="545" y="605" type="line"/>
      <point x="613" y="458" type="line"/>
      <point x="629" y="458" type="line"/>
      <point x="629" y="660" type="line"/>
      <point x="45" y="660" type="line"/>
      <point x="45" y="458" type="line"/>
      <point x="61" y="458" type="line"/>
      <point x="129" y="605" type="line"/>
      <point x="292" y="605" type="line"/>
      <point x="292" y="56" type="line"/>
      <point x="192" y="16" type="line"/>
    </contour>
    <contour>
      <point x="337" y="-240" type="curve"/>
      <point x="400" y="-240"/>
      <point x="434" y="-203"/>
      <point x="434" y="-155" type="curve" smooth="yes"/>
      <point x="434" y="-98"/>
      <point x="402" y="-75"/>
      <point x="311" y="-49" type="curve"/>
      <point x="324" y="-69" type="line"/>
      <point x="365" y="20" type="line"/>
      <point x="330" y="20" type="line"/>
      <point x="273" y="-103" type="line"/>
      <point x="352" y="-128"/>
      <point x="374" y="-142"/>
      <point x="374" y="-171" type="curve" smooth="yes"/>
      <point x="374" y="-192"/>
      <point x="360" y="-210"/>
      <point x="320" y="-210" type="curve" smooth="yes"/>
      <point x="293" y="-210"/>
      <point x="275" y="-206"/>
      <point x="257" y="-198" type="curve"/>
      <point x="254" y="-198" type="line"/>
      <point x="254" y="-210" type="line"/>
      <point x="272" y="-231"/>
      <point x="300" y="-240"/>
    </contour>
  </outline>
</glyph>
